<svg xmlns="http://www.w3.org/2000/svg" width="121" height="146" viewBox="0 0 121 146">
  <g id="Grupo_960372" data-name="Grupo 960372" transform="translate(-305 -3315)">
    <path id="Trazado_725146" data-name="Trazado 725146" d="M58,0h5c32.033,0,58,20.493,58,45.773V146H0V45.773C0,20.493,25.967,0,58,0Z" transform="translate(305 3315)" fill="#39a900"/>
    <g id="Grupo_957544" data-name="Grupo 957544" transform="translate(322.501 3346.731)">
      <path id="Trazado_684794" data-name="Trazado 684794" d="M86.92,69.168V72.4A11.758,11.758,0,0,1,75.168,84.148H12.752A11.758,11.758,0,0,1,1,72.4V69.168a11.7,11.7,0,0,1,1.469-5.7L33.677,7.07a11.745,11.745,0,0,1,20.565,0l31.208,56.4a11.7,11.7,0,0,1,1.469,5.7Z" transform="translate(-1 -1)" fill="#ffc32c"/>
      <path id="Trazado_684795" data-name="Trazado 684795" d="M86.426,69.168V72.4A11.758,11.758,0,0,1,74.674,84.148H12.258A11.748,11.748,0,0,1,2.28,78.6H60.816A11.758,11.758,0,0,0,72.568,66.853V63.624a11.7,11.7,0,0,0-1.469-5.7L39.9,1.554A11.739,11.739,0,0,1,53.749,7.07l31.208,56.4a11.7,11.7,0,0,1,1.469,5.7Z" transform="translate(-0.506 -1)" fill="#ffa300"/>
      <ellipse id="Elipse_5447" data-name="Elipse 5447" cx="7.335" cy="6.811" rx="7.335" ry="6.811" transform="translate(35.625 60.561)" fill="#39a900"/>
      <path id="Trazado_684796" data-name="Trazado 684796" d="M40.472,50.89A6.922,6.922,0,0,1,28,55.034a6.531,6.531,0,0,0,1.386.139,6.932,6.932,0,0,0,6.929-6.929A6.837,6.837,0,0,0,34.929,44.1,6.93,6.93,0,0,1,40.472,50.89Z" transform="translate(9.61 16.301)" fill="#0e494d"/>
      <path id="Trazado_684797" data-name="Trazado 684797" d="M41.016,15A1.392,1.392,0,0,1,42.4,16.552L38.591,44.3a1.388,1.388,0,0,1-1.372,1.192h-5.9A1.388,1.388,0,0,1,29.944,44.3L26.133,16.552A1.392,1.392,0,0,1,27.518,15Z" transform="translate(8.693 4.401)" fill="#39a900"/>
      <path id="Trazado_684798" data-name="Trazado 684798" d="M41.4,16.552,37.589,44.3a1.388,1.388,0,0,1-1.372,1.192h-5.9A1.388,1.388,0,0,1,28.942,44.3l-.222-1.58h3.34a1.388,1.388,0,0,0,1.372-1.192L37.076,15h2.938A1.392,1.392,0,0,1,41.4,16.552Z" transform="translate(9.695 4.401)" fill="#0e494d"/>
      <g id="Grupo_946421" data-name="Grupo 946421" transform="translate(32.565 3.466)">
        <path id="Trazado_684799" data-name="Trazado 684799" d="M26.578,15.972A2.08,2.08,0,0,1,24.8,12.823l3.167-5.277a8.67,8.67,0,0,1,3.566-3.3l1.049-.524a2.079,2.079,0,1,1,1.86,3.719l-1.048.522a4.533,4.533,0,0,0-1.861,1.723l-3.167,5.279a2.075,2.075,0,0,1-1.784,1.009Z" transform="translate(-24.499 -3.501)" fill="#ffedc5"/>
      </g>
    </g>
  </g>
</svg>
