<svg xmlns="http://www.w3.org/2000/svg" xmlns:xlink="http://www.w3.org/1999/xlink" width="62" height="62" viewBox="0 0 62 62">
  <defs>
    <clipPath id="clip-path">
      <rect id="Rect치ngulo_340691" data-name="Rect치ngulo 340691" width="49.128" height="49.126" fill="none"/>
    </clipPath>
  </defs>
  <g id="Grupo_983967" data-name="Grupo 983967" transform="translate(-244 -10423)">
    <g id="Rect치ngulo_340676" data-name="Rect치ngulo 340676" transform="translate(244 10423)" fill="none" stroke="#39a900" stroke-width="3">
      <rect width="62" height="62" rx="7" stroke="none"/>
      <rect x="1.5" y="1.5" width="59" height="59" rx="5.5" fill="none"/>
    </g>
    <g id="Grupo_983966" data-name="Grupo 983966" transform="translate(250 10429)">
      <g id="Grupo_983965" data-name="Grupo 983965" transform="translate(0 0)" clip-path="url(#clip-path)">
        <path id="Trazado_727695" data-name="Trazado 727695" d="M5.8,0H33.886A1.664,1.664,0,0,1,35.37,1.94q0,7.5,0,15c0,.143,0,.287,0,.431.01.513.021.534.554.511a12.271,12.271,0,0,1,8.768,2.67c.539.451.606.742.351,1.277-.509.49-.823.516-1.371.076a10.565,10.565,0,0,0-14.052.7A10.478,10.478,0,0,0,29,36.963a10.306,10.306,0,0,0,5.769,3.45,10.726,10.726,0,0,0,4.279.032,9.783,9.783,0,0,0,4.553-2.1,10.565,10.565,0,0,0,2.276-13.95c-.086-.134-.184-.262-.257-.4a.97.97,0,0,1,.128-1.231.871.871,0,0,1,1.275.313,12.393,12.393,0,0,1,1.856,3.954c.16.568.13,1.161.251,1.733v2.684a9.789,9.789,0,0,1-.937,3.681,12.043,12.043,0,0,1-10.606,7.206c-.56.038-1.117-.005-1.675-.01-.511,0-.526.007-.534.537,0,.319,0,.639,0,.958a1.855,1.855,0,0,1-1.83,1.942c-.652.054-1.309.01-1.963.02-.562.009-.6.049-.613.6-.006.351.015.7-.012,1.054a1.7,1.7,0,0,1-1.815,1.7q-13.7.006-27.4,0C.58,49.123,0,48.512,0,47.315Q0,35.65,0,23.984q0-6.18,0-12.36c0-.661.107-.821.648-1.011a.882.882,0,0,1,.973.886,7.263,7.263,0,0,1,.017.814q0,17.028,0,34.057c0,1.116,0,1.117,1.1,1.117H28.275c.955,0,.955,0,.951-.953,0-.729-.019-.748-.752-.749-3.034,0-6.067,0-9.1,0-.785,0-1.045-.174-1.294-.812.007-.559.184-.755.816-.9,4.356-.017,8.711,0,13.067-.007.383,0,.766-.023,1.149-.021.351,0,.54-.152.528-.517,0-.063,0,.016,0-.048.075-1.484.075-1.484-1.334-2.036a10.891,10.891,0,0,1-1.661-.852,2.368,2.368,0,0,0-1.358-.368q-9.586.013-19.172.005a4.413,4.413,0,0,1-.86-.04.882.882,0,0,1-.791-.926c.024-.458.327-.725.874-.766.223-.017.447-.009.671-.009q8.651,0,17.3,0a1.135,1.135,0,0,0,.631-.085c-.426-.49-.771-1.021-1.206-1.48-.188-.2-.481-.14-.734-.141q-3.019-.005-6.039,0H9.9a3.21,3.21,0,0,1-.716-.04.883.883,0,0,1-.719-.891.856.856,0,0,1,.77-.788,4.838,4.838,0,0,1,.718-.022h14.81c.128,0,.256,0,.384,0,.54-.012.569-.051.39-.541-.425-1.167-.425-1.167-1.655-1.167H9.978a3.938,3.938,0,0,1-.765-.035.861.861,0,0,1-.763-.848.872.872,0,0,1,.824-.842,5.643,5.643,0,0,1,.67-.016h13.9q.263,0,.527,0c.3,0,.452-.117.393-.441a4.253,4.253,0,0,1-.042-.669c-.013-.553-.047-.593-.613-.594q-3.451-.007-6.9,0H9.827a3.206,3.206,0,0,1-.669-.034.861.861,0,0,1-.7-.8.829.829,0,0,1,.6-.831,2.546,2.546,0,0,1,.855-.075H24.094c.762,0,.762,0,.946-.743.239-.966.239-.966-.751-.966H9.91a4.06,4.06,0,0,1-.718-.027.851.851,0,0,1-.73-.773.875.875,0,0,1,.619-.872,2.7,2.7,0,0,1,.856-.068c5.065,0,10.129-.01,15.194.012a1.157,1.157,0,0,0,1.25-.718,5.013,5.013,0,0,1,.455-.732c.112-.172.069-.265-.142-.27-.128,0-.256,0-.383,0H9.919a4.573,4.573,0,0,1-.766-.028.754.754,0,0,1-.687-.69.842.842,0,0,1,.5-.893,2.2,2.2,0,0,1,.942-.128c5.863,0,11.727-.009,17.59.011a2.429,2.429,0,0,0,1.774-.638,9.972,9.972,0,0,1,3.113-1.854,5.507,5.507,0,0,1,.715-.274.665.665,0,0,0,.539-.77c-.015-1.357-.006-2.715-.006-4.072q0-5.557,0-11.115c0-.176,0-.351-.01-.527a.356.356,0,0,0-.388-.387c-.3-.009-.606-.016-.91-.012-1.806.016-3.611.006-5.416.007q-9.753,0-19.507,0H6.93c-.833,0-.872.043-.878.855,0,.08,0,.16,0,.239v40.26c0,1.086,0,1.086,1.076,1.086q4.338,0,8.675,0c.481,0,.943.039,1.123.6.058.747-.243,1.107-1,1.133-.926.032-1.853.009-2.779.01q-3.234,0-6.469,0A2.085,2.085,0,0,1,4.305,43.39q0-18.687,0-37.374c0-.973,0-.973-.961-.973-.367,0-.735-.011-1.1.005-.5.022-.587.1-.6.6-.018.926.007,1.853-.012,2.779-.014.684-.221.936-.841,1.085C.172,9.4.006,9.209,0,8.585,0,7.467,0,6.349,0,5.231a1.754,1.754,0,0,1,1.813-1.91c.638-.037,1.278,0,1.917-.013.535-.007.575-.048.584-.57.005-.3-.008-.607.006-.911A1.745,1.745,0,0,1,5.8,0" transform="translate(0 0)"/>
        <path id="Trazado_727696" data-name="Trazado 727696" d="M24.719,46.58a.877.877,0,0,0-.94-.5c-3.115.01-6.23.006-9.345.005-.61,0-.647-.038-.647-.656q0-20.725,0-41.451c0-.378.03-.64.526-.64q12.891.015,25.782.008a1.341,1.341,0,0,1,.143.015c.281.153.244.429.247.678.01.91,0,1.819,0,2.729q0,6.56,0,13.119a1.314,1.314,0,0,1-.156.877,12.336,12.336,0,0,0-3.68,2.37.834.834,0,0,1-.662.182q-9.2,0-18.4,0a2.759,2.759,0,0,0-.571.035.7.7,0,0,0,.065,1.386,4.3,4.3,0,0,0,.526.015h17.55a18.827,18.827,0,0,0-1.144,1.887c-.1.207-.316.107-.476.107q-6.781.009-13.563,0c-.926,0-1.853-.011-2.779.006a.7.7,0,0,0-.74.711c0,.433.281.7.776.719.128.006.256,0,.383,0H27.77c1.725,0,3.451.009,5.176-.007.361,0,.438.071.308.421a3.807,3.807,0,0,0-.268,1.111c-.021.455-.243.482-.609.481q-7.4-.015-14.808-.006a3.632,3.632,0,0,0-.478.01.694.694,0,0,0-.636.759.672.672,0,0,0,.681.664c.143.012.287,0,.431,0,4.9,0,9.809.006,14.713-.01.4,0,.519.1.49.494a4.766,4.766,0,0,0,.064,1.049c.052.349,0,.487-.415.485-3.626-.018-7.252-.011-10.879-.011q-2.085,0-4.17,0c-.608,0-.924.251-.92.721s.321.715.932.716q7.644,0,15.288-.009c.366,0,.526.086.618.454.131.518.347,1.014.542,1.56H17.553a3.877,3.877,0,0,0-.479.008.651.651,0,0,0-.618.621.671.671,0,0,0,.463.75,1.577,1.577,0,0,0,.615.058q8.339,0,16.677-.005a.694.694,0,0,1,.693.364,12.757,12.757,0,0,0,1.308,1.636h-18.6a4.685,4.685,0,0,0-.526.014.648.648,0,0,0-.633.656.662.662,0,0,0,.593.743,2.711,2.711,0,0,0,.525.023q9.92,0,19.84,0a1.5,1.5,0,0,1,.935.27,14.235,14.235,0,0,0,1.887,1.022.6.6,0,0,1,.246.586c.009.558.016,1.117,0,1.675-.016.509-.075.555-.6.555q-6.319,0-12.637,0a1.729,1.729,0,0,0-.523.027c-.333.125-.662.252-.664.693-.572.273-1.121.194-1.335-.192" transform="translate(-7.881 -1.91)" fill="#f9f6f7"/>
        <path id="Trazado_727697" data-name="Trazado 727697" d="M74.188,66.468a8.293,8.293,0,0,1-3.319.163,10.68,10.68,0,0,1-.3-21.171,9.253,9.253,0,0,1,3.609.111,9.776,9.776,0,0,1,4.488,3.451A11.013,11.013,0,0,1,81,54.967a11.353,11.353,0,0,1-2.433,8.2,11.53,11.53,0,0,1-3.112,2.738,7.529,7.529,0,0,1-1.263.561" transform="translate(-35.126 -25.92)" fill="#6ce699"/>
        <path id="Trazado_727698" data-name="Trazado 727698" d="M17.67,51.205c.2.3.505.169.771.189.187.014.376,0,.564,0,.192.632.355.754,1.027.754,3.242,0,6.485.007,9.728-.009.372,0,.5.087.467.467a7.027,7.027,0,0,0,0,1.053c.019.362-.111.55-.494.515-.079-.007-.159,0-.239,0H3.038c-.72,0-.721,0-.721-.717V18.286c0-.77-.182-.985-.863-1.027a3.688,3.688,0,0,0,.1-1.326c.621-.151.765-.327.767-.952,0-1.006.013-2.012-.006-3.017-.007-.4.15-.541.538-.532.718.017,1.437.013,2.155,0,.229,0,.322.066.3.3a3.681,3.681,0,0,0,0,.383V50c0,1.515.637,2.156,2.145,2.156q4.646,0,9.292,0c.714,0,.94-.235.933-.946" transform="translate(-0.831 -6.535)" fill="#e6e1e5"/>
        <path id="Trazado_727699" data-name="Trazado 727699" d="M91.2,66.782a17.383,17.383,0,0,0,2.605-1.666,11.1,11.1,0,0,0,3.9-6.555,11.213,11.213,0,0,0-2.149-9.193,10.783,10.783,0,0,0-3.7-3.111c-.224-.116-.442-.247-.663-.371a9.8,9.8,0,0,1,4.657,2.146.851.851,0,0,0,1.2.073l.885.961a.882.882,0,0,0,0,1.208,10.679,10.679,0,0,1-5.94,16.359,2.152,2.152,0,0,1-.791.149" transform="translate(-52.14 -26.234)" fill="#00d7a1"/>
        <path id="Trazado_727700" data-name="Trazado 727700" d="M75.639,20.774V3.928a.908.908,0,0,0-.094-.555c.351-.005.7-.007,1.053-.017.282-.008.414.125.406.4,0,.1,0,.192,0,.288q0,7.908.006,15.816c0,.331-.051.527-.425.594a6.416,6.416,0,0,0-.948.318" transform="translate(-43.192 -1.918)" fill="#efedef"/>
        <path id="Trazado_727701" data-name="Trazado 727701" d="M43.985,99.336c.169-.138.369-.075.554-.075q6.176-.006,12.352,0c.8,0,.719.082.7-.727a7.406,7.406,0,0,0-.088-2.04c.406.133.811.272,1.22.4a.3.3,0,0,1,.244.342q-.019.838,0,1.675c.006.337-.158.453-.472.443s-.639,0-.958,0l-13.549-.01" transform="translate(-25.147 -55.166)" fill="#efedef"/>
        <path id="Trazado_727702" data-name="Trazado 727702" d="M34.022,13.143q-3.712,0-7.424,0a1.7,1.7,0,0,1-1.882-1.9c0-.7-.005-1.405,0-2.108a1.67,1.67,0,0,1,1.735-1.757q7.543-.007,15.087,0a1.676,1.676,0,0,1,1.745,1.707q.038,1.172,0,2.347a1.679,1.679,0,0,1-1.79,1.709q-3.737.008-7.472,0" transform="translate(-14.129 -4.217)"/>
        <path id="Trazado_727703" data-name="Trazado 727703" d="M31.3,35.416q-5.1,0-10.2,0a2.21,2.21,0,0,1-.522-.036.66.66,0,0,1-.555-.772.652.652,0,0,1,.664-.624c.127-.01.255,0,.383,0h20.5a3.515,3.515,0,0,1,.43.01.659.659,0,0,1,.609.636.674.674,0,0,1-.444.72,1.476,1.476,0,0,1-.613.072H31.3" transform="translate(-11.442 -19.425)"/>
        <path id="Trazado_727704" data-name="Trazado 727704" d="M31.332,27.379h-10.3a1.29,1.29,0,0,1-.611-.078.678.678,0,0,1-.4-.742.66.66,0,0,1,.584-.605,2.732,2.732,0,0,1,.478-.013H41.536c.734,0,1.083.23,1.082.712s-.358.725-1.081.725h-10.2" transform="translate(-11.44 -14.829)"/>
        <path id="Trazado_727705" data-name="Trazado 727705" d="M31.285,41.981h10.3c.684,0,1.036.247,1.036.717s-.354.721-1.034.721q-10.276,0-20.551,0a1.937,1.937,0,0,1-.521-.047.645.645,0,0,1-.5-.719.634.634,0,0,1,.543-.636,2.888,2.888,0,0,1,.572-.033q5.078,0,10.156,0" transform="translate(-11.442 -24.001)" fill="#010101"/>
        <path id="Trazado_727706" data-name="Trazado 727706" d="M70.993,60.236a2.241,2.241,0,0,1,1.674.7c.489.483.988.956,1.452,1.461.25.272.4.281.666.006q2.521-2.561,5.078-5.086a2.3,2.3,0,0,1,3.847.879,2.136,2.136,0,0,1-.5,2.308Q79.629,64.135,76,67.72a2.226,2.226,0,0,1-3.088,0q-1.851-1.772-3.625-3.624a2.178,2.178,0,0,1-.413-2.491,2.261,2.261,0,0,1,2.122-1.373" transform="translate(-39.253 -32.367)"/>
        <path id="Trazado_727707" data-name="Trazado 727707" d="M42.611,13.6c-1.005.007-2.01.019-3.016.02-3.64,0-7.28-.007-10.92.011-.475,0-.663-.116-.627-.614a13.447,13.447,0,0,0,0-1.723c-.026-.445.13-.573.572-.571,3.991.015,7.983.008,11.974.009.654,0,1.308.01,1.963.015a.46.46,0,0,1,.212.4c.025.707.027,1.415,0,2.122a.429.429,0,0,1-.158.331" transform="translate(-16.034 -6.128)" fill="#6ce699"/>
        <path id="Trazado_727708" data-name="Trazado 727708" d="M61.987,13.6a19.953,19.953,0,0,0-.054-2.853c1.418-.043,1.181-.117,1.2,1.116.007.414-.015.829.006,1.242.02.4-.14.56-.533.519-.205-.022-.413-.017-.62-.024" transform="translate(-35.409 -6.135)" fill="#00d6a0"/>
        <path id="Trazado_727709" data-name="Trazado 727709" d="M84.34,60.872a1.03,1.03,0,0,1-.317.675q-3.472,3.468-6.942,6.938a.87.87,0,0,1-1.383,0q-1.668-1.65-3.318-3.317a.881.881,0,0,1-.074-1.316.9.9,0,0,1,1.317.069c.717.7,1.421,1.423,2.136,2.129a.757.757,0,0,0,1.269-.011q2.8-2.789,5.589-5.583a2.067,2.067,0,0,1,.436-.367.878.878,0,0,1,1.289.783" transform="translate(-41.19 -34.294)" fill="#f9f6f7"/>
      </g>
    </g>
  </g>
</svg>
