<svg xmlns="http://www.w3.org/2000/svg" xmlns:xlink="http://www.w3.org/1999/xlink" width="415.028" height="530.039" viewBox="0 0 415.028 530.039">
  <defs>
    <clipPath id="clip-path">
      <rect id="Rectángulo_340648" data-name="Rectángulo 340648" width="335.8" height="530.039" fill="none"/>
    </clipPath>
  </defs>
  <g id="Grupo_960374" data-name="Grupo 960374" transform="translate(5780 4040)">
    <path id="Trazado_727488" data-name="Trazado 727488" d="M190.313,432.643S87.95,417.236,61.9,329.27,26.456,187.492,69.6,151.989s44.319-31.269,80.274-62.087S233.39,18.381,315.606,30.2s113.548,53.932,131.525,98.62,1.028,91.111-15.923,120.291-26.2,56.917-29.278,89.79S351.6,444.207,190.313,432.643Z" transform="translate(-5819.796 -4006.103)" fill="#badc61"/>
    <g id="Grupo_960368" data-name="Grupo 960368" transform="translate(-5741 -4040)">
      <g id="Grupo_960367" data-name="Grupo 960367" clip-path="url(#clip-path)">
        <path id="Trazado_727386" data-name="Trazado 727386" d="M51.216,178.268c-13.511,12.075-30.39,28.773-25.671,48.422,6.343,19.029,32.052,19.486,45.56,7.589,21.735-16.93,25.646-48.675,48.518-64.523a48.644,48.644,0,0,1-2.039-32.026c-23.085,2.615-48.249,26.214-66.369,40.539" transform="translate(2.85 15.866)" fill="#aad447"/>
        <path id="Trazado_727387" data-name="Trazado 727387" d="M22.663,215.312a26.937,26.937,0,0,1,2.849-18.1,22.11,22.11,0,0,1,14.6-10.758c7.9-1.542,15.846,1.746,23.837,2.679,2.492.291,5.313.5,6.915,2.43,1.178,1.419,1.352,3.4,1.364,5.245a47.518,47.518,0,0,1-7.785,26.3c-3.657,5.549-8.705,10.439-15,12.581a19.19,19.19,0,0,1-13.93-.521c-4.581-2.087-7.638-6.744-9.858-11.105a32.077,32.077,0,0,1-3-8.747" transform="translate(2.557 21.433)" fill="#7cac35"/>
        <path id="Trazado_727388" data-name="Trazado 727388" d="M116.251,287.691c22.84-2.355,45.758-3.867,68.62-5.974,11.717-1.079,23.426-2.287,35.092-3.832,11.27-1.493,22-1.42,33.4-1.531,1.929-.018,6.023,29.061,6.547,32,2.058,11.523,3.969,23.075,5.555,34.673,3.156,23.094,5.024,46.429,4.117,69.747q-.109,2.8-.27,5.6c-.455,7.809-1.228,15.691.014,23.414,1.033,6.425,3.431,12.54,5.079,18.836,6.024,23.014,1.838,47.319-2.374,70.733-8.568.581-17.3.843-25.9.843-10.874.191-21.391-1.994-32.06-1.592.717-.027-5.651-62.711-6.385-68.384q-4.453-34.408-11.371-68.436-3.16-15.542-6.831-30.975c.758,2.906-.371,4.615-1.152,7.282-1.133,3.871-1.582,8.064-2.4,12.016-1.663,8.038-3.5,16.045-5.79,23.93-2.976,10.234-6.734,20.321-8.092,30.893-1.484,11.556-.05,23.284-.629,34.92-1.105,22.188-9.45,43.29-17.688,63.921-8.221,1.213-16.91.272-25.286.326-9.4.06-18.793.3-28.193.572-.48.014,5.11-116.37,5.907-126.947,3.077-40.78,7.756-81.388,10.086-122.03" transform="translate(11.546 31.836)" fill="#111414"/>
        <path id="Trazado_727389" data-name="Trazado 727389" d="M183.911,358.212a152.959,152.959,0,0,1-6.214-24.55,70.068,70.068,0,0,1-26.351-4.4" transform="translate(17.435 37.931)" fill="none" stroke="#fff" stroke-linecap="round" stroke-linejoin="round" stroke-width="1"/>
        <path id="Trazado_727390" data-name="Trazado 727390" d="M224.867,283.395a304.263,304.263,0,0,1,12.418,111.46c-1.452,19.33-4.755,38.71-2.728,57.987,1.325,12.588,4.9,24.824,7.049,37.3s2.814,25.621-1.546,37.5" transform="translate(25.904 32.647)" fill="none" stroke="#fff" stroke-linecap="round" stroke-linejoin="round" stroke-width="1"/>
        <path id="Trazado_727391" data-name="Trazado 727391" d="M115.277,321.565a935.422,935.422,0,0,0-13.123-103.634c-6.654-25.159-4.91-51.163-1.277-76.71,34.926-14.751,73.289-23.037,111.047-15.885,3.488.369,6.683,2.194,6.748,5.947,2.064,22.21,9.617,43.01,13.94,64.738,7.111,35.367,9.652,71.429,12.178,107.355" transform="translate(11.25 14.138)" fill="#aad447"/>
        <path id="Trazado_727392" data-name="Trazado 727392" d="M105.017,221.769c7.393,10.06,18.085,17.276,29.365,22.625s23.271,9.009,35,13.278c2.448.89,4.994,1.881,6.7,3.852,1.782,2.064,2.363,4.88,2.811,7.57A160.665,160.665,0,0,1,181,300.469q-33.2,6.027-66.706,10.1" transform="translate(12.098 25.548)" fill="#7cac35"/>
        <path id="Trazado_727393" data-name="Trazado 727393" d="M100.558,199.347A206.817,206.817,0,0,1,98.2,156.375" transform="translate(11.283 18.014)" fill="none" stroke="#111414" stroke-linecap="round" stroke-linejoin="round" stroke-width="1"/>
        <path id="Trazado_727394" data-name="Trazado 727394" d="M123.261,110.591c4.12,9.993,8.172,19.944,9.725,30.716a6.628,6.628,0,0,0,1.3,3.7,7.839,7.839,0,0,0,2.91,1.587,17.041,17.041,0,0,1,8.234,7.2,86.287,86.287,0,0,1,7.667-12.264,37.428,37.428,0,0,0,4.256-6.369,9.985,9.985,0,0,0,.013-8.863q-2.206-4.977-4.517-9.906-4.686-9.993-9.8-19.778l.541.6Z" transform="translate(14.2 11.131)" fill="#df9271"/>
        <path id="Trazado_727395" data-name="Trazado 727395" d="M125.746,118.022a89.424,89.424,0,0,1,5.157,13.695c9.167-6.669,20.571-15.321,17.758-27.514Z" transform="translate(14.486 12.004)" fill="#d17e54"/>
        <path id="Trazado_727396" data-name="Trazado 727396" d="M127.036,153.622c5.518-3.607,12.625-5.459,18.928-2.9-1.137-10.543-14.423-18.36-16.131-25.727-2.792,4.363-5.651,8.269-6.058,13.536-.055,3.423-2.361,16.3,3.261,15.092" transform="translate(14.2 14.399)" fill="#7cac35"/>
        <path id="Trazado_727397" data-name="Trazado 727397" d="M151.789,130.159c-1.549,7.969-7.878,14.408-9.34,22.471,5.887-5.679,20.126-10.387,27.269-5-.051-12.032-6.792-24.72-17.568-30.492a22.474,22.474,0,0,1-.361,13.018" transform="translate(16.41 13.495)" fill="#7cac35"/>
        <path id="Trazado_727398" data-name="Trazado 727398" d="M102.112,61.866A44.869,44.869,0,0,0,88.5,73.459c-2.182,2.788-4.082,5.979-4.393,9.506a12.537,12.537,0,0,0,4.723,10.684,14.2,14.2,0,0,0,11.492,2.636,16.393,16.393,0,0,0,9.913-6.561" transform="translate(9.684 7.127)" fill="#111414"/>
        <path id="Trazado_727399" data-name="Trazado 727399" d="M96.837,111.625c3.485,7.225,9.244,13.608,16.719,16.518,8.523,3.32,18.416,1.754,26.455-2.612a40.5,40.5,0,0,0,20.278-27.256,37.506,37.506,0,0,0-9.2-32.506A34.944,34.944,0,0,0,119.08,55.618c-24.554,5.258-32.163,35.437-22.243,56.006" transform="translate(10.669 6.326)" fill="#df9271"/>
        <path id="Trazado_727400" data-name="Trazado 727400" d="M165.919,67.782c9.636,4.918,10.688,19.9,5.313,28.352-10.641,13.641-30.306-2.264-25.326-16.654a21.322,21.322,0,0,1-18.087.957,16,16,0,0,0,9.6-5.442c-14.772,6.265-33.3,3.343-47.7-3.041C64,61.549,88.484,33.267,99.573,55.668c10.715-20.418,53.725-23.816,57.736,2.848,4.531-12.24,18.941-4.668,9.6,1.846,8.334-1.978,7.336,10.356-.987,7.421" transform="translate(9.028 4.543)" fill="#111414"/>
        <path id="Trazado_727401" data-name="Trazado 727401" d="M97.805,53.458a53.042,53.042,0,0,0,30.316,14.524,33.156,33.156,0,0,0,15.34-1.3c4.867-1.774,9.232-5.314,11.242-10.087" transform="translate(11.267 6.158)" fill="none" stroke="#333" stroke-linecap="round" stroke-linejoin="round" stroke-width="1"/>
        <path id="Trazado_727402" data-name="Trazado 727402" d="M113.776,41.691A22.442,22.442,0,0,0,149.3,50.442" transform="translate(13.107 4.803)" fill="none" stroke="#333" stroke-linecap="round" stroke-linejoin="round" stroke-width="1"/>
        <path id="Trazado_727403" data-name="Trazado 727403" d="M156.392,64.058A16.393,16.393,0,0,0,162,91.916" transform="translate(17.376 7.379)" fill="none" stroke="#333" stroke-linecap="round" stroke-linejoin="round" stroke-width="1"/>
        <path id="Trazado_727404" data-name="Trazado 727404" d="M125.421,101.108a6.147,6.147,0,0,0,1.135,5.033,4.615,4.615,0,0,0,4.773,1.567,5.479,5.479,0,0,0,2.887-2.423,7.018,7.018,0,0,0,1.082-4.706,5.222,5.222,0,0,0-2.716-3.89,5.632,5.632,0,0,0-4.7.132c-1.361.767-2.18,2.847-2.461,4.288" transform="translate(14.434 11.087)" fill="#d17e54"/>
        <path id="Trazado_727405" data-name="Trazado 727405" d="M100.306,100.486A3.344,3.344,0,0,0,98.42,102.9a6.4,6.4,0,0,0,.221,3.142,6.874,6.874,0,0,0,1.248,2.524,3.725,3.725,0,0,0,2.4,1.372,3.48,3.48,0,0,0,3.313-1.911,4.706,4.706,0,0,0,.041-3.934c-.737-1.744-3.175-4.471-5.34-3.6" transform="translate(11.325 11.557)" fill="#d17e54"/>
        <path id="Trazado_727406" data-name="Trazado 727406" d="M99.775,87.551c-.1,1.591.762,2.94,1.921,3.012s2.18-1.161,2.279-2.752-.762-2.94-1.923-3.011-2.18,1.16-2.278,2.751" transform="translate(11.493 9.769)" fill="#111414"/>
        <path id="Trazado_727407" data-name="Trazado 727407" d="M119.371,89.992c-.1,1.591.762,2.94,1.921,3.012s2.18-1.161,2.279-2.752-.762-2.94-1.921-3.011-2.18,1.16-2.279,2.751" transform="translate(13.751 10.05)" fill="#111414"/>
        <path id="Trazado_727408" data-name="Trazado 727408" d="M123.8,104.077a8.406,8.406,0,0,1-15.457,3.371" transform="translate(12.481 11.99)" fill="none" stroke="#111414" stroke-linecap="round" stroke-linejoin="round" stroke-width="1"/>
        <path id="Trazado_727409" data-name="Trazado 727409" d="M110.979,84.7a42.046,42.046,0,0,1,.913,5.356,11.369,11.369,0,0,1-.109,3.936,4.666,4.666,0,0,1-2.269,3.094,10.265,10.265,0,0,1-1.807.585,3.7,3.7,0,0,0-1.667.869,1.6,1.6,0,0,0-.391,1.742,2.226,2.226,0,0,0,1.553.988,11.682,11.682,0,0,0,7.9-.79" transform="translate(12.157 9.757)" fill="none" stroke="#111414" stroke-linecap="round" stroke-linejoin="round" stroke-width="1"/>
        <path id="Trazado_727410" data-name="Trazado 727410" d="M107.266,81.113A7.028,7.028,0,0,0,96.28,83.022" transform="translate(11.091 9.131)" fill="none" stroke="#111414" stroke-linecap="round" stroke-linejoin="round" stroke-width="1"/>
        <path id="Trazado_727411" data-name="Trazado 727411" d="M117.681,81.972a9.488,9.488,0,0,1,13.47,2.491" transform="translate(13.557 9.238)" fill="none" stroke="#111414" stroke-linecap="round" stroke-linejoin="round" stroke-width="1"/>
        <path id="Trazado_727412" data-name="Trazado 727412" d="M151.1,88.064c5.466-9.222,21.4-3,17.833,7.572-2.992,7.878-16.215,11.425-21.034,3.445Z" transform="translate(17.038 9.628)" fill="#df9271"/>
        <path id="Trazado_727413" data-name="Trazado 727413" d="M158.446,88.325a8.674,8.674,0,0,0-.83,8.409" transform="translate(18.074 10.175)" fill="none" stroke="#111414" stroke-linecap="round" stroke-linejoin="round" stroke-width="1"/>
        <path id="Trazado_727414" data-name="Trazado 727414" d="M156.995,92.312a4.968,4.968,0,0,0,5.335-1.333" transform="translate(18.086 10.481)" fill="none" stroke="#111414" stroke-linecap="round" stroke-linejoin="round" stroke-width="1"/>
        <path id="Trazado_727415" data-name="Trazado 727415" d="M185.456,124.369c48.88-3.312,118.222,34.693,104.983,91.2-1.882,9.217-9.495,16.145-19.171,14.7-32.994-5.719-6.24-28.082-23.779-42.345-14.234-13.752-37.007-14.184-55.558-11.2" transform="translate(21.364 14.304)" fill="#aad447"/>
        <path id="Trazado_727416" data-name="Trazado 727416" d="M243.106,192.172c-1.7-6.138,1.575-12.91,6.744-16.631s11.829-4.812,18.193-4.548c5.809.242,11.955,1.742,15.875,6.035s4.851,10.524,5.038,16.349a72.027,72.027,0,0,1-1.093,15.693c-.689,3.646-1.8,7.363-4.27,10.129a11.712,11.712,0,0,1-8.374,3.93,10.327,10.327,0,0,1-8.295-3.919c-1.548-2.03-2.224-4.585-3.518-6.785-2.591-4.4-7.3-6.867-11.878-8.722a13.6,13.6,0,0,1-3.187-1.247c-.829-.66-1.162-1.959-1.647-2.881-1.278-2.427-2.847-4.734-3.588-7.4" transform="translate(27.953 19.694)" fill="#7cac35"/>
        <path id="Trazado_727417" data-name="Trazado 727417" d="M245.505,160.528a212.907,212.907,0,0,0-128.946,28.128c11.178,10.115,27.148,13.1,42.216,12.608a122.827,122.827,0,0,0,86.73-40.736" transform="translate(13.427 18.367)" fill="#487424"/>
        <path id="Trazado_727418" data-name="Trazado 727418" d="M237.481,166.916A154.9,154.9,0,0,0,125.865,190.9a152.287,152.287,0,0,0,48.13.693,153.69,153.69,0,0,0,63.486-24.676" transform="translate(14.5 18.981)" fill="#375b1a"/>
        <path id="Trazado_727419" data-name="Trazado 727419" d="M203.464,154.659c-6.451-.487-10.659-7.987-7.714-13.746-.124.242-4.3-5.2-4.608-5.814a18.562,18.562,0,0,1-1.882-7.452,21.3,21.3,0,0,1,4.774-14.181c1.04-1.278,4.581-3.394,4.353-5.088-.241-1.791-4.217-4.147-5.272-5.73a18.795,18.795,0,0,1,16.673-29.458,30.392,30.392,0,0,1,9.064-43.3,22.33,22.33,0,0,1,12.507-3.574,14.613,14.613,0,0,1,11.313,5.866c-2.137-7.143.733-15.318,6.425-20.135s13.786-6.358,21.058-4.714a32.718,32.718,0,0,1,18.254,12.147,24.354,24.354,0,0,1,5.027,10.506,13.975,13.975,0,0,1-2.526,11.125c10.559,2.44,18.508,13.229,17.713,24.037s-10.238,20.316-21.04,21.185c7.067,6.5,9.143,17.62,5.492,26.5s-12.519,15.208-22.043,16.447-19.412-2.381-26.393-8.975c.443,3.975.866,8.112-.484,11.876-3.632,10.128-20.22,7.752-22.215-2.308.717,8.119-5.583,13.407-13.4,12.765a4.987,4.987,0,0,1,.606,6.659" transform="translate(21.801 0.771)" fill="#333"/>
        <path id="Trazado_727420" data-name="Trazado 727420" d="M209.993,136.559l-8.029,4.629,11.674,23.752,10.53-6.071Z" transform="translate(23.266 15.732)" fill="#111414"/>
        <rect id="Rectángulo_340647" data-name="Rectángulo 340647" width="15.389" height="6.908" transform="translate(219.896 154.847) rotate(-29.963)" fill="#111414"/>
        <line id="Línea_227" data-name="Línea 227" y1="4.763" x2="8.261" transform="translate(226.311 154.359)" fill="none" stroke="#333" stroke-linecap="round" stroke-linejoin="round" stroke-width="1"/>
        <path id="Trazado_727421" data-name="Trazado 727421" d="M180.942,212.587l-18.1-33.147,22.375-.4-5.407-9.378,24.6.938-6.542-11.347,31.306-6.563,6.363,24.089Z" transform="translate(18.759 17.589)" fill="#111414"/>
        <line id="Línea_228" data-name="Línea 228" y1="2.467" x2="11.765" transform="translate(233.301 170.875)" fill="none" stroke="#333" stroke-linecap="round" stroke-linejoin="round" stroke-width="1"/>
        <path id="Trazado_727422" data-name="Trazado 727422" d="M173.99,182.061l8.965-.323,4.8,8.333-6.869,3.96" transform="translate(20.043 20.936)" fill="#333"/>
        <path id="Trazado_727423" data-name="Trazado 727423" d="M188.817,174.355l8.964-.323,4.8,8.333-6.869,3.96" transform="translate(21.752 20.048)" fill="#333"/>
        <path id="Trazado_727424" data-name="Trazado 727424" d="M204.705,164.247l8.965-.323,4.8,8.333-6.869,3.96" transform="translate(23.582 18.884)" fill="#333"/>
        <path id="Trazado_727425" data-name="Trazado 727425" d="M116.559,188.543l47.456,145.58a135.02,135.02,0,0,0,97.409-20.033q-7.959-76.837-15.919-153.675a140.538,140.538,0,0,1-45.191,25.733c-37.244,12.753-69.857,6.117-83.755,2.394" transform="translate(13.428 18.48)" fill="#487424"/>
        <path id="Trazado_727426" data-name="Trazado 727426" d="M188.334,278.737l7.27-16.457,12.5,11.211,4.542-5.345,3.284,14.182-13.706,1.187,1.934-4.789-6.318-5.683-3.6,8.32Z" transform="translate(21.696 30.215)" fill="#fff"/>
        <path id="Trazado_727427" data-name="Trazado 727427" d="M211.881,285.37l4.848,5.5-8.895,2.484-.659-6.251-6.486,8.789,8.6,6.144-.488-4.742,16.15-4.388-7.664-10.117Z" transform="translate(23.119 32.577)" fill="#fff"/>
        <path id="Trazado_727428" data-name="Trazado 727428" d="M181.783,290.043l9.429-9.245,7.726,7.559-5.262.484-2.433,7.655,7.863-1.686.473,5.467-15.537,2.616,3.5-13.473Z" transform="translate(20.941 32.348)" fill="#fff"/>
        <path id="Trazado_727429" data-name="Trazado 727429" d="M118.575,194.719a145.545,145.545,0,0,0,54.722,3.26,147.934,147.934,0,0,0,72.7-31.313" transform="translate(13.66 19.2)" fill="none" stroke="#111414" stroke-linecap="round" stroke-linejoin="round" stroke-width="1"/>
        <path id="Trazado_727430" data-name="Trazado 727430" d="M278.812,213.351a30.271,30.271,0,0,0-6.05-16.686A22.78,22.78,0,0,0,258.052,188c-2.56,2.782-3.539,6.4-5.193,9.983-12.244,22.711-41.2,31.184-64.041,39.041.173,7.513,1.959,14.711,1.385,22.3,31.635-.176,63.513-8.429,86.673-30.562a44.254,44.254,0,0,0,1.937-15.415" transform="translate(21.752 21.658)" fill="#df9271"/>
        <path id="Trazado_727431" data-name="Trazado 727431" d="M253.357,186.469a12.152,12.152,0,0,0-2.458,2.058,22.78,22.78,0,0,1,14.712,8.665,30.271,30.271,0,0,1,6.05,16.686,44.254,44.254,0,0,1-1.937,15.415c.971-.929,1.934-1.874,2.875-2.852,17.192-18.246,10.994-53.565-19.242-39.972" transform="translate(28.903 21.131)" fill="#d17e54"/>
        <path id="Trazado_727432" data-name="Trazado 727432" d="M203.608,236.881c-1.975-9.994-12.111-15.914-21.373-11.1-2.937.845-5.782-.444-8.643-.744-8.449,2.375,3.786,8.044,7.166,8.666-6.53-.676-12.821-2.627-19.365-2.992-3.333-.123-4.8,3.5-1.514,4.945a13.457,13.457,0,0,1,3.1,1.632c-8.721-5.284-12.966,4.992-2.213,5.661-1.968-.494-5.406-.022-5.293,2.643,1.6,3.776,7.167,3.886,10.693,4.915-2.254-1-6.7-.231-5.557,2.955,14.185,5.694,33.22,8.13,47.007-.213Z" transform="translate(17.783 25.814)" fill="#df9271"/>
        <path id="Trazado_727433" data-name="Trazado 727433" d="M177.031,232.068a27.383,27.383,0,0,0,5.974.639" transform="translate(20.394 26.734)" fill="none" stroke="#111414" stroke-linecap="round" stroke-linejoin="round" stroke-width="1"/>
        <path id="Trazado_727434" data-name="Trazado 727434" d="M160.56,234.933a67.217,67.217,0,0,0,21.073,4.166" transform="translate(18.496 27.064)" fill="none" stroke="#111414" stroke-linecap="round" stroke-linejoin="round" stroke-width="1"/>
        <path id="Trazado_727435" data-name="Trazado 727435" d="M158.557,240.737a186.467,186.467,0,0,0,20.467,3.559" transform="translate(18.266 27.733)" fill="none" stroke="#111414" stroke-linecap="round" stroke-linejoin="round" stroke-width="1"/>
        <path id="Trazado_727436" data-name="Trazado 727436" d="M162.287,247.005a62.245,62.245,0,0,0,16.938,2.727" transform="translate(18.695 28.455)" fill="none" stroke="#111414" stroke-linecap="round" stroke-linejoin="round" stroke-width="1"/>
        <path id="Trazado_727437" data-name="Trazado 727437" d="M44.553,219.341a29.217,29.217,0,0,1-11.081-14.66,16.6,16.6,0,0,0-2.242,3.985c-7.484,23.366,23.566,33.205,39.924,21.119,3.021-2.007,5.924-4.169,8.755-6.425a48.219,48.219,0,0,1-15.21,2.252,36.678,36.678,0,0,1-20.147-6.27" transform="translate(3.466 23.579)" fill="#d17e54"/>
        <path id="Trazado_727438" data-name="Trazado 727438" d="M118.786,162.325c-18.28,8.142-72.584,29.45-85.663,47.237A29.215,29.215,0,0,0,44.2,224.222a36.681,36.681,0,0,0,20.147,6.27,48.208,48.208,0,0,0,15.209-2.253c14.759-11.763,27.3-26.419,41.361-38.982l5.293-5.086a62.585,62.585,0,0,1-7.427-21.846" transform="translate(3.816 18.7)" fill="#df9271"/>
        <path id="Trazado_727439" data-name="Trazado 727439" d="M113.177,156.089c2.924-2.385,6.813-4.3,10.635-4.089,1.4,1.945-.217,5.443,1.676,7.593,2.324,2.931-9.106,2.827-11.016,4.659-10.791,4.993-6.047-4.03-1.295-8.163" transform="translate(12.433 17.509)" fill="#df9271"/>
        <path id="Trazado_727440" data-name="Trazado 727440" d="M112.491,146.692l32.552,44.676L175.2,168.282l-9.012-4.732,3.314-2.771L156.046,152.9l2.788-3.289L145.9,143.174l5.021-4.388-16.642-4.311Z" transform="translate(12.959 15.492)" fill="#111414"/>
        <path id="Trazado_727441" data-name="Trazado 727441" d="M123.261,146.015l9.349-4.911,5.98,2.206-12.424,7.6" transform="translate(14.2 16.255)" fill="#333"/>
        <path id="Trazado_727442" data-name="Trazado 727442" d="M132.084,152.425l9.349-4.911,5.98,2.206-12.424,7.6" transform="translate(15.216 16.994)" fill="#333"/>
        <path id="Trazado_727443" data-name="Trazado 727443" d="M140,161.887l9.349-4.911,5.98,2.206-12.424,7.6" transform="translate(16.128 18.084)" fill="#333"/>
        <path id="Trazado_727444" data-name="Trazado 727444" d="M142.716,171.635l12.819-6.736,5.98,2.207-15.973,9.772" transform="translate(16.441 18.996)" fill="#333"/>
        <path id="Trazado_727445" data-name="Trazado 727445" d="M108.747,164.68a.4.4,0,0,1-.346.18c10.129-3.129,20.451-6.656,28.638-13.763,4.765-5.515,9.126-1.272,5.744,4.539,7.667-6.756,9.326,1.6,3.929,6.63,9.089-5.495,4.837,5.924.077,8.542,7.925-1.2-.1,6.652-2.976,7.928-8.266,3.347-20.021,11.034-28.845,7.194Z" transform="translate(12.488 17.111)" fill="#df9271"/>
        <path id="Trazado_727446" data-name="Trazado 727446" d="M122.077,158.168a18.789,18.789,0,0,0-5.576,1.619" transform="translate(13.421 18.221)" fill="none" stroke="#111414" stroke-linecap="round" stroke-linejoin="round" stroke-width="1"/>
        <path id="Trazado_727447" data-name="Trazado 727447" d="M140.549,155.137a39.427,39.427,0,0,1-15.408,10.931" transform="translate(14.416 17.872)" fill="none" stroke="#111414" stroke-linecap="round" stroke-linejoin="round" stroke-width="1"/>
        <path id="Trazado_727448" data-name="Trazado 727448" d="M145.322,160.148a42.877,42.877,0,0,1-15.883,10.6" transform="translate(14.911 18.449)" fill="none" stroke="#111414" stroke-linecap="round" stroke-linejoin="round" stroke-width="1"/>
        <path id="Trazado_727449" data-name="Trazado 727449" d="M145,168.4a41.287,41.287,0,0,1-15.179,7.548" transform="translate(14.956 19.4)" fill="none" stroke="#111414" stroke-linecap="round" stroke-linejoin="round" stroke-width="1"/>
      </g>
    </g>
  </g>
</svg>
