<svg xmlns="http://www.w3.org/2000/svg" xmlns:xlink="http://www.w3.org/1999/xlink" width="362.491" height="355.095" viewBox="0 0 362.491 355.095">
  <defs>
    <clipPath id="clip-path">
      <rect id="Rectángulo_340652" data-name="Rectángulo 340652" width="327.759" height="355.094" transform="translate(0 0)" fill="none"/>
    </clipPath>
  </defs>
  <g id="Grupo_960375" data-name="Grupo 960375" transform="translate(4450.731 4006)">
    <path id="Trazado_727489" data-name="Trazado 727489" d="M171.26,381.433S81.854,367.977,59.1,291.146,28.144,167.315,65.829,136.307,104.537,109,135.941,82.079,208.884,19.612,280.692,29.93s99.174,47.105,114.876,86.136.9,79.578-13.907,105.063-22.879,49.712-25.572,78.423S312.132,391.534,171.26,381.433Z" transform="translate(-4490.528 -4033.42)" fill="#a4ddcd"/>
    <g id="Grupo_960370" data-name="Grupo 960370" transform="translate(-4433 -4006)">
      <g id="Grupo_960369" data-name="Grupo 960369" transform="translate(0 0)" clip-path="url(#clip-path)">
        <path id="Trazado_727451" data-name="Trazado 727451" d="M375.091,545.394V714.173c0,9.4,7.357,17.026,16.431,17.026h66.826c9.074,0,16.428-7.623,16.428-17.026V542.351A37.815,37.815,0,0,0,453.4,507.985a10.056,10.056,0,0,1-5.624-9.148v-6.8H402.092v7.58a10.779,10.779,0,0,1-5.663,9.521,40.953,40.953,0,0,0-21.338,36.255" transform="translate(-235.395 -376.105)" fill="#aec3ff"/>
        <path id="Trazado_727452" data-name="Trazado 727452" d="M405.583,748.613V897.129c0,8.272,6.289,14.98,14.046,14.98h57.141c7.759,0,14.048-6.708,14.048-14.98V745.935c0-1.128-.052-2.246-.158-3.346a49.5,49.5,0,0,0-24.688-.619c-13.2,3.235-24.07-3.106-39.6-3.106-10.816,0-15.606,1.674-19.848,1.291a38.168,38.168,0,0,0-.942,8.458" transform="translate(-258.621 -564.775)" fill="#83a9ff"/>
        <path id="Trazado_727453" data-name="Trazado 727453" d="M480.644,458.682h49.864V449.84a4.235,4.235,0,0,0-4.235-4.235h-41.6a4.027,4.027,0,0,0-4.027,4.027Z" transform="translate(-315.998 -340.612)" fill="#f99746"/>
        <path id="Trazado_727454" data-name="Trazado 727454" d="M676.265,593.2s7.453-12,13.969-10.351,2.24,5.849-1.722,10.351-6.591,5.489-9.7,3.794-3.6-2.239-2.544-3.794" transform="translate(-525.061 -445.397)" fill="#e3eeff"/>
        <path id="Trazado_727455" data-name="Trazado 727455" d="M1123.065,404.938c-.023-.618-.5-7.275-10.642-7.623,0,0,4.987.594,5.849,2.787,0,0-3.4-2.709-6.161-1.838s-4.389,5.716-4.405,7.309,1.52,6.73,3.275,7.167a5.356,5.356,0,0,0,2.125,0,23.955,23.955,0,0,0-1.362,2.431c-4.047,8.306.127,16.424,3.552,15.527,2.2-.575,2.819,3.174,2.819,3.174l21.344-17.28s-7.84-16.222-16.394-11.657" transform="translate(-1072.696 -303.7)" fill="#2c3a64"/>
        <path id="Trazado_727456" data-name="Trazado 727456" d="M1017,684.656c-6.245-.617-13.656-1.716-16.607-3.534-4.495-2.745-12.277-14.271-17.08-22.677-.137-.206-.448-4.463-.551-4.669-2.5-4.46-3.641-1.715-3.779-5.249a17.733,17.733,0,0,1,.583-5.627,14.345,14.345,0,0,1,2.539-5.078,2.562,2.562,0,0,1,.48-.584,11.852,11.852,0,0,1,3.26-2.779c.824-.344,1.716.069,2.642,1.063v.034a15.731,15.731,0,0,1,2.368,3.5c.034.034.069.069.069.1.172.309.343.652.549,1.029a.867.867,0,0,1,.137.24q.566,1.184,1.132,2.47c4.22,9.195,7.4,24.4,11.137,28.551,1.613,1.784,10.307,4.01,16.174,6.617,4.22,1.853,1.1,7.034-3.053,6.588" transform="translate(-924.961 -484.879)" fill="#ffb27d"/>
        <path id="Trazado_727457" data-name="Trazado 727457" d="M1183.023,1011.2l-4.534,1.688s-19.692-27.312-22.116-51.342a36.491,36.491,0,0,1,.647-12.285s-.193-1.1-.529-3.042c-.156-.907-.348-2-.567-3.25-.64-3.668-1.521-8.687-2.528-14.4-2.317-13.151-5.319-29.963-7.651-42.323l1.222-.392,13.218-4.264,2.732-8.676,9.842-2.591s2.2,4.3,4.164,24.619c.363,2.665.692,5.6.94,8.791a173.987,173.987,0,0,1-.937,35.589q-.677,5.3-1.729,10.923a48.741,48.741,0,0,0-.378,10.786c.992,19.644,8.2,50.172,8.2,50.172" transform="translate(-1125.222 -665.256)" fill="#aec3ff"/>
        <path id="Trazado_727458" data-name="Trazado 727458" d="M1199.762,900.636l-21.372,42.489c-.156-.907-.348-2-.566-3.25-.64-3.668-1.521-8.687-2.528-14.4-2.317-13.151-5.319-29.963-7.651-42.323l1.222-.392,13.218-4.264,2.732-8.676,13.463-3.544s1.483,26.259,1.483,34.363" transform="translate(-1147.121 -662.164)" fill="#94b0ed"/>
        <path id="Trazado_727459" data-name="Trazado 727459" d="M1250.018,859.739l-.495-4.243c-8.289,2.2-30.436-6.152-30.436-6.152s-8.03,7.058-6.976,23.978c.515,8.258,1.455,43.352,2.437,53.736.355,3.764.666,6.442.792,7.512a.02.02,0,0,1,0,.01,1.483,1.483,0,0,1-.241.92,48.782,48.782,0,0,0-3.624,7.62c-9.636,25.678,1.484,57.3,1.484,57.3l2.886-1.163s6.328-35.192,11.469-50.739a30.808,30.808,0,0,1,2.477-5.948c2.235-3.608,4.31-9.5,6.193-16.516,3.559-13.257,6.424-30.5,8.33-43.814.263.012,5.7-22.5,5.7-22.5" transform="translate(-1206.779 -649.224)" fill="#aec3ff"/>
        <path id="Trazado_727460" data-name="Trazado 727460" d="M1167.961,574.96a25.812,25.812,0,0,1-9.546,2.236c-14.251.781-17.486-11.711-18.074-20a11.951,11.951,0,0,1,4.89-.618c.386.021.778.049,1.164.082a4.2,4.2,0,0,0,3.668-1.6,29.872,29.872,0,0,0,4.788-10.946l.615.285,10.283,4.834s-1.092,3.346-1.9,6.548a33.607,33.607,0,0,0-.771,3.8,2.259,2.259,0,0,0,1.362,2.345h0a.028.028,0,0,0,0,.011,70.606,70.606,0,0,1,3.516,13.033" transform="translate(-1108.887 -415.906)" fill="#ffb27d"/>
        <path id="Trazado_727461" data-name="Trazado 727461" d="M1174.627,623.869c-.108.285-.226.563-.356.848-3.609,7.773-10.29,39.972-10.29,39.972-2.051,6.225-43.507-1.136-43.622-6.407-1.566-5.589,5.556-14.569,9.572-19.073a12.826,12.826,0,0,0,1.347-1.814,12.646,12.646,0,0,0,1.821-5.315c.789-7.472.488-14.475.555-18.733h0c.785-.581,1.544-1.118,2.251-1.629a20.051,20.051,0,0,0,2.739-2.273,4.145,4.145,0,0,0,1.314-2.587,13.757,13.757,0,0,0-.055-2.169c-.033-.344-.078-.688-.13-1.033a29.408,29.408,0,0,0-2.065-6.9c3.823-1.547,10.623-.625,10.623-.625s-.008.377-.011,1c-.022,2.484,0,8.861.8,10.068,1,1.5,19.211,8.088,20.173,6.048.947-2.006-1.647-11.4-1.744-11.759a.03.03,0,0,1,0-.011c6.1,2.4,8.28,4.4,8.28,4.4-3.676,2.384,1.647,10.449-1.2,17.989" transform="translate(-1111.987 -455.466)" fill="#f99746"/>
        <path id="Trazado_727462" data-name="Trazado 727462" d="M1160.019,550.161s-1.094,3.343-1.9,6.548c-6.01-1.677-7.835-7.995-8.385-11.382Z" transform="translate(-1103.157 -416.838)" fill="#ed985f"/>
        <path id="Trazado_727463" data-name="Trazado 727463" d="M1117.959,496.021s-14.38-3.328-12.169-12.251,1.843-15.362,11.117-13.615,10.208,5.593,10.2,8.751-5.345,17.751-9.143,17.115" transform="translate(-1059.832 -359.159)" fill="#ffb27d"/>
        <path id="Trazado_727464" data-name="Trazado 727464" d="M1125.376,468.564c-1.546-3.234-3.365-3.062-4.5-2.488a10.316,10.316,0,0,0-13.384-1.144,17.56,17.56,0,0,1-8.079,8.68s2.209,2.262,8.611,2.212a10.539,10.539,0,0,0,5.712-2.151,34.429,34.429,0,0,1-7.5,5.592c8.015-1.534,13.389-10.812,13.94-11.8a11.565,11.565,0,0,1,2.087,4.939c.149,2.449-.694,7.206.708,7.386,0,0,4.725-6.378,2.406-11.229" transform="translate(-1057.297 -353.883)" fill="#2c3a64"/>
        <path id="Trazado_727465" data-name="Trazado 727465" d="M1105.56,637.673c1.619,1.4,3.462,6.04,3.98,7.594,0,0-4.49-.173-6.3,3.281,0,0-.015-12.9,2.323-10.875" transform="translate(-1041.724 -487.261)" fill="#f99746"/>
        <path id="Trazado_727466" data-name="Trazado 727466" d="M1225.175,697.935c-8.769-.093-16.194-9.2-20.732-16.475a12.645,12.645,0,0,0,1.821-5.315c.789-7.472.488-14.475.555-18.733h0c.785-.581,1.543-1.118,2.25-1.629a20.083,20.083,0,0,0,2.739-2.273c7.181,12.137,25.255,44.551,13.366,44.425" transform="translate(-1185.152 -499.531)" fill="#ed7d2b"/>
        <path id="Trazado_727467" data-name="Trazado 727467" d="M1316.576,1458.789h-22.835a12.539,12.539,0,0,1,.645-6.121c1.143-2.533,2.933-3.685,2.5-6.75a8.223,8.223,0,0,0,7.117,2.723c.4.656,2.611,4.165,3.962,5.136,1.492,1.072,8.146.69,8.606,5.012" transform="translate(-1293.616 -1105.234)" fill="#2b478b"/>
        <path id="Trazado_727468" data-name="Trazado 727468" d="M1108.6,1462.112h-22.835s-.854-3.642.645-6.121c1.327-2.192.819-3.442-.164-5.256a8.876,8.876,0,0,0,3.846.724,8.045,8.045,0,0,0,3.4-1.194c.982,1.12,5.191,5.89,6.506,6.835,1.492,1.072,8.146.69,8.606,5.012" transform="translate(-1036.614 -1108.557)" fill="#2b478b"/>
        <path id="Trazado_727469" data-name="Trazado 727469" d="M1126.976,662.491l-.919,3.543s-11.4-2.391-13.908-2.94h-.034c-4.289-1.029-9.092-2.264-13.141-3.637a36.108,36.108,0,0,1-7-3.122,4.234,4.234,0,0,1-.48-.344c-4.014-2.916-8.783-11.493-12.489-20.689-.514-1.269-.995-2.539-1.475-3.774a93.825,93.825,0,0,1-3.911-13.038,36.835,36.835,0,0,1-.927-6.211,15.2,15.2,0,0,1-.034-1.75c.068-9.95,5.009-11.322,5.009-11.322.1-.034.206-.069.343-.1.858-.137,1.75.446,2.676,1.578a31.177,31.177,0,0,1,3.671,6.484c1.955,4.426,4.014,10.156,5.936,15.852,1.064,3.122,2.093,6.244,3.122,9.126.583,1.75,1.167,3.4,1.716,4.906a47.219,47.219,0,0,0,2.882,6.69,16.618,16.618,0,0,0,4.22,3.809c3.637,2.642,24.743,14.939,24.743,14.939" transform="translate(-1051.951 -457.931)" fill="#ffb27d"/>
        <path id="Trazado_727470" data-name="Trazado 727470" d="M1261.94,607.645c-6.605-1.821-12.728,2.963-12.728,2.963.083-9.934,5.028-11.294,5.028-11.294,1.99-.824,5.322,2.995,7.7,8.331" transform="translate(-1228.517 -458.019)" fill="#f99746"/>
        <path id="Trazado_727471" data-name="Trazado 727471" d="M1041.94,862.723s5.806,2.264,6.93,3.144a14.393,14.393,0,0,1,3.671,5.277s-.02.622-.6.621-1.879-2.224-2.831-1.869a19.479,19.479,0,0,0,1.922,3.69c.712.746,1.118,4.5.973,5.309s-5.035-3.068-7.083-4.831c-1.091-.94-1.059-3.219-1.4-5.794-.3-2.259-6.532-3.566-6.532-3.566Z" transform="translate(-969.117 -659.45)" fill="#ffb27d"/>
        <path id="Trazado_727472" data-name="Trazado 727472" d="M958.429,841.909s2.963,2.722,2.15,5.659-3.964,3.285-4.472,1.737.782-7.939,2.322-7.4" transform="translate(-858.211 -643.516)" fill="#ffb27d"/>
        <path id="Trazado_727473" data-name="Trazado 727473" d="M842.192,557.729c0-6.662-11.046-19.6-11.046-19.6s-11.046,12.934-11.046,19.6,4.945,12.063,11.046,12.063,11.046-5.4,11.046-12.063" transform="translate(-707.663 -411.339)" fill="#83a9ff"/>
        <path id="Trazado_727474" data-name="Trazado 727474" d="M841.077,620.936a4.571,4.571,0,0,0,.217-1.853c-.129-2.918-2.823-4.493-4.969-2.51a8.068,8.068,0,0,0-1.479,2.039c-.832,2.021-.477,3.845,1.374,4.606a3.8,3.8,0,0,0,4.857-2.282" transform="translate(-710.148 -470.621)" fill="#ccdcff"/>
        <rect id="Rectángulo_340650" data-name="Rectángulo 340650" width="49.549" height="8.109" transform="translate(201.87 274.701)" fill="#2b478b"/>
        <path id="Trazado_727475" data-name="Trazado 727475" d="M296.455,350.764h20.8V90.553a90.555,90.555,0,1,0-181.109,0v21.438h20.8V90.553a69.759,69.759,0,0,1,139.519,0Z" transform="translate(-21.569 0.002)" fill="#233862"/>
        <path id="Trazado_727476" data-name="Trazado 727476" d="M243.12,1153.807h12.454v-26.094H243.12a12.108,12.108,0,0,0-12.108,12.108v1.877a12.108,12.108,0,0,0,12.108,12.108" transform="translate(17.754 -862.004)" fill="#233862"/>
        <path id="Trazado_727477" data-name="Trazado 727477" d="M414.562,1162.2l44.66-1.875a5.713,5.713,0,0,0,5.473-5.708v-3.989a5.713,5.713,0,0,0-5.544-5.71l-44.66-1.319a5.712,5.712,0,0,0-5.881,5.71v7.184a5.712,5.712,0,0,0,5.952,5.707" transform="translate(-233.212 -874.145)" fill="#f99746"/>
        <path id="Trazado_727478" data-name="Trazado 727478" d="M103.243,1164.438h36.3v-91.1a8.851,8.851,0,0,0-8.852-8.851H111.38a8.137,8.137,0,0,0-8.137,8.137Z" transform="translate(163.892 -813.671)" fill="#2b478b"/>
        <path id="Trazado_727479" data-name="Trazado 727479" d="M0,1475.8H84.95v-1.2a6.255,6.255,0,0,0-6.255-6.255H6.255A6.255,6.255,0,0,0,0,1474.591Z" transform="translate(242.809 -1122.37)" fill="#163560"/>
        <path id="Trazado_727480" data-name="Trazado 727480" d="M804.379,454.739h21.476a3.313,3.313,0,0,0,3.3-3.3V448.91a3.313,3.313,0,0,0-3.3-3.3H804.379a3.313,3.313,0,0,0-3.3,3.3v2.526a3.313,3.313,0,0,0,3.3,3.3" transform="translate(-690.147 -340.613)" fill="#060633"/>
        <path id="Trazado_727481" data-name="Trazado 727481" d="M781.56,703.223H696.012l7.176,175.844,73.979-1.024Z" transform="translate(-617.794 -537.531)" fill="#ccdbfd"/>
        <path id="Trazado_727482" data-name="Trazado 727482" d="M702.649,894.709l3.3,105.4c.159,5.06,3.672,9.068,7.95,9.068h55.192c4.515,0,8.232-4.21,8.43-9.554l4.293-115.3c-6.727-1.642-20-2.849-35.827,6.343-13.424,7.795-31.02,6.484-43.336,4.047" transform="translate(-619.609 -675.087)" fill="#a6c6ff"/>
        <rect id="Rectángulo_340651" data-name="Rectángulo 340651" width="88.813" height="1.12" transform="translate(78.219 165.692)" fill="#83a9ff"/>
        <path id="Trazado_727483" data-name="Trazado 727483" d="M675.39,703.838l5.718,182.731a5.119,5.119,0,0,0,5.116,4.959h74.258l6.986-187.69H762.61l-1.235,33.511-.329,8.9-4.294,116.343c-.2,5.394-3.915,9.64-8.43,9.64H693.132c-4.278,0-7.792-4.042-7.95-9.148l-3.3-106.35-.765-24.652-.877-28.246Z" transform="translate(-598.844 -538.001)" fill="#2b478b"/>
        <path id="Trazado_727484" data-name="Trazado 727484" d="M966.949,733.353s.153-3.832,5.2-3.832c8.148,0,7.8,28,5.049,31.214s-8.211,1.458-9.181-.306c-3.746-6.809-1.071-27.076-1.071-27.076" transform="translate(-878.816 -557.633)" fill="#e3eeff"/>
        <path id="Trazado_727485" data-name="Trazado 727485" d="M927.368,1297.162c.223-1.51.648-4.448,3.368-5.1s5.715,2.591,7.262,7.9,9.449,8.939,6.988,13.6-10.284,3.183-12.42,1.415c-3.9-3.229-5.844-13.454-5.2-17.824" transform="translate(-836.174 -987.57)" fill="#e3eeff"/>
        <path id="Trazado_727486" data-name="Trazado 727486" d="M870.818,882.411s9.946-2.485,11.781-7.21-1.492-7.405-4.934-6.352-1.875,5.529-4.361,9.545Z" transform="translate(-760.544 -663.959)" fill="#a6c6ff"/>
      </g>
    </g>
  </g>
</svg>
