<svg xmlns="http://www.w3.org/2000/svg" xmlns:xlink="http://www.w3.org/1999/xlink" width="505" height="400" viewBox="0 0 505 400">
  <defs>
    <clipPath id="clip-path">
      <path id="Trazado_189400" data-name="Trazado 189400" d="M14.948,25.908H494.7c6.973,0,12.625,6.215,12.625,13.883V372.984c0,7.668-5.652,13.883-12.625,13.883H14.948c-6.973,0-12.625-6.215-12.625-13.883V39.791c0-7.668,5.652-13.883,12.625-13.883" transform="translate(-2.323 -25.908)" fill="#a6bbff"/>
    </clipPath>
    <clipPath id="clip-path-2">
      <rect id="Rectángulo_339138" data-name="Rectángulo 339138" width="292.034" height="365.355" fill="#12263f"/>
    </clipPath>
  </defs>
  <g id="Grupo_983876" data-name="Grupo 983876" transform="translate(-180 -9327)">
    <rect id="Rectángulo_340654" data-name="Rectángulo 340654" width="428" height="351" rx="20" transform="translate(219 9376)" fill="#39a900"/>
    <g id="Grupo_983523" data-name="Grupo 983523" transform="translate(178.422 9327)">
      <g id="Grupo_176387" data-name="Grupo 176387" transform="translate(1.578 0)">
        <path id="Trazado_189401" data-name="Trazado 189401" d="M14.948,25.908H494.7a12.625,12.625,0,0,1,12.625,12.625v303A12.625,12.625,0,0,1,494.7,354.158H14.948A12.625,12.625,0,0,1,2.323,341.533v-303A12.625,12.625,0,0,1,14.948,25.908" transform="translate(-2.323 6.801)" fill="#0e494d"/>
        <g id="Enmascarar_grupo_335" data-name="Enmascarar grupo 335" transform="translate(0.001)" clip-path="url(#clip-path)">
          <g id="Grupo_983873" data-name="Grupo 983873" transform="translate(169.234 34.374)">
            <g id="Grupo_983877" data-name="Grupo 983877" transform="translate(0 0)">
              <path id="Trazado_210472" data-name="Trazado 210472" d="M227.142,326.585h-220A7.143,7.143,0,0,1,0,319.442V7.143A7.143,7.143,0,0,1,7.143,0h220a7.143,7.143,0,0,1,7.143,7.143v312.3a7.143,7.143,0,0,1-7.143,7.143" fill="#0c2527"/>
              <path id="Trazado_210473" data-name="Trazado 210473" d="M159.9,22.578H59.119a2.768,2.768,0,0,1-2.759-2.76V10.306a2.768,2.768,0,0,1,2.759-2.76H159.9a2.768,2.768,0,0,1,2.76,2.76v9.511a2.768,2.768,0,0,1-2.76,2.76" transform="translate(7.215 0.966)" fill="#e2cfc7"/>
              <rect id="Rectángulo_339139" data-name="Rectángulo 339139" width="213.22" height="290.581" transform="translate(10.532 18.001)" fill="#fff"/>
              <rect id="Rectángulo_339140" data-name="Rectángulo 339140" width="173.466" height="23.91" transform="translate(30.051 36.836)" fill="#f7e6df"/>
              <rect id="Rectángulo_339141" data-name="Rectángulo 339141" width="58.609" height="66.99" transform="translate(30.299 71.402)" fill="#ffb74d"/>
              <rect id="Rectángulo_339142" data-name="Rectángulo 339142" width="17.619" height="30.824" transform="translate(50.411 107.567)" fill="#ffb9a9"/>
              <path id="Trazado_210476" data-name="Trazado 210476" d="M62.309,102.881c-7.458,1.448-13.642.725-17.619-3.761V95.359H62.309Z" transform="translate(5.721 12.208)" fill="#f28e81"/>
              <path id="Trazado_210477" data-name="Trazado 210477" d="M29.575,125.03H82.682L83.788,112.8c.3-3.637-1.8-5.643-5.57-6.412L64.53,104.366c-4.45,3.152-12.919,3.3-17.9,0l-12.59,2.024c-3.769.768-5.871,2.775-5.57,6.412Z" transform="translate(3.641 13.361)" fill="#fff"/>
              <path id="Trazado_210478" data-name="Trazado 210478" d="M26.861,124.814h9.552l-1.619-18.761c-3.371.741-6,1.757-7.933,3.458Z" transform="translate(3.439 13.577)" fill="#fff"/>
              <path id="Trazado_210479" data-name="Trazado 210479" d="M79.861,109.325a15.527,15.527,0,0,0-7.742-3.271L70.5,124.814h9.36Z" transform="translate(9.026 13.578)" fill="#fff"/>
              <path id="Trazado_210480" data-name="Trazado 210480" d="M50.438,124.767h5.136L55,110.952l2.476-2.781-2.142-1.746-2.326.093-2.327-.093-2.141,1.746,2.475,2.781Z" transform="translate(6.214 13.625)" fill="#ea5770"/>
              <path id="Trazado_210481" data-name="Trazado 210481" d="M45.027,100.769l-2.971,4.512,6.829,6.114,3.094-4.246Z" transform="translate(5.384 12.901)" fill="#fff"/>
              <path id="Trazado_210482" data-name="Trazado 210482" d="M61.037,100.769l2.971,4.512-6.829,6.114-3.094-4.246Z" transform="translate(6.924 12.901)" fill="#fff"/>
              <path id="Trazado_210483" data-name="Trazado 210483" d="M48.983,111.546l-7.176-6.426.564-.629,6.48,5.8.828-1.136.684.5Z" transform="translate(5.352 13.377)" fill="#edcbc3"/>
              <path id="Trazado_210484" data-name="Trazado 210484" d="M56.932,111.542l-1.461-2,.684-.5.916,1.255,6.635-5.808.557.636Z" transform="translate(7.102 13.377)" fill="#edcbc3"/>
              <path id="Trazado_210485" data-name="Trazado 210485" d="M43.388,87.194s-1.536-3.842-4-2.089.009,7.831,3.337,8.425.66-6.336.66-6.336" transform="translate(4.915 10.837)" fill="#ffb9a9"/>
              <path id="Trazado_210486" data-name="Trazado 210486" d="M62.293,87.194s1.536-3.842,4-2.089-.009,7.831-3.337,8.425-.66-6.336-.66-6.336" transform="translate(7.846 10.837)" fill="#ffb9a9"/>
              <path id="Trazado_210487" data-name="Trazado 210487" d="M40.192,90.27c-.644-.942-1.285-2.8-.617-3.81a1.686,1.686,0,0,1,1.931-.566l-.169.828c-.537-.111-.893-.038-1.057.208-.373.563.023,2,.609,2.864Z" transform="translate(5.03 10.988)" fill="#e07c68"/>
              <path id="Trazado_210488" data-name="Trazado 210488" d="M65.28,90.27l-.7-.477c.588-.862.983-2.3.609-2.864-.164-.246-.519-.318-1.057-.208l-.169-.828a1.689,1.689,0,0,1,1.931.566c.668,1.006.027,2.869-.616,3.81" transform="translate(8.189 10.988)" fill="#e07c68"/>
              <path id="Trazado_210489" data-name="Trazado 210489" d="M54.384,105.012H53.368A11.652,11.652,0,0,1,41.75,93.395v-10.7A11.652,11.652,0,0,1,53.368,71.077h1.016A11.652,11.652,0,0,1,66,82.695v10.7a11.652,11.652,0,0,1-11.618,11.618" transform="translate(5.345 9.1)" fill="#ffb9a9"/>
              <path id="Trazado_210490" data-name="Trazado 210490" d="M65.937,92.937c-.191-2.423-.444-5.734,1.666-6.12l.6-4.089c.452-1.86-.262-3.059-1.01-3.372,2.653-2.666,2.091-6.73-.476-11.666-8.847,1.679-17.827,3.348-21.843,5.358-2.721,1.605-3.409,3.715-3.831,6.308-1.284.231-1.386,2.108-1.271,2.985l.5,4.476c2.444-.161,2.547,2.562,2.4,6.12,1.638,0,1.366-5.058,1.366-5.058l-.01-7.508h19.9l.292,7.532s-.1,5.034,1.708,5.034" transform="translate(5.088 8.666)" fill="#592b5b"/>
              <path id="Trazado_210491" data-name="Trazado 210491" d="M48.493,87.87a.792.792,0,1,1-.793-.793.793.793,0,0,1,.793.793" transform="translate(6.005 11.148)" fill="#592b5b"/>
              <path id="Trazado_210492" data-name="Trazado 210492" d="M58.621,87.87a.792.792,0,1,1-.793-.793.793.793,0,0,1,.793.793" transform="translate(7.302 11.148)" fill="#592b5b"/>
              <path id="Trazado_210493" data-name="Trazado 210493" d="M49.689,85.762c0,.413-3.706.413-3.706,0s.829-.747,1.852-.747,1.853.334,1.853.747" transform="translate(5.887 10.884)" fill="#592b5b"/>
              <path id="Trazado_210494" data-name="Trazado 210494" d="M59.774,85.759c0,.409-3.678.409-3.678,0s.823-.742,1.839-.742,1.84.333,1.84.742" transform="translate(7.182 10.884)" fill="#592b5b"/>
              <path id="Trazado_210495" data-name="Trazado 210495" d="M52.6,92.18a1.453,1.453,0,0,1-.931-.787.465.465,0,0,0-.646.095l-.642-.552a1.33,1.33,0,0,1,1.889-.152l.125.169c.047.114.2.363.373.4Z" transform="translate(6.451 11.581)" fill="#ea8c73"/>
              <path id="Trazado_210496" data-name="Trazado 210496" d="M53.03,92.18l-.169-.828c.17-.036.326-.285.375-.4l.124-.167a1.33,1.33,0,0,1,1.889.152l-.642.552a.466.466,0,0,0-.646-.095,1.45,1.45,0,0,1-.931.787" transform="translate(6.767 11.581)" fill="#ea8c73"/>
              <rect id="Rectángulo_339143" data-name="Rectángulo 339143" width="0.846" height="1.413" transform="translate(59.004 109.184)" fill="#ea8c73"/>
              <path id="Trazado_210497" data-name="Trazado 210497" d="M50.287,92.932a2.712,2.712,0,0,0,5.4,0Z" transform="translate(6.438 11.898)" fill="#fff"/>
              <path id="Trazado_210498" data-name="Trazado 210498" d="M60.931,82.36a5.559,5.559,0,0,0-5.338,4.077,3.049,3.049,0,0,0-3.011-.019,5.488,5.488,0,1,0,.235,1.509,5.5,5.5,0,0,0-.062-.613,2.235,2.235,0,0,1,2.67.014,5.552,5.552,0,1,0,5.506-4.968M47.25,92.649a4.721,4.721,0,1,1,4.721-4.722,4.727,4.727,0,0,1-4.721,4.722m13.681,0a4.721,4.721,0,1,1,4.722-4.722,4.726,4.726,0,0,1-4.722,4.722" transform="translate(5.336 10.544)" fill="#fff"/>
              <path id="Trazado_210499" data-name="Trazado 210499" d="M85.94,130.759H26.486V62.924H85.94Zm-58.608-.846H85.094V63.77H27.332Z" transform="translate(3.391 8.056)" fill="#f7e6df"/>
              <path id="Trazado_210500" data-name="Trazado 210500" d="M189.084,69.441h-90.4a3.086,3.086,0,0,1,0-6.173h90.4a3.086,3.086,0,0,1,0,6.173m-90.4-5.327a2.24,2.24,0,0,0,0,4.481h90.4a2.24,2.24,0,0,0,0-4.481Z" transform="translate(12.239 8.1)" fill="#8b5991"/>
              <path id="Trazado_210501" data-name="Trazado 210501" d="M139.227,79.5H98.683a3.086,3.086,0,0,1,0-6.173h40.543a3.086,3.086,0,1,1,0,6.173M98.683,74.169a2.24,2.24,0,0,0,0,4.481h40.543a2.24,2.24,0,1,0,0-4.481Z" transform="translate(12.239 9.387)" fill="#8b5991"/>
              <path id="Trazado_210502" data-name="Trazado 210502" d="M43.963,148.2H28.711a2.124,2.124,0,0,1-2.121-2.121v-1.931a2.124,2.124,0,0,1,2.121-2.121H43.963a2.123,2.123,0,0,1,2.121,2.121v1.931a2.123,2.123,0,0,1-2.121,2.121M28.711,142.87a1.276,1.276,0,0,0-1.275,1.275v1.931a1.276,1.276,0,0,0,1.275,1.275H43.963a1.276,1.276,0,0,0,1.275-1.275v-1.931a1.275,1.275,0,0,0-1.275-1.275Z" transform="translate(3.404 18.183)" fill="#ea5770"/>
              <path id="Trazado_210503" data-name="Trazado 210503" d="M43.963,161.469H28.711a2.124,2.124,0,0,1-2.121-2.121v-1.931a2.124,2.124,0,0,1,2.121-2.121H43.963a2.123,2.123,0,0,1,2.121,2.121v1.931a2.123,2.123,0,0,1-2.121,2.121m-15.252-5.327a1.276,1.276,0,0,0-1.275,1.275v1.931a1.276,1.276,0,0,0,1.275,1.275H43.963a1.276,1.276,0,0,0,1.275-1.275v-1.931a1.275,1.275,0,0,0-1.275-1.275Z" transform="translate(3.404 19.882)" fill="#ea5770"/>
              <path id="Trazado_210504" data-name="Trazado 210504" d="M43.963,174.742H28.711a2.124,2.124,0,0,1-2.121-2.121v-1.93a2.124,2.124,0,0,1,2.121-2.122H43.963a2.124,2.124,0,0,1,2.121,2.122v1.93a2.123,2.123,0,0,1-2.121,2.121m-15.252-5.327a1.277,1.277,0,0,0-1.275,1.276v1.93a1.276,1.276,0,0,0,1.275,1.275H43.963a1.276,1.276,0,0,0,1.275-1.275v-1.93a1.276,1.276,0,0,0-1.275-1.276Z" transform="translate(3.404 21.581)" fill="#ea5770"/>
              <rect id="Rectángulo_339144" data-name="Rectángulo 339144" width="68.328" height="0.846" transform="translate(135.189 104.473)" fill="#dbb3a7"/>
              <rect id="Rectángulo_339145" data-name="Rectángulo 339145" width="18.078" height="0.846" transform="translate(108.508 104.473)" fill="#dbb3a7"/>
              <rect id="Rectángulo_339146" data-name="Rectángulo 339146" width="17.738" height="0.846" transform="translate(185.779 115.714)" fill="#dbb3a7"/>
              <rect id="Rectángulo_339147" data-name="Rectángulo 339147" width="66.044" height="0.846" transform="translate(108.508 115.714)" fill="#dbb3a7"/>
              <rect id="Rectángulo_339148" data-name="Rectángulo 339148" width="43.106" height="0.846" transform="translate(160.411 126.955)" fill="#dbb3a7"/>
              <rect id="Rectángulo_339149" data-name="Rectángulo 339149" width="16.421" height="0.846" transform="translate(137.957 126.955)" fill="#dbb3a7"/>
              <rect id="Rectángulo_339150" data-name="Rectángulo 339150" width="22.935" height="0.846" transform="translate(108.508 126.955)" fill="#dbb3a7"/>
              <rect id="Rectángulo_339151" data-name="Rectángulo 339151" width="32.756" height="0.846" transform="translate(170.761 138.195)" fill="#dbb3a7"/>
              <rect id="Rectángulo_339152" data-name="Rectángulo 339152" width="48.987" height="0.846" transform="translate(108.508 138.195)" fill="#dbb3a7"/>
              <rect id="Rectángulo_339153" data-name="Rectángulo 339153" width="28.795" height="0.846" transform="translate(172.366 165.532)" fill="#dbb3a7"/>
              <rect id="Rectángulo_339154" data-name="Rectángulo 339154" width="43.268" height="0.846" transform="translate(117.143 165.532)" fill="#dbb3a7"/>
              <rect id="Rectángulo_339155" data-name="Rectángulo 339155" width="41.554" height="0.846" transform="translate(57.113 165.532)" fill="#dbb3a7"/>
              <rect id="Rectángulo_339156" data-name="Rectángulo 339156" width="50.445" height="0.846" transform="translate(150.715 180.504)" fill="#dbb3a7"/>
              <rect id="Rectángulo_339157" data-name="Rectángulo 339157" width="56.511" height="0.846" transform="translate(87.206 180.504)" fill="#dbb3a7"/>
              <rect id="Rectángulo_339158" data-name="Rectángulo 339158" width="20.777" height="0.846" transform="translate(57.114 180.504)" fill="#dbb3a7"/>
              <rect id="Rectángulo_339159" data-name="Rectángulo 339159" width="15.383" height="0.846" transform="translate(185.778 195.475)" fill="#dbb3a7"/>
              <rect id="Rectángulo_339160" data-name="Rectángulo 339160" width="40.238" height="0.846" transform="translate(134.314 195.475)" fill="#dbb3a7"/>
              <rect id="Rectángulo_339161" data-name="Rectángulo 339161" width="68.015" height="0.846" transform="translate(57.113 195.475)" fill="#dbb3a7"/>
              <rect id="Rectángulo_339162" data-name="Rectángulo 339162" width="127.842" height="0.846" transform="translate(29.434 269.64)" fill="#dbb3a7"/>
              <path id="Trazado_210505" data-name="Trazado 210505" d="M71.57,196.309H29.93a3.339,3.339,0,1,1,0-6.678H71.57a3.339,3.339,0,1,1,0,6.678m-41.64-5.832a2.493,2.493,0,1,0,0,4.986H71.57a2.493,2.493,0,1,0,0-4.986Z" transform="translate(3.404 24.277)" fill="#8b5991"/>
              <path id="Trazado_210506" data-name="Trazado 210506" d="M154.684,196.309H80.273a3.339,3.339,0,0,1,0-6.678h74.411a3.339,3.339,0,0,1,0,6.678m-74.411-5.832a2.493,2.493,0,0,0,0,4.986h74.411a2.493,2.493,0,1,0,0-4.986Z" transform="translate(9.849 24.277)" fill="#8b5991"/>
              <rect id="Rectángulo_339163" data-name="Rectángulo 339163" width="174.185" height="0.846" transform="translate(30.049 255.683)" fill="#dbb3a7"/>
              <path id="Trazado_210507" data-name="Trazado 210507" d="M147.585,26.281h-78.7a3.513,3.513,0,0,1-3.509-3.509v-9.72a3.513,3.513,0,0,1,3.509-3.509h78.7a3.514,3.514,0,0,1,3.509,3.509v9.72a3.514,3.514,0,0,1-3.509,3.509m-78.7-15.893a2.666,2.666,0,0,0-2.663,2.663v9.72a2.666,2.666,0,0,0,2.663,2.663h78.7a2.667,2.667,0,0,0,2.663-2.663v-9.72a2.667,2.667,0,0,0-2.663-2.663Z" transform="translate(8.37 1.222)" fill="#e2cfc7"/>
              <path id="Trazado_210508" data-name="Trazado 210508" d="M391.209,303.3H86.648a7.461,7.461,0,0,1-7.462-7.461V104.14a7.461,7.461,0,0,1,7.462-7.461H391.209a7.46,7.46,0,0,1,7.461,7.461v191.7a7.46,7.46,0,0,1-7.461,7.461" transform="translate(10.138 12.377)" fill="#12263f"/>
              <rect id="Rectángulo_339164" data-name="Rectángulo 339164" width="293.374" height="184.166" transform="translate(102.378 120.287)" fill="#fff"/>
              <rect id="Rectángulo_339165" data-name="Rectángulo 339165" width="293.374" height="184.166" transform="translate(102.378 120.287)" fill="#efe1dc"/>
              <rect id="Rectángulo_339166" data-name="Rectángulo 339166" width="293.374" height="6.285" transform="translate(102.378 120.287)" fill="#fff"/>
              <path id="Trazado_210509" data-name="Trazado 210509" d="M47.375,280a11.164,11.164,0,0,0,11.119,10.742H427.508A11.166,11.166,0,0,0,438.627,280Z" transform="translate(6.065 35.846)" fill="#12263f"/>
              <rect id="Rectángulo_339167" data-name="Rectángulo 339167" width="304.561" height="0.846" transform="translate(96.786 315.26)" fill="#8b5991"/>
              <path id="Trazado_210510" data-name="Trazado 210510" d="M221.123,104.416a2.86,2.86,0,1,1,2.86-2.86,2.863,2.863,0,0,1-2.86,2.86m0-4.874a2.014,2.014,0,1,0,2.014,2.015,2.017,2.017,0,0,0-2.014-2.015" transform="translate(27.943 12.636)" fill="#8b5991"/>
              <path id="Trazado_210511" data-name="Trazado 210511" d="M95.989,109.415a1.341,1.341,0,1,1-1.341-1.341,1.341,1.341,0,0,1,1.341,1.341" transform="translate(11.946 13.836)" fill="#ffb43b"/>
              <path id="Trazado_210512" data-name="Trazado 210512" d="M100.665,109.415a1.341,1.341,0,1,1-1.341-1.341,1.341,1.341,0,0,1,1.341,1.341" transform="translate(12.544 13.836)" fill="#ffb43b"/>
              <path id="Trazado_210513" data-name="Trazado 210513" d="M105.34,109.415A1.341,1.341,0,1,1,104,108.074a1.341,1.341,0,0,1,1.341,1.341" transform="translate(13.143 13.836)" fill="#ffb43b"/>
              <rect id="Rectángulo_339168" data-name="Rectángulo 339168" width="56.311" height="79.186" transform="translate(223.364 151.879)" fill="#ffb9a9"/>
              <path id="Trazado_210514" data-name="Trazado 210514" d="M254.324,170.05c-38.736,14.748-56.311,1.907-56.311,1.907V134.642h56.311Z" transform="translate(25.351 17.237)" fill="#f28e81"/>
              <path id="Trazado_210515" data-name="Trazado 210515" d="M359.5,231.571c-2.934-8.055-4.817-13.131-5.1-13.72A37.459,37.459,0,0,0,284,241.934l-.335.085,1.884,5.167,11.142,32.1H359.5Z" transform="translate(36.25 25.168)" fill="#ffb9a9"/>
              <path id="Trazado_210516" data-name="Trazado 210516" d="M171.924,234a37.47,37.47,0,0,0-71.253-16.15c-.416.865-4.3,11.456-9.913,26.995v34.437h67.628l11.14-32.1,1.885-5.169-.335-.083a37.386,37.386,0,0,0,.847-7.933" transform="translate(11.619 25.168)" fill="#ffb9a9"/>
              <path id="Trazado_210517" data-name="Trazado 210517" d="M359.5,230.521c-3.131-7.663-5.188-12.667-5.4-13.108-6.2-12.916-21.5-24.183-36.857-26.695-20.656,0-34.1,23.405-34.1,44.035a37.313,37.313,0,0,0,.848,7.933l-.335.084,1.884,5.169,11.142,32.1H359.5Z" transform="translate(36.25 24.417)" fill="#fff"/>
              <path id="Trazado_210518" data-name="Trazado 210518" d="M171.924,234.754c0-20.629-13.439-44.035-34.1-44.035-15.352,2.512-30.662,13.779-36.856,26.695-.308.64-4.488,10.857-10.214,24.9v37.718h67.628l11.141-32.1,1.883-5.169-.335-.084a37.315,37.315,0,0,0,.848-7.933" transform="translate(11.619 24.417)" fill="#fff"/>
              <path id="Trazado_210519" data-name="Trazado 210519" d="M376.014,281.634H101.7l-2.12-48s-4.626-30.272,34.779-40.746l1.777-.407v-.012l74.315-14.235c14.165,12.811,42.072,12.39,56.491,0l74.63,14.235v.012l1.778.407c39.406,10.475,34.778,40.746,34.778,40.746Z" transform="translate(12.728 22.819)" fill="#fff"/>
              <path id="Trazado_210520" data-name="Trazado 210520" d="M222.3,177.1l2.448.094c26.791,3.024,50.651-11.7,53.754-39.181l3.242-28.727c3.1-27.487-16.279-52.449-43.069-55.473l-2.427-.274C209.453,50.514,185,70.528,181.892,98.013l-3.242,28.729c-3.1,27.485,16.856,47.333,43.647,50.357" transform="translate(22.831 6.815)" fill="#12263f"/>
              <path id="Trazado_210521" data-name="Trazado 210521" d="M202.186,120.723c-.863,7.642-6.826,13.244-13.437,12.5-12.4,4.328-21.492-34.6-3.375-33.531,6.611.747,17.675,13.391,16.812,21.033" transform="translate(22.425 12.76)" fill="#ed968a"/>
              <path id="Trazado_210522" data-name="Trazado 210522" d="M216.138,182.6h0c23.527,2.655,50.658-13.751,53.31-37.247l4.5-39.84a30.208,30.208,0,0,0-26.574-33.29l-22.175-2.5c-18.388-2.076-32.8-9.413-34.867,8.95L183.892,135.7c-2.652,23.5,10.984,44.5,32.246,46.9" transform="translate(23.501 8.516)" fill="#ffb9a9"/>
              <path id="Trazado_210523" data-name="Trazado 210523" d="M245.943,125.487a13.841,13.841,0,0,0,12.184,15.39c12.978,7.192,32.617-28.493,11.878-31.809-7.652-.864-23.2,8.777-24.062,16.42" transform="translate(31.475 13.956)" fill="#ffb9a9"/>
              <path id="Trazado_210524" data-name="Trazado 210524" d="M260.036,132.918c-.143,0-.289,0-.435-.008l.044-1.128c7.947.32,11.2-8.988,11.47-12.409a3.956,3.956,0,0,0-1.72-3.693,5.876,5.876,0,0,0-5.9.032l-.5-1.012a6.976,6.976,0,0,1,7.033.046,5.118,5.118,0,0,1,2.212,4.715c-.289,3.65-3.718,13.457-12.2,13.457" transform="translate(33.235 14.566)" fill="#ea8c73"/>
              <path id="Trazado_210525" data-name="Trazado 210525" d="M267.473,127.285a5.633,5.633,0,0,0-6.654-1.5l-.423-1.047a6.849,6.849,0,0,1,7.971,1.861Z" transform="translate(33.337 15.895)" fill="#ea8c73"/>
              <path id="Trazado_210526" data-name="Trazado 210526" d="M188.09,107.5s-2.177-1.594-6.958-.312l-.584-14.565c-.916-6.7,2.161-10.6,5.015-11.386,0,0-3.3-1.556-6.141-10.52S185.1,38.047,185.1,38.047c35.8,8.929,72,17.8,84.421,30.3,9.295,6.741,10.971,14.413,11.489,23.666,4.595,1.339,8.017,6.482,6.69,11.338l-5.154,16.043c-9.381-1.852-14.583,3.575-16.028,19.136-7.9-.891-4.256-18.415-4.256-18.415l3-26.284L191.2,85.47Z" transform="translate(22.896 4.871)" fill="#12263f"/>
              <path id="Trazado_210527" data-name="Trazado 210527" d="M233.623,118.282a2.943,2.943,0,1,0,3.253-2.59,2.94,2.94,0,0,0-3.253,2.59" transform="translate(29.907 14.809)" fill="#592b5b"/>
              <path id="Trazado_210528" data-name="Trazado 210528" d="M196.257,114.065a2.943,2.943,0,1,0,3.254-2.59,2.94,2.94,0,0,0-3.254,2.59" transform="translate(25.123 14.269)" fill="#592b5b"/>
              <path id="Trazado_210529" data-name="Trazado 210529" d="M230.972,110.078c-.172,1.521,13.5,3.064,13.671,1.543s-2.75-3.1-6.524-3.524-6.975.46-7.146,1.981" transform="translate(29.57 13.825)" fill="#592b5b"/>
              <path id="Trazado_210530" data-name="Trazado 210530" d="M193.752,105.869c-.17,1.509,13.4,3.041,13.57,1.532s-2.729-3.075-6.477-3.5-6.923.457-7.093,1.966" transform="translate(24.805 13.289)" fill="#592b5b"/>
              <path id="Trazado_210531" data-name="Trazado 210531" d="M216.9,131.349l-.1-1.124c1.375-.124,2.332-1.817,2.34-1.834l.07-.127.122-.079a3.93,3.93,0,0,1,5.533,1.068l-.933.636a2.806,2.806,0,0,0-3.883-.819,4.615,4.615,0,0,1-3.147,2.279" transform="translate(27.756 16.322)" fill="#ea8c73"/>
              <path id="Trazado_210532" data-name="Trazado 210532" d="M215.64,131.237a4.619,4.619,0,0,1-2.561-2.923,2.784,2.784,0,0,0-3.966-.067l-.767-.829a3.927,3.927,0,0,1,5.63.192l.1.1.039.14c.006.019.548,1.88,1.874,2.311Z" transform="translate(26.673 16.17)" fill="#ea8c73"/>
              <rect id="Rectángulo_339169" data-name="Rectángulo 339169" width="5.239" height="1.128" transform="translate(239.975 173.637) rotate(-83.629)" fill="#ea8c73"/>
              <path id="Trazado_210533" data-name="Trazado 210533" d="M226.455,136.4a10.068,10.068,0,0,1-19.928-2.249Z" transform="translate(26.44 17.175)" fill="#fff"/>
              <path id="Trazado_210534" data-name="Trazado 210534" d="M250.205,100.395a19.543,19.543,0,0,0-20.775,13.423c-3.347-3.171-8.08-3.689-12.434-1.355a19.519,19.519,0,1,0-21.635,20.979,20.052,20.052,0,0,0,2.231.125,19.336,19.336,0,0,0,19.443-20.157c4.324-2.5,8.92-1.993,12.141,1.35a19.2,19.2,0,0,0-.554,2.817,19.521,19.521,0,1,0,21.584-17.183m-34.1,15.77a18.678,18.678,0,1,1-18.6-20.747,18.7,18.7,0,0,1,18.6,20.747m50.472,5.7a18.674,18.674,0,1,1-16.466-20.626,18.679,18.679,0,0,1,16.466,20.626" transform="translate(22.791 12.107)" fill="#fff"/>
              <rect id="Rectángulo_339170" data-name="Rectángulo 339170" width="52.013" height="0.847" transform="matrix(0.109, -0.994, 0.994, 0.109, 353.967, 304.408)" fill="#f7e5dc"/>
              <rect id="Rectángulo_339171" data-name="Rectángulo 339171" width="0.847" height="52.013" transform="translate(142.401 252.802) rotate(-6.319)" fill="#f7e5dc"/>
              <path id="Trazado_210535" data-name="Trazado 210535" d="M226.876,195.244c-14.906,0-29.166-5.232-39.588-14.625l.566-.627c11.11,10.011,26.669,15.235,42.651,14.3,13.862-.8,26.161-6.2,33.744-14.805l.635.559c-7.729,8.777-20.242,14.277-34.33,15.091q-1.844.107-3.677.106" transform="translate(23.977 22.979)" fill="#f7e5dc"/>
              <path id="Trazado_210536" data-name="Trazado 210536" d="M239.484,247a14.841,14.841,0,1,1-14.841-14.84A14.84,14.84,0,0,1,239.484,247" transform="translate(26.86 29.723)" fill="#7cc46c"/>
              <path id="Trazado_210537" data-name="Trazado 210537" d="M226.274,240.32h-9.9a1.625,1.625,0,0,0-1.465,1.739v7.8a1.625,1.625,0,0,0,1.465,1.739h9.9a1.625,1.625,0,0,0,1.465-1.739v-7.8a1.625,1.625,0,0,0-1.465-1.739" transform="translate(27.513 30.767)" fill="#fff"/>
              <path id="Trazado_210538" data-name="Trazado 210538" d="M229.887,241.869l-1.84,1.84a1.157,1.157,0,0,0-.338.818v2.557a1.153,1.153,0,0,0,.34.818l1.839,1.84a1.154,1.154,0,0,0,1.971-.817v-6.239a1.154,1.154,0,0,0-1.971-.817" transform="translate(29.152 30.922)" fill="#fff"/>
              <path id="Trazado_210539" data-name="Trazado 210539" d="M191.76,247a14.841,14.841,0,1,1-14.84-14.84A14.84,14.84,0,0,1,191.76,247" transform="translate(20.75 29.723)" fill="#7cc46c"/>
              <path id="Trazado_210540" data-name="Trazado 210540" d="M181.5,245.705h-1.162a4.461,4.461,0,1,1-8.922,0H170.25a5.609,5.609,0,0,0,5.041,5.563v1.571h-2.31V254h5.783V252.84h-2.311v-1.571a5.61,5.61,0,0,0,5.042-5.563" transform="translate(21.796 31.456)" fill="#fff"/>
              <path id="Trazado_210541" data-name="Trazado 210541" d="M175.674,250.265h0a3.607,3.607,0,0,1-3.6-3.6V240.4a3.6,3.6,0,1,1,7.192,0v6.274a3.606,3.606,0,0,1-3.6,3.6" transform="translate(22.03 30.316)" fill="#fff"/>
              <path id="Trazado_210542" data-name="Trazado 210542" d="M287.208,247a14.841,14.841,0,1,1-14.84-14.84A14.84,14.84,0,0,1,287.208,247" transform="translate(32.97 29.723)" fill="#ea5770"/>
              <path id="Trazado_210543" data-name="Trazado 210543" d="M268.993,238.165l.6,5.489-2.124.74a9.728,9.728,0,0,0,5.584,6.061l1.026-2.1,5.513.979s-.188,4.341-3.269,5.059c-4.1.548-7.541-2.124-9.307-4.344s-4.629-7.039-2.982-9.95c1.387-1.982,4.963-1.933,4.963-1.933" transform="translate(33.739 30.491)" fill="#fff"/>
            </g>
          </g>
          <g id="Grupo_983874" data-name="Grupo 983874" transform="translate(-84.34 0.001)">
            <g id="Grupo_983873-2" data-name="Grupo 983873" clip-path="url(#clip-path-2)">
              <path id="Trazado_210441" data-name="Trazado 210441" d="M258.78,193.628s-4.029,1.171-4.123,4.4,3.186,4.685,4.919,5.294,3.7-8.947-.8-9.7" transform="translate(-26.621 -20.242)" fill="#ffb9a9"/>
              <path id="Trazado_210442" data-name="Trazado 210442" d="M302.132,204.862s-3.841-10.634-.516-15.037,6.512-3.653,7.5-2.763l.983,6.558s3.233,5.761,3.327,6.6,2.584,15.044,2.584,15.044,1.313,27.411,1.688,30.643,0,35.295,0,35.295l-34.14,7.6,4.525-28.606s-13.992-11.118-15.241-19.487l-13.491-3.936c-4.013-1.327-4.482-6.761,0-8.432-6.309.078-5.887-7.511-.562-9.682-5.839-.594-6.168-8.7,1-10.68Z" transform="translate(-26.595 -19.484)" fill="#ffb9a9"/>
              <path id="Trazado_210443" data-name="Trazado 210443" d="M299.5,235.239H261.54l-3.882-60.272h45.723Z" transform="translate(-26.935 -18.291)" fill="#fff"/>
              <path id="Trazado_210444" data-name="Trazado 210444" d="M301.417,216.928l1.658-26.524H258.046l1.659,26.524Z" transform="translate(-26.976 -19.905)" fill="#7cc46c"/>
              <path id="Trazado_210445" data-name="Trazado 210445" d="M257,169.543l-.893,4.857h48.5l-.893-4.857Z" transform="translate(-26.773 -17.724)" fill="#12263f"/>
              <path id="Trazado_210446" data-name="Trazado 210446" d="M299.513,163.077H262.056L260.82,169.8h39.929Z" transform="translate(-27.266 -17.048)" fill="#12263f"/>
              <rect id="Rectángulo_339131" data-name="Rectángulo 339131" width="39.586" height="0.672" transform="translate(233.726 151.483)" fill="#8b5991"/>
              <path id="Trazado_210447" data-name="Trazado 210447" d="M288.423,213.842a9.769,9.769,0,1,1,9.769-9.769,9.78,9.78,0,0,1-9.769,9.769m0-18.866a9.1,9.1,0,1,0,9.1,9.1,9.108,9.108,0,0,0-9.1-9.1" transform="translate(-29.13 -20.312)" fill="#62a851"/>
              <rect id="Rectángulo_339132" data-name="Rectángulo 339132" width="13.851" height="0.671" transform="matrix(0.065, -0.998, 0.998, 0.065, 275.213, 170.476)" fill="#dbb3a7"/>
              <path id="Trazado_210448" data-name="Trazado 210448" d="M314.382,205c1.643-.1,3.276-.284,4.9-.527-.266-2.207-.477-3.97-.509-4.253-.093-.844-3.326-6.606-3.326-6.606l-.984-6.558c-.983-.89-4.169-1.64-7.495,2.764-3.143,4.161.11,13.875.478,14.931a21.927,21.927,0,0,0,6.934.248" transform="translate(-31.948 -19.484)" fill="#ffb9a9"/>
              <path id="Trazado_210449" data-name="Trazado 210449" d="M311.026,208a10.163,10.163,0,0,1-3.509-.612l.336-.83a9.548,9.548,0,0,0,3.738.529l.057.895c-.211.013-.419.019-.621.019" transform="translate(-32.147 -21.593)" fill="#ea8c73"/>
              <rect id="Rectángulo_339133" data-name="Rectángulo 339133" width="0.896" height="5.601" transform="matrix(0.781, -0.624, 0.624, 0.781, 274.437, 201.96)" fill="#ea8c73"/>
              <path id="Trazado_210450" data-name="Trazado 210450" d="M313.495,196.6c-1.678,0-2.47-2.635-2.972-4.945-.6-2.76,4.068-4.882,4.267-4.97l.366.817c-1.171.525-4.13,2.258-3.759,3.962.816,3.745,1.707,4.24,2.133,4.239.733-.037,1.629-1.393,2.02-2.24l.813.376c-.126.274-1.281,2.684-2.789,2.757l-.079,0" transform="translate(-32.456 -19.516)" fill="#ea8c73"/>
              <path id="Trazado_210451" data-name="Trazado 210451" d="M302.226,253.816c-5.028-2.563-3.578-9.566-3.513-9.863l.876.189c-.015.066-1.368,6.627,3.044,8.876Z" transform="translate(-31.202 -25.503)" fill="#ea8c73"/>
              <path id="Trazado_210452" data-name="Trazado 210452" d="M275.291,247.066l-.682-.58a7.292,7.292,0,0,1,3.147-2.126l.229.865a6.445,6.445,0,0,0-2.694,1.841" transform="translate(-28.707 -25.545)" fill="#ea8c73"/>
              <path id="Trazado_210453" data-name="Trazado 210453" d="M276.97,251.182l-.791-.422c.1-.185,2.459-4.554,5.652-6.006l.371.815c-2.919,1.328-5.21,5.57-5.232,5.613" transform="translate(-28.871 -25.586)" fill="#ea8c73"/>
              <rect id="Rectángulo_339134" data-name="Rectángulo 339134" width="1.271" height="0.896" transform="translate(232.133 198.739) rotate(-7.296)" fill="#ea8c73"/>
              <rect id="Rectángulo_339135" data-name="Rectángulo 339135" width="1.349" height="0.895" transform="translate(232.648 208.428) rotate(-13.413)" fill="#ea8c73"/>
              <path id="Trazado_210454" data-name="Trazado 210454" d="M173.927,123.324l2.566,71.435c-22.6,15.106-64.215,15.564-85.985,0l7.008-77.474Z" transform="translate(-9.462 -12.261)" fill="#ffb9a9"/>
              <path id="Trazado_210455" data-name="Trazado 210455" d="M201.527,109.294c-.191,0-.382-.006-.574-.018-7.166-.439-12.5-8.98-11.882-19.038s6.95-17.888,14.114-17.447c3.5.214,6.667,2.334,8.91,5.966a22.449,22.449,0,0,1,2.972,13.072c-.6,9.789-6.612,17.465-13.54,17.465m-11.562-19c-.585,9.566,4.369,17.682,11.043,18.09s12.58-7.042,13.166-16.609a21.545,21.545,0,0,0-2.84-12.545c-2.086-3.379-5-5.349-8.2-5.544-6.665-.4-12.581,7.041-13.166,16.609Z" transform="translate(-19.76 -7.608)" fill="#fff"/>
              <path id="Trazado_210456" data-name="Trazado 210456" d="M103.53,38.565l96.65,9.394s-5.391,55.168-8.438,81.087-18.857,28.4-18.857,28.4c-19.563,7.585-72.18,2.224-76.7-28.943Z" transform="translate(-10.055 -4.032)" fill="#ffb9a9"/>
              <path id="Trazado_210457" data-name="Trazado 210457" d="M170.438,104.488c-2.592-6.37-2.433-11.717.425-14.3,1.782-1.612,4.384-1.76,6.961-.4l-.418.792c-2.266-1.2-4.432-1.1-5.942.269-1.982,1.793-3.074,6.228-.2,13.3Z" transform="translate(-17.625 -9.29)" fill="#ea8c73"/>
              <path id="Trazado_210458" data-name="Trazado 210458" d="M175.722,107.213l-.8-.4c.938-1.9,1.057-3.46.353-4.647-1.467-2.474-6.026-2.691-6.072-2.693l.036-.895c.207.009,5.089.236,6.805,3.128.87,1.465.762,3.317-.32,5.5" transform="translate(-17.688 -10.306)" fill="#ea8c73"/>
              <path id="Trazado_210459" data-name="Trazado 210459" d="M99.689,33.26c-2.707-18.5,7.992-26.719,20.171-26.788,0,0,66.23-7.5,74.671-6.354a22.864,22.864,0,0,1,7.824,42.758,16.722,16.722,0,0,1-2.8,1.428,29.334,29.334,0,0,1-4.163,1c-.279.048-.561.088-.843.126-.12.017-.239.036-.358.051l-.111.013a38.531,38.531,0,0,1-5.173.27L182.19,95.353c-.791,5.841-1.358,10.523-7.709,9.664l-.087-16.9c.292-3.274.3-8.673-2.442-10.959-3.591-2.991-10.7-2.361-13.193,1.632-5.631,8.336,3.06,25.642,3.06,25.642s-9.855,20.553-20.059,26.847c-15.85,7.468-38.526,5.335-46.269-5.589-4.508-41.249-13.879-80.537,4.2-92.432" transform="translate(-9.306 0)" fill="#12263f"/>
              <rect id="Rectángulo_339136" data-name="Rectángulo 339136" width="0.896" height="30.32" transform="translate(165.146 81.552) rotate(-86.112)" fill="#fff"/>
              <path id="Trazado_210460" data-name="Trazado 210460" d="M197.442,51.215c-.133,0-13.539-.284-26.7-1.618l.068-.668c13.134,1.331,26.514,1.612,26.648,1.615Z" transform="translate(-17.849 -5.115)" fill="#8b5991"/>
              <path id="Trazado_210461" data-name="Trazado 210461" d="M194.556,43.02q-2.75,0-5.785-.3l.066-.668c10.673,1.06,18.632-.708,23.646-5.261A16.179,16.179,0,0,0,217.754,25.8l.672,0a16.555,16.555,0,0,1-5.479,11.475c-4.2,3.82-10.373,5.743-18.391,5.743" transform="translate(-19.734 -2.697)" fill="#8b5991"/>
              <path id="Trazado_210462" data-name="Trazado 210462" d="M192.4,104.58c-.08,2.748.937,6.759,4.689,7.217,3.148.518,4.5-1.983,6.8-1.147,3.785,17.955-.89,53.952-18.9,52.747l-.527-47.447Z" transform="translate(-19.283 -10.933)" fill="#12263f"/>
              <path id="Trazado_210463" data-name="Trazado 210463" d="M318.607,285.774l.94-19.474-49.3-1.968-.305,18.747Z" transform="translate(-28.22 -27.633)" fill="#fff"/>
              <path id="Trazado_210464" data-name="Trazado 210464" d="M317.263,394.557l1.048-109.544-55.769-5.677L251.364,394.557Z" transform="translate(-26.277 -29.201)" fill="#12263f"/>
              <path id="Trazado_210465" data-name="Trazado 210465" d="M244.982,386.63,253.317,267.2s3.551-38.5-30.279-48.135l-56.006-15.288c-35.524.629-74.936-.84-88.293,0L24.675,222.467C10.517,227.8,2.858,237.217,0,251.6v36.976L7.6,386.63Z" transform="translate(0 -21.274)" fill="#592b5b"/>
              <path id="Trazado_210466" data-name="Trazado 210466" d="M244.982,386.63,253.317,267.2s3.551-38.5-30.279-48.135l-56.006-15.288c-35.524.629-74.936-.84-88.293,0L24.675,222.467C10.517,227.8,2.858,237.217,0,251.6v36.976L7.6,386.63Z" transform="translate(0 -21.274)" fill="#12263f"/>
              <path id="Trazado_210467" data-name="Trazado 210467" d="M90.916,182.7H175.9l4.92,20.217H82.373Z" transform="translate(-8.611 -19.099)" fill="#fff"/>
              <path id="Trazado_210468" data-name="Trazado 210468" d="M192.321,279.984l38.13,108.334h78.271c-8.185-33.184-33.6-136.211-34.054-137.881a40.351,40.351,0,0,0-1.439-4.3l-.022-.086-.011.005a42.067,42.067,0,0,0-28.008-24.7c-23.167-6.5-47.8,6.234-55.018,28.447a39.839,39.839,0,0,0,2.152,30.182Z" transform="translate(-19.671 -22.962)" fill="#12263f"/>
              <path id="Trazado_210469" data-name="Trazado 210469" d="M236.508,387.614,195.3,288.707c-4.935-18.229-3.726-33.33,3.58-44.924,10.083-16,28.532-19.563,28.717-19.6l.123.66c-.183.035-18.353,3.549-28.275,19.3-7.2,11.429-8.379,26.347-3.51,44.343l41.2,98.865Z" transform="translate(-20.105 -23.436)" fill="#8b5991"/>
              <rect id="Rectángulo_339137" data-name="Rectángulo 339137" width="0.672" height="116.039" transform="translate(255.268 229.934) rotate(-13.873)" fill="#8b5991"/>
              <path id="Trazado_210470" data-name="Trazado 210470" d="M213.234,392.356l-17.78-114.683a19.444,19.444,0,0,0-19.386-19.389H4.591A19.231,19.231,0,0,0,0,258.843V373.094l.038,19.262Z" transform="translate(0 -27.001)" fill="#9b5670"/>
              <path id="Trazado_210471" data-name="Trazado 210471" d="M209.532,391.533c-2.545-14.548-4.675-29.359-6.735-43.681-3.662-25.459-7.449-51.783-13.741-78.1-1.556-6.221-7.634-10.4-16.258-11.173l.059-.668c8.923.8,15.222,5.167,16.851,11.681,6.3,26.349,10.089,52.689,13.753,78.161,2.059,14.319,4.189,29.125,6.731,43.663Z" transform="translate(-18.064 -26.962)" fill="#843a5c"/>
            </g>
          </g>
        </g>
      </g>
    </g>
  </g>
</svg>
