<svg xmlns="http://www.w3.org/2000/svg" xmlns:xlink="http://www.w3.org/1999/xlink" width="107" height="114" viewBox="0 0 107 114">
  <defs>
    <clipPath id="clip-path">
      <rect id="Rect치ngulo_340696" data-name="Rect치ngulo 340696" width="62.112" height="88.162" fill="none"/>
    </clipPath>
  </defs>
  <g id="Grupo_983983" data-name="Grupo 983983" transform="translate(-209 -441)">
    <g id="Rect치ngulo_340695" data-name="Rect치ngulo 340695" transform="translate(209 441)" fill="none" stroke="#39a900" stroke-width="3">
      <rect width="107" height="114" rx="8" stroke="none"/>
      <rect x="1.5" y="1.5" width="104" height="111" rx="6.5" fill="none"/>
    </g>
    <g id="Grupo_983982" data-name="Grupo 983982" transform="translate(231 454)">
      <g id="Grupo_983981" data-name="Grupo 983981" clip-path="url(#clip-path)">
        <path id="Trazado_727710" data-name="Trazado 727710" d="M60.808,79.089c1.089.457,1.325.9,1.088,2.035a8.813,8.813,0,0,1-8.452,7.008q-22.358.056-44.715,0A8.8,8.8,0,0,1,.016,79.624C0,79.311,0,79,0,78.683Q0,49.641,0,20.6a8.93,8.93,0,0,1,6.551-9.011,15.186,15.186,0,0,1,4.4-.277c.6.009.731-.172.718-.737-.038-1.6-.017-3.2-.012-4.8,0-1.316.432-1.757,1.74-1.76,3.515-.007,7.029-.014,10.544.009a1.168,1.168,0,0,0,1.183-.644,6.891,6.891,0,0,1,11.856,0,1.171,1.171,0,0,0,1.181.648c3.483-.025,6.966-.015,10.449-.011,1.434,0,1.839.413,1.841,1.849,0,1.538.033,3.077-.014,4.613-.02.641.127.856.809.84a16.765,16.765,0,0,1,3.751.152,8.922,8.922,0,0,1,7.1,8.288,1.447,1.447,0,0,1-.937,1.565c-1.128.3-1.642,0-1.907-1.121-.109-.458-.166-.927-.277-1.385a5.765,5.765,0,0,0-5.714-4.566q-22.167-.029-44.335,0a5.924,5.924,0,0,0-5.992,5.795c-.028.344-.023.689-.023,1.035q0,28.663,0,57.326a9.243,9.243,0,0,0,.146,1.873,5.888,5.888,0,0,0,6,4.94q13.6.019,27.2,0,8.189,0,16.379,0c3.4,0,5.379-1.467,6.4-4.723.4-1.279.8-1.592,1.775-1.406" transform="translate(0 0)"/>
        <path id="Trazado_727711" data-name="Trazado 727711" d="M62.724,89.224a1.524,1.524,0,0,0-1.5,1.4,6.146,6.146,0,0,1-6.271,5.02q-21.987.014-43.974,0a6.2,6.2,0,0,1-6.42-6.412q-.018-29.378,0-58.758a6.177,6.177,0,0,1,6.412-6.405q21.987-.014,43.974,0a6.2,6.2,0,0,1,6.42,5.827c.133,1.291.438,1.57,1.706,1.558-.376.231-.362.6-.36.974.011,1.609.008,3.219.009,4.828a3.042,3.042,0,0,0-1.047,2.832c.044,3.1.053,6.207,0,9.309-.021,1.117.14,2.039,1.22,2.585a5.471,5.471,0,0,0-.163,2.311c-.037,1.157,0,2.315,0,3.472a2.715,2.715,0,0,0-1.04,2.625q.041,10.184,0,20.367c-.006,1.132.111,2.1,1.21,2.688a4.581,4.581,0,0,0-.166,2.12c-.035,1.218-.005,2.439,0,3.658" transform="translate(-1.917 -10.135)" fill="#98bbe6"/>
        <path id="Trazado_727712" data-name="Trazado 727712" d="M104.239,107.967c-1.147-.1-1.5-.456-1.506-1.581q-.009-11.251-.009-22.5a1.407,1.407,0,0,1,1.348-1.6,1.476,1.476,0,0,1,1.3,1.666q-.012,11.2,0,22.405a1.435,1.435,0,0,1-1.129,1.609" transform="translate(-43.264 -34.656)"/>
        <path id="Trazado_727713" data-name="Trazado 727713" d="M104.232,61.582c-1.141-.1-1.5-.46-1.5-1.578-.009-3.815.014-7.631-.016-11.447a1.491,1.491,0,0,1,1.35-1.7,1.554,1.554,0,0,1,1.307,1.763c-.021,3.755-.016,7.512,0,11.268,0,.84-.246,1.472-1.135,1.7" transform="translate(-43.259 -19.734)"/>
        <path id="Trazado_727714" data-name="Trazado 727714" d="M54.822,8.935a4.321,4.321,0,1,1-4.249-4.363,4.355,4.355,0,0,1,4.249,4.363" transform="translate(-19.449 -1.926)" fill="#edd98c"/>
        <path id="Trazado_727715" data-name="Trazado 727715" d="M35.96,16.126c-3.658,0-7.138-.006-10.619.007-.442,0-.693-.05-.675-.6.039-1.159.029-2.321,0-3.481-.01-.456.152-.59.6-.588,2.886.016,5.771.009,8.656.007.3,0,.564-.009.567.416a7.5,7.5,0,0,0,1.472,4.233" transform="translate(-10.388 -4.831)" fill="#9baeca"/>
        <path id="Trazado_727716" data-name="Trazado 727716" d="M63.109,16.126a7.53,7.53,0,0,0,1.473-4.235c0-.426.273-.414.568-.414,2.886,0,5.771.009,8.656-.007.446,0,.6.134.6.588-.025,1.16-.035,2.322,0,3.481.019.546-.234.6-.675.594-3.481-.013-6.961-.007-10.619-.007" transform="translate(-26.579 -4.831)" fill="#9baeca"/>
        <path id="Trazado_727717" data-name="Trazado 727717" d="M60.667,61.791q0,14.45,0,28.9c0,2.892-1.36,4.241-4.268,4.241H13.193c-2.653,0-4.085-1.411-4.085-4.043q0-29.133,0-58.267c0-2.582,1.429-4,4.029-4q21.745,0,43.489,0c2.633,0,4.04,1.419,4.041,4.08q0,14.543,0,29.087" transform="translate(-3.835 -12.055)"/>
        <path id="Trazado_727718" data-name="Trazado 727718" d="M59.951,63.606q0,14.5,0,29c0,1.418-.2,1.609-1.639,1.609H15.287c-1.426,0-1.62-.194-1.62-1.626q0-28.9,0-57.8c0-1.419.188-1.6,1.638-1.6H58.329c1.444,0,1.621.176,1.621,1.62q0,14.4,0,28.808" transform="translate(-5.756 -13.973)" fill="#f4f2f7"/>
        <path id="Trazado_727719" data-name="Trazado 727719" d="M63.007,46.827c2.475,0,4.951-.005,7.426,0,1.049,0,1.607.456,1.621,1.275.014.854-.578,1.355-1.655,1.356q-7.379.009-14.758,0c-1.078,0-1.68-.5-1.67-1.343s.572-1.287,1.7-1.29c2.444-.006,4.888,0,7.332,0" transform="translate(-22.73 -19.721)"/>
        <path id="Trazado_727720" data-name="Trazado 727720" d="M63.005,80.47c-2.475,0-4.95,0-7.425,0-1.053,0-1.6-.451-1.61-1.282-.008-.814.573-1.345,1.578-1.347q7.472-.018,14.944,0c1,0,1.578.543,1.562,1.361s-.568,1.264-1.624,1.267c-2.475.007-4.95,0-7.425,0" transform="translate(-22.73 -32.779)" fill="#010101"/>
        <path id="Trazado_727721" data-name="Trazado 727721" d="M63.009,108.971q3.666,0,7.332,0c1.148,0,1.7.417,1.713,1.271s-.579,1.36-1.658,1.361q-7.378.012-14.757,0c-1.078,0-1.679-.51-1.668-1.353s.574-1.277,1.707-1.279q3.666-.005,7.332,0" transform="translate(-22.73 -45.894)"/>
        <path id="Trazado_727722" data-name="Trazado 727722" d="M62.992,60.917c-2.444,0-4.888,0-7.332,0-1.107,0-1.687-.462-1.689-1.31s.6-1.322,1.685-1.323q7.379-.006,14.758,0c1.071,0,1.667.512,1.64,1.365-.025.813-.593,1.264-1.636,1.266-2.475.007-4.951,0-7.426,0" transform="translate(-22.731 -24.545)"/>
        <path id="Trazado_727723" data-name="Trazado 727723" d="M63.02,92.015q-3.524,0-7.049,0a4.512,4.512,0,0,1-.933-.06,1.2,1.2,0,0,1-1.054-1.338A1.188,1.188,0,0,1,55.169,89.4c.467-.041.939-.021,1.408-.021,4.605,0,9.21.006,13.815-.006.8,0,1.447.185,1.644,1.051.206.9-.461,1.578-1.593,1.585-2.475.017-4.95.005-7.424.006" transform="translate(-22.735 -37.641)" fill="#010101"/>
        <path id="Trazado_727724" data-name="Trazado 727724" d="M63.108,120.41q3.619,0,7.238,0c1.1,0,1.693.458,1.708,1.3.016.854-.568,1.335-1.661,1.336q-7.379.007-14.759,0c-1.09,0-1.678-.485-1.663-1.335s.608-1.3,1.709-1.3q3.714-.006,7.426,0" transform="translate(-22.731 -50.712)"/>
        <path id="Trazado_727725" data-name="Trazado 727725" d="M23.578,50.436a1.879,1.879,0,0,1,1.492.686c.615.559,1.118,1.635,1.823,1.578.623-.05,1.172-1.035,1.749-1.611,1.222-1.218,2.438-2.443,3.665-3.658.73-.723,1.479-.813,2.062-.271.643.6.6,1.355-.172,2.128Q31.112,52.395,28,55.478c-.86.854-1.471.849-2.333,0-.939-.924-1.876-1.852-2.793-2.8a1.209,1.209,0,0,1-.271-1.466,1.262,1.262,0,0,1,.971-.778" transform="translate(-9.463 -19.716)"/>
        <path id="Trazado_727726" data-name="Trazado 727726" d="M34.577,79.065a1.615,1.615,0,0,1-.549,1.25c-2.1,2.1-4.2,4.216-6.311,6.306a1.344,1.344,0,0,1-2.2-.009q-1.379-1.343-2.722-2.723A1.332,1.332,0,1,1,24.647,82a16.233,16.233,0,0,1,1.388,1.4c.416.5.692.5,1.158.021,1.653-1.711,3.353-3.376,5.037-5.056A1.3,1.3,0,0,1,33.76,78a1.361,1.361,0,0,1,.817,1.063" transform="translate(-9.38 -32.802)"/>
        <path id="Trazado_727727" data-name="Trazado 727727" d="M34.337,110.311a1.344,1.344,0,0,1-.5,1.025c-2.128,2.127-4.246,4.263-6.388,6.376a1.314,1.314,0,0,1-2.128-.014q-1.387-1.339-2.73-2.721a1.349,1.349,0,0,1-.123-2.061c.571-.537,1.288-.471,1.992.183.046.043.087.091.134.131.631.546,1.12,1.631,1.833,1.587.617-.039,1.181-1.013,1.758-1.585q1.934-1.921,3.858-3.854a1.314,1.314,0,0,1,1.549-.31,1.209,1.209,0,0,1,.746,1.242" transform="translate(-9.285 -45.882)"/>
      </g>
    </g>
  </g>
</svg>
