<svg xmlns="http://www.w3.org/2000/svg" xmlns:xlink="http://www.w3.org/1999/xlink" width="107" height="114" viewBox="0 0 107 114">
  <defs>
    <clipPath id="clip-path">
      <rect id="Rect치ngulo_340706" data-name="Rect치ngulo 340706" width="87.077" height="98.899" fill="none"/>
    </clipPath>
  </defs>
  <g id="Grupo_983983" data-name="Grupo 983983" transform="translate(-209 -441)">
    <g id="Rect치ngulo_340695" data-name="Rect치ngulo 340695" transform="translate(209 441)" fill="none" stroke="#39a900" stroke-width="3">
      <rect width="107" height="114" rx="8" stroke="none"/>
      <rect x="1.5" y="1.5" width="104" height="111" rx="6.5" fill="none"/>
    </g>
    <g id="Grupo_983988" data-name="Grupo 983988" transform="translate(219 449)">
      <g id="Grupo_983987" data-name="Grupo 983987" clip-path="url(#clip-path)">
        <path id="Trazado_727732" data-name="Trazado 727732" d="M50.083,97.414a1.679,1.679,0,0,1-1.936,1.479Q25.023,98.871,1.9,98.881c-1.224,0-1.9-.53-1.9-1.467s.674-1.472,1.89-1.476c1.962-.006,3.924-.021,5.885.01.565.009.75-.151.86-.731a12.149,12.149,0,0,1,5.654-8.341,2.024,2.024,0,0,0,.817-.9,9.7,9.7,0,0,1,8.762-6,1.064,1.064,0,0,0,.957-.606,8.9,8.9,0,0,1,7.835-4.456,1.062,1.062,0,0,0,.969-.435A12.159,12.159,0,0,1,41.4,69.713c.621-.113.68-.357.677-.873-.018-3.363-.033-6.727.009-10.089.009-.73-.246-.85-.895-.845-2.972.023-5.946.144-8.843-.808a18.777,18.777,0,0,1-8.2-5.257c-.9-.994-.929-1.475-.151-2.57a1.737,1.737,0,0,1,2.315.553,15.635,15.635,0,0,0,4.357,3.409c3.444,1.907,7.2,1.794,10.945,1.738.489-.008.459-.308.459-.631,0-1.225.035-2.451-.007-3.675A15.417,15.417,0,0,0,34.2,37.272c-3.53-2.141-7.452-2.158-11.391-2.077-.438.008-.524.215-.518.586.037,2.479-.2,4.98.471,7.412a1.659,1.659,0,0,1-.9,2.172,1.617,1.617,0,0,1-1.953-1.419,29.532,29.532,0,0,1-.56-7.619c0-.841-.012-1.681,0-2.521a1.349,1.349,0,0,1,1.316-1.495c4.433-.076,8.895-.412,13.123,1.469a19.273,19.273,0,0,1,8.268,6.977c0-2.283,0-4.32,0-6.358,0-.361-.341-.509-.55-.728a45.343,45.343,0,0,1-5.243-5.718,18.047,18.047,0,0,1-2.631-5.9c-.278-1.167-.063-1.594,1.072-2.131a1.505,1.505,0,0,1,1.708,1.216c.915,4.193,3.692,7.13,6.667,9.942.371.351.592.344.933-.013,1.039-1.088,2.175-2.091,3.15-3.232a15.36,15.36,0,0,0,3.57-13.482c-.846-4.474-3.773-7.543-6.9-10.5-.238-.225-.4-.175-.612.03-2.89,2.776-5.741,5.578-6.68,9.695-.227.993-.713,1.667-1.843,1.621-1.183-.608-1.372-.992-1.048-2.25a17.965,17.965,0,0,1,4.54-8.158Q40.238,2.679,42.346.621c.774-.759,1.516-.842,2.221-.143a58.61,58.61,0,0,1,5.684,5.9A18.458,18.458,0,0,1,48.8,30.424c-1.072,1.108-2.184,2.179-3.266,3.277-.235.238-.533.425-.53.851.018,1.979.008,3.957.008,6.2a19.922,19.922,0,0,1,4.03-4.425A18.555,18.555,0,0,1,60.5,32.267c1.787-.035,3.575-.024,5.363-.007,1.341.013,1.881.531,1.857,1.843-.063,3.353.269,6.722-.6,10.039A18.524,18.524,0,0,1,49.9,57.9c-1.366.042-2.735.036-4.1.01-.545-.011-.807.075-.8.722.032,3.435.025,6.871,0,10.306,0,.522.149.672.674.769a12.19,12.19,0,0,1,7.772,4.771,1.064,1.064,0,0,0,.97.435,8.906,8.906,0,0,1,7.836,4.463,1.067,1.067,0,0,0,.964.6,9.714,9.714,0,0,1,8.72,5.918,2.231,2.231,0,0,0,.87.989,12.166,12.166,0,0,1,5.637,8.361c.112.611.348.711.883.7,1.963-.025,3.926-.015,5.889-.008,1.2,0,1.886.574,1.862,1.507-.023.891-.695,1.434-1.827,1.435-5.61.006-11.219,0-16.828.009a1.575,1.575,0,0,1-1.814-1.469c.148-1.118.83-1.509,1.9-1.493,2.067.031,4.136-.018,6.2.023.743.015.9-.19.7-.9a9.422,9.422,0,0,0-4.575-5.89,2.491,2.491,0,0,1-1.349-1.382,6.623,6.623,0,0,0-5.691-4.794,6.718,6.718,0,0,0-6.588,2.871c-.662.872-1.43,1.026-2.165.484a1.5,1.5,0,0,1-.2-2.225,9.224,9.224,0,0,1,3.924-3.233c.686-.3.643-.56.19-1.033a5.935,5.935,0,0,0-5.311-1.927,1.848,1.848,0,0,1-2.027-.9c-4.079-6.119-12.066-6.1-16.175.031a1.781,1.781,0,0,1-1.94.878,5.957,5.957,0,0,0-5.33,1.871c-.479.488-.574.774.177,1.1a9,9,0,0,1,3.967,3.337,1.46,1.46,0,0,1-.8,2.349c-.872.232-1.335-.33-1.814-.934a6.672,6.672,0,0,0-6.371-2.683,6.594,6.594,0,0,0-5.624,4.456,3.117,3.117,0,0,1-1.514,1.76,9.16,9.16,0,0,0-4.419,5.511c-.39,1.239-.381,1.243.95,1.243q17.661,0,35.321-.011c1.1,0,1.84.332,2.036,1.49M48.244,54.968c6.394.132,11.291-2.475,14.579-8,2.094-3.518,2.051-7.415,1.962-11.317-.011-.486-.323-.455-.644-.454-1.261,0-2.523-.037-3.783.015a15.532,15.532,0,0,0-12.98,7.33c-2.416,3.661-2.5,7.777-2.373,11.94.013.464.268.487.611.484.875-.006,1.751,0,2.627,0" transform="translate(0 0)" fill="#030302"/>
        <path id="Trazado_727733" data-name="Trazado 727733" d="M54.925,127.775c-.2-1.158-.936-1.491-2.036-1.49q-17.66.029-35.321.011c-1.33,0-1.34,0-.95-1.243a9.156,9.156,0,0,1,4.419-5.51,3.118,3.118,0,0,0,1.514-1.761,6.594,6.594,0,0,1,5.624-4.456,6.672,6.672,0,0,1,6.371,2.683c.479.6.942,1.165,1.814.934a1.461,1.461,0,0,0,.8-2.349,9,9,0,0,0-3.967-3.337c-.75-.325-.656-.612-.177-1.1a5.958,5.958,0,0,1,5.33-1.871,1.781,1.781,0,0,0,1.94-.878c4.109-6.133,12.1-6.15,16.175-.031a1.847,1.847,0,0,0,2.027.9,5.935,5.935,0,0,1,5.311,1.927c.452.473.5.734-.19,1.033a9.224,9.224,0,0,0-3.924,3.233,1.5,1.5,0,0,0,.2,2.225c.736.541,1.5.387,2.165-.485a6.719,6.719,0,0,1,6.589-2.871,6.623,6.623,0,0,1,5.691,4.794,2.491,2.491,0,0,0,1.349,1.382,9.422,9.422,0,0,1,4.575,5.89c.206.715.047.919-.7.9-2.067-.039-4.135.008-6.2-.023-1.074-.016-1.755.375-1.9,1.493h-4.7a1.6,1.6,0,0,0-1.9-1.49c-1.082.034-2.169.049-3.25,0a1.754,1.754,0,0,0-2.057,1.483l-4.621.007M48.4,111.32c-1.237,0-1.895.493-1.909,1.44-.013.921.712,1.507,1.872,1.511,1.178,0,1.9-.552,1.909-1.474.01-.952-.652-1.473-1.872-1.477m-8.873,8.414c-1.221,0-1.881.525-1.869,1.478.011.923.73,1.478,1.909,1.473,1.158,0,1.886-.593,1.872-1.513-.015-.945-.675-1.442-1.911-1.438m17.76,0c-1.307-.013-1.981.5-1.96,1.492.019.887.712,1.442,1.819,1.459,1.191.017,1.917-.51,1.96-1.423.044-.956-.623-1.516-1.819-1.528" transform="translate(-4.842 -30.361)" fill="#b26515"/>
        <path id="Trazado_727734" data-name="Trazado 727734" d="M49.165,16.756c1.129.044,1.616-.629,1.842-1.621.94-4.117,3.792-6.919,6.68-9.695.214-.206.375-.255.614-.03,3.124,2.959,6.051,6.027,6.9,10.5a15.361,15.361,0,0,1-3.57,13.482c-.976,1.14-2.111,2.144-3.15,3.232-.341.357-.562.364-.933.013-2.975-2.813-5.753-5.749-6.667-9.942a1.505,1.505,0,0,0-1.708-1.216,15.225,15.225,0,0,1,0-4.725" transform="translate(-14.467 -1.554)" fill="#a9e034"/>
        <path id="Trazado_727735" data-name="Trazado 727735" d="M31.022,60.107a1.658,1.658,0,0,0,.9-2.172c-.67-2.432-.433-4.933-.471-7.412-.006-.371.08-.577.518-.586,3.94-.081,7.862-.064,11.391,2.077A15.415,15.415,0,0,1,51.22,65.407c.042,1.224.006,2.45.007,3.675,0,.323.03.624-.459.631-3.75.056-7.5.169-10.945-1.738a15.608,15.608,0,0,1-4.356-3.409,1.739,1.739,0,0,0-2.315-.553,17.19,17.19,0,0,1-2.13-3.905" transform="translate(-9.162 -14.742)" fill="#aae034"/>
        <path id="Trazado_727736" data-name="Trazado 727736" d="M77.632,137.61a1.754,1.754,0,0,1,2.057-1.483c1.081.054,2.168.039,3.251,0a1.6,1.6,0,0,1,1.9,1.49,1.564,1.564,0,0,1-1.807,1.47c-1.118-.023-2.239-.046-3.355.006a1.739,1.739,0,0,1-2.043-1.488" transform="translate(-22.928 -40.203)" fill="#030302"/>
        <path id="Trazado_727737" data-name="Trazado 727737" d="M67.093,69.718c-.876,0-1.752,0-2.627,0-.343,0-.6-.02-.611-.484-.123-4.163-.043-8.28,2.373-11.94a15.532,15.532,0,0,1,12.98-7.33c1.259-.053,2.522-.013,3.783-.015.321,0,.633-.032.644.454.088,3.9.132,7.8-1.962,11.317-3.287,5.521-8.185,8.128-14.579,8" transform="translate(-18.849 -14.749)" fill="#a9e034"/>
        <path id="Trazado_727738" data-name="Trazado 727738" d="M61.012,114.892c1.22,0,1.881.525,1.872,1.477-.01.922-.731,1.479-1.909,1.474-1.16,0-1.886-.59-1.872-1.511.013-.947.671-1.443,1.909-1.44" transform="translate(-17.456 -33.933)" fill="#070401"/>
        <path id="Trazado_727739" data-name="Trazado 727739" d="M48.436,126.832c1.236,0,1.9.493,1.911,1.438.015.92-.713,1.509-1.872,1.513-1.178,0-1.9-.55-1.909-1.473-.011-.953.648-1.474,1.869-1.478" transform="translate(-13.753 -37.46)" fill="#070401"/>
        <path id="Trazado_727740" data-name="Trazado 727740" d="M73.6,126.832c1.2.013,1.862.573,1.819,1.528-.042.913-.769,1.44-1.96,1.423-1.107-.017-1.8-.572-1.819-1.459-.021-.993.653-1.506,1.96-1.492" transform="translate(-21.159 -37.459)" fill="#070401"/>
      </g>
    </g>
  </g>
</svg>
