<svg xmlns="http://www.w3.org/2000/svg" xmlns:xlink="http://www.w3.org/1999/xlink" width="80" height="86" viewBox="0 0 80 86">
  <defs>
    <clipPath id="clip-path">
      <rect id="Rect치ngulo_340719" data-name="Rect치ngulo 340719" width="48.627" height="58.722" fill="none"/>
    </clipPath>
  </defs>
  <g id="Grupo_984000" data-name="Grupo 984000" transform="translate(-209 -441)">
    <g id="Rect치ngulo_340695" data-name="Rect치ngulo 340695" transform="translate(209 441)" fill="none" stroke="#0e494d" stroke-width="3">
      <rect width="80" height="86" rx="8" stroke="none"/>
      <rect x="1.5" y="1.5" width="77" height="83" rx="6.5" fill="none"/>
    </g>
    <g id="Grupo_984005" data-name="Grupo 984005" transform="translate(225 455)">
      <g id="Grupo_984005-2" data-name="Grupo 984005" transform="translate(0 0)" clip-path="url(#clip-path)">
        <path id="Trazado_727743" data-name="Trazado 727743" d="M0,29.3Q0,17.134,0,4.967A4.728,4.728,0,0,1,3,.326,4.211,4.211,0,0,1,4.563.007Q19.709.006,34.855,0a1.5,1.5,0,0,1,1.113.473q6.138,6.133,12.284,12.258a1.477,1.477,0,0,1,.374,1.148q-.007,11.034,0,22.067,0,8.917,0,17.833a4.711,4.711,0,0,1-3.933,4.881,5.581,5.581,0,0,1-1.009.06q-19.38,0-38.76,0A4.7,4.7,0,0,1,0,53.814Q-.008,41.557,0,29.3" transform="translate(0 0)"/>
        <path id="Trazado_727744" data-name="Trazado 727744" d="M3.8,51.636c-.007-.218-.021-.436-.021-.654q0-22.244,0-44.486c0-1.868.869-2.747,2.722-2.748q14.041,0,28.082-.013c.556,0,.687.155.681.694-.029,2.465-.018,4.93-.011,7.395a4.116,4.116,0,0,0,4.376,4.36c.615,0,1.23.017,1.846.026a.908.908,0,0,1,.189.667c.008,1.326.01,2.651,0,3.977a.987.987,0,0,1-.153.622,1.874,1.874,0,0,1-1.157.168q-15.169.007-30.338,0c-.278,0-.557,0-.835.008-.435.005-.671.2-.663.649,0,.04,0,.08-.005.12-.052,1.135.028,1.222,1.171,1.222q15.318,0,30.636,0a2.1,2.1,0,0,1,1.165.148,3.726,3.726,0,0,1,.172,1.866,1.742,1.742,0,0,1-.182,1.264q-3.309.012-6.618.023c-1.243,0-1.612.364-1.612,1.586,0,2.6-.022,5.209.016,7.813.009.6-.175.708-.728.7-2.146-.033-4.293-.016-6.44-.012-1.163,0-1.546.383-1.547,1.528,0,1.849-.013,3.7.009,5.547.005.408-.093.542-.521.535q-2.653-.037-5.307,0c-.426.006-.523-.123-.521-.533.016-3.479.009-6.959.009-10.438,0-1.192-.386-1.582-1.565-1.582q-3.906,0-7.812,0c-1.3,0-1.676.368-1.677,1.655q0,8.589,0,17.178c0,.238-.02.475-.031.713a.756.756,0,0,1-.488.177q-1.178.032-2.355,0a.647.647,0,0,1-.483-.179" transform="translate(-1.412 -1.396)" fill="#e3f0fe"/>
        <path id="Trazado_727745" data-name="Trazado 727745" d="M60.942,58.854c0,4.511-.007,9.022.011,13.534,0,.483-.111.649-.62.641-1.728-.031-3.457-.024-5.186,0-.418.005-.538-.125-.537-.54Q54.622,58.8,54.6,45.12c0-.409.106-.548.531-.543,1.728.023,3.457.03,5.186,0,.489-.008.635.118.633.622-.02,4.551-.012,9.1-.012,13.653" transform="translate(-20.415 -16.666)" fill="#59dd9a"/>
        <path id="Trazado_727746" data-name="Trazado 727746" d="M63.979,34.356q0-1.542,0-3.085c.2-.215.479-.157.729-.182a.508.508,0,0,0,.524-.53c.008-.139.009-.278.009-.417.006-.95.006-.95-.949-1.113a.47.47,0,0,1-.314-.151l0-5.241c1.947-.009,3.893-.013,5.839-.031.289,0,.4.1.366.377a3.1,3.1,0,0,0,0,.358q0,19.078,0,38.156a2.508,2.508,0,0,1-3.074,2.7c-.224-.029-.321-.1-.312-.326.006-.179,0-.358,0-.537q0-14.1,0-28.2c0-1.428-.331-1.759-1.745-1.762-.357,0-.714-.014-1.071-.022" transform="translate(-23.92 -8.826)" fill="#d8e5f2"/>
        <path id="Trazado_727747" data-name="Trazado 727747" d="M12.92,64.364c0-3.658.011-7.316-.012-10.974,0-.5.139-.625.627-.616,1.729.032,3.459.026,5.187.007.4,0,.547.077.545.515q-.02,11.123,0,22.246c0,.448-.123.572-.568.565q-2.593-.038-5.187,0c-.459.007-.6-.111-.6-.59.02-3.717.011-7.435.011-11.153Z" transform="translate(-4.826 -19.731)" fill="#e9bb5b"/>
        <path id="Trazado_727748" data-name="Trazado 727748" d="M40.745,77.226c-.008-3.388-.021-6.775-.021-10.163,0-2.1.019-4.2.029-6.3a34.523,34.523,0,0,1,3.5-.056c1.431-.018,1.432,0,1.432,1.424,0,3.117.007,6.234,0,9.351A6.075,6.075,0,0,1,41.427,77.2c-.222.067-.448.188-.682.027" transform="translate(-15.226 -22.691)" fill="#2fcafe"/>
        <path id="Trazado_727749" data-name="Trazado 727749" d="M26.826,78.178c0-1.609.012-3.219-.009-4.827-.005-.4.083-.551.518-.545q2.651.038,5.3,0c.433-.006.522.142.52.543q-.022,4.827,0,9.656c0,.423-.081.589-.55.581q-2.621-.042-5.244,0c-.474.008-.551-.165-.545-.584.021-1.609.009-3.218.009-4.827Z" transform="translate(-10.026 -27.22)" fill="#fe5974"/>
        <path id="Trazado_727750" data-name="Trazado 727750" d="M40.737,77.2a5.974,5.974,0,0,0,4.549-4.229,4.176,4.176,0,0,0,.214-1.279c0-3.432-.013-6.864.009-10.3,0-.516-.121-.687-.659-.672-1.367.039-2.737.013-4.1.013.128-.192.326-.1.49-.1,1.748-.006,3.5.011,5.243-.009.425-.005.581.083.58.55q-.025,8.642,0,17.284c0,.431-.1.584-.557.576-1.748-.027-3.5-.021-5.243,0-.4,0-.587-.086-.549-.523s.021-.873.029-1.309" transform="translate(-15.218 -22.66)" fill="#2dc0f2"/>
        <path id="Trazado_727751" data-name="Trazado 727751" d="M65.931,14.912c-2.071,0-4.255.011-6.44-.005a1.66,1.66,0,0,1-1.7-1.594c-.054-2.216-.018-4.434-.018-6.646l8.155,8.245" transform="translate(-21.597 -2.493)" fill="#c6d5e4"/>
        <path id="Trazado_727752" data-name="Trazado 727752" d="M3.8,80.239l3.327,0q.015,2.891.032,5.782c0,.2-.038.314-.284.353a2.5,2.5,0,0,1-3.094-2.619c0-1.173.013-2.345.02-3.518" transform="translate(-1.413 -29.999)" fill="#d8e5f2"/>
        <path id="Trazado_727753" data-name="Trazado 727753" d="M44.176,32.026c1.552.035,1.432-.252,1.434,1.225,0,1.163,0,1.163-1.137,1.165l-.3,0-32.2,0c-.932,0-.959-.034-.965-.984-.009-1.464-.082-1.4,1.382-1.4q15.889.006,31.778,0" transform="translate(-4.117 -11.973)" fill="#c6d5e4"/>
        <path id="Trazado_727754" data-name="Trazado 727754" d="M18.717,14.248c-2.325,0-4.65-.014-6.974.01-.55.006-.734-.172-.719-.721.053-1.885-.254-1.639,1.651-1.643q6.407-.014,12.816,0c.823,0,.873.049.877.875.006,1.483.006,1.483-1.452,1.483h-6.2" transform="translate(-4.121 -4.444)" fill="#f3556f"/>
        <path id="Trazado_727755" data-name="Trazado 727755" d="M11.024,23.6c-.024-1.88-.141-1.672,1.638-1.672q10.571,0,21.142.006a1.772,1.772,0,0,1-1.558,1.7,6.1,6.1,0,0,1-.95.033q-9.434,0-18.868-.008c-.465,0-.945.178-1.4-.059" transform="translate(-4.118 -8.197)" fill="#c7d6e4"/>
        <path id="Trazado_727756" data-name="Trazado 727756" d="M11.025,23.609a5.913,5.913,0,0,1,1.653-.121H31.7A1.949,1.949,0,0,0,33.8,21.944c.832-.01.832-.01.833.8,0,1.574,0,1.574-1.559,1.574q-10.624,0-21.248.006c-.515,0-.873-.1-.805-.719" transform="translate(-4.119 -8.203)" fill="#beccda"/>
      </g>
    </g>
  </g>
</svg>
