<svg xmlns="http://www.w3.org/2000/svg" xmlns:xlink="http://www.w3.org/1999/xlink" width="80" height="86" viewBox="0 0 80 86">
  <defs>
    <clipPath id="clip-path">
      <rect id="Rect치ngulo_340720" data-name="Rect치ngulo 340720" width="57.844" height="70.026" fill="none"/>
    </clipPath>
  </defs>
  <g id="Grupo_984001" data-name="Grupo 984001" transform="translate(-209 -441)">
    <g id="Rect치ngulo_340695" data-name="Rect치ngulo 340695" transform="translate(209 441)" fill="none" stroke="#0e494d" stroke-width="3">
      <rect width="80" height="86" rx="8" stroke="none"/>
      <rect x="1.5" y="1.5" width="77" height="83" rx="6.5" fill="none"/>
    </g>
    <g id="Grupo_984006" data-name="Grupo 984006" transform="translate(220 449)">
      <g id="Grupo_984006-2" data-name="Grupo 984006" clip-path="url(#clip-path)">
        <path id="Trazado_727757" data-name="Trazado 727757" d="M36.329,128.588a1.476,1.476,0,0,1-.781-1.462c.022-1.641-.008-3.281.011-4.922a8.831,8.831,0,0,1,8.271-8.956,39.475,39.475,0,0,1,7.711.026,8.8,8.8,0,0,1,7.491,7.966c.115,2.044.042,4.1.07,6.149a1.384,1.384,0,0,1-.752,1.2Z" transform="translate(-18.411 -58.562)"/>
        <path id="Trazado_727758" data-name="Trazado 727758" d="M59.225,0a1.419,1.419,0,0,1,.69,1.425c-.043.632,0,1.269-.014,1.9a1.026,1.026,0,1,1-2.044-.007c-.013-.634.031-1.271-.013-1.9A1.373,1.373,0,0,1,58.541,0Z" transform="translate(-29.955)"/>
        <path id="Trazado_727759" data-name="Trazado 727759" d="M0,58.538a1.375,1.375,0,0,1,1.418-.7c.632.044,1.268,0,1.9.013A1.026,1.026,0,1,1,3.328,59.9c-.634.016-1.271-.029-1.9.013A1.416,1.416,0,0,1,0,59.222Z" transform="translate(0 -29.953)"/>
        <path id="Trazado_727760" data-name="Trazado 727760" d="M48.189,53.663c.254.837.142,1.155-.586,1.588a21.345,21.345,0,0,1-5.639,2.358,2.354,2.354,0,0,0-1.154.64,6.332,6.332,0,0,1-9.011-.059,1.984,1.984,0,0,0-.978-.556A22,22,0,1,1,58.088,33.169a21.308,21.308,0,0,1-6.149,18.686c-.571.592-.947.619-1.684.172-.547-.5-.543-.978.034-1.623a26.839,26.839,0,0,0,2.672-3.361,19.967,19.967,0,0,0,1.216-19.232,18.464,18.464,0,0,0-4.553-6.067,18.8,18.8,0,0,0-11.338-5.065,19.288,19.288,0,0,0-14.827,4.694,19.063,19.063,0,0,0-6.781,13,19.264,19.264,0,0,0,4.713,14.886,20.039,20.039,0,0,0,7.783,5.515c.648.265.551.241.656-.446.211-1.392-.413-2.011-1.623-2.647A16.723,16.723,0,0,1,19.176,39.2a16.807,16.807,0,0,1,2.862-12.791A1.336,1.336,0,0,1,24,25.8a1.357,1.357,0,0,1,.044,1.916,14.989,14.989,0,0,0,1.461,18.95,14.5,14.5,0,0,0,4.687,3.352.615.615,0,0,0,.876-.21,6.572,6.572,0,0,1,10.485-.089c.242.442.528.5,1,.267A14.622,14.622,0,0,0,51.2,38.174a14.263,14.263,0,0,0-3.979-12.1,13.663,13.663,0,0,0-3.1-2.545,14.5,14.5,0,0,0-7.839-2.2A14.324,14.324,0,0,0,28.111,23.8c-.226.153-.45.309-.684.449a1.206,1.206,0,0,1-1.76-.213c-.374-.846-.229-1.316.6-1.907a16.589,16.589,0,0,1,7.206-2.959A17.025,17.025,0,0,1,47.816,23.29a16.481,16.481,0,0,1,5.821,11.18A17.548,17.548,0,0,1,43.4,52.241a.746.746,0,0,0-.53.892,6.191,6.191,0,0,1,.013.888,4.938,4.938,0,0,0-.009.935,13.847,13.847,0,0,0,2.868-1.219c.347-.167.667-.4,1.021-.547a1.016,1.016,0,0,1,1.425.474" transform="translate(-7.415 -7.424)"/>
        <path id="Trazado_727761" data-name="Trazado 727761" d="M80.045,29.356A18.778,18.778,0,0,1,86.171,39.9,19.553,19.553,0,0,1,81,58.021c-.738.79-.786.957-.393,1.786a13.26,13.26,0,0,1-2.066,1.637,1.194,1.194,0,0,0-1.7-.154,18.328,18.328,0,0,1-3.923,1.782c.058-.434.111-.83.164-1.226a1.358,1.358,0,0,1,.53-.416,20.841,20.841,0,0,0,6.725-31.2c-.185-.247-.567-.457-.3-.873" transform="translate(-37.77 -15.204)" fill="#fcd230"/>
        <path id="Trazado_727762" data-name="Trazado 727762" d="M112.992,57.866c.408,0,.817-.02,1.224.005a1.016,1.016,0,0,1,.015,2.031c-.837.033-1.678.034-2.515,0a1.016,1.016,0,0,1,.053-2.03c.407-.023.816,0,1.224,0" transform="translate(-57.364 -29.966)" fill="#010101"/>
        <path id="Trazado_727763" data-name="Trazado 727763" d="M106.818,28.932a.991.991,0,0,1,.888.7.9.9,0,0,1-.323,1.1c-.766.486-1.556.941-2.362,1.356a.887.887,0,0,1-1.187-.378.853.853,0,0,1,.063-1.189,11.235,11.235,0,0,1,2.692-1.576.765.765,0,0,1,.229-.014" transform="translate(-53.67 -14.984)" fill="#010101"/>
        <path id="Trazado_727764" data-name="Trazado 727764" d="M31.162,11.854a1.028,1.028,0,0,1-.937-.571c-.375-.645-.761-1.284-1.117-1.939a1.01,1.01,0,0,1,.308-1.43.994.994,0,0,1,1.451.394c.417.672.829,1.351,1.185,2.056a1,1,0,0,1-.89,1.491" transform="translate(-14.989 -4.009)" fill="#010101"/>
        <path id="Trazado_727765" data-name="Trazado 727765" d="M11.844,31.128a.971.971,0,0,1-1.353.942A18.954,18.954,0,0,1,8.14,30.729.9.9,0,0,1,7.9,29.407a.917.917,0,0,1,1.293-.374c.74.388,1.457.821,2.179,1.244a.954.954,0,0,1,.471.851" transform="translate(-3.996 -14.969)" fill="#010101"/>
        <path id="Trazado_727766" data-name="Trazado 727766" d="M104.764,84.275a2.677,2.677,0,0,1,.47.166c.67.376,1.34.754,1.994,1.157a1.023,1.023,0,1,1-1.015,1.772q-1.042-.566-2.05-1.2A.945.945,0,0,1,103.744,85a1.055,1.055,0,0,1,1.02-.721" transform="translate(-53.699 -43.648)" fill="#010101"/>
        <path id="Trazado_727767" data-name="Trazado 727767" d="M87.593,8.832a2.936,2.936,0,0,1-.183.511c-.363.652-.731,1.3-1.12,1.938a1.048,1.048,0,0,1-1.447.455,1.023,1.023,0,0,1-.328-1.471q.555-1.01,1.158-1.994a.95.95,0,0,1,1.163-.458,1.068,1.068,0,0,1,.757,1.02" transform="translate(-43.682 -4.019)" fill="#010101"/>
        <path id="Trazado_727768" data-name="Trazado 727768" d="M8.884,87.56a1.129,1.129,0,0,1-1.06-.7.9.9,0,0,1,.333-1.144c.76-.486,1.552-.926,2.351-1.348a.876.876,0,0,1,1.1.277.847.847,0,0,1,.128,1.126A8.98,8.98,0,0,1,8.884,87.56" transform="translate(-4.012 -43.644)" fill="#010101"/>
        <path id="Trazado_727769" data-name="Trazado 727769" d="M57.292,128.778c-1.345.069-1.345.069-1.345-1.266,0-.843.011-1.685-.005-2.528a1.1,1.1,0,0,0-1.058-1.188,1.134,1.134,0,0,0-1.132,1.2c-.021,1.093-.026,2.187,0,3.28.011.43-.134.534-.546.53-2.346-.018-4.693-.023-7.038,0-.489.006-.556-.19-.548-.6.021-1.047.024-2.1,0-3.143-.02-.932-.7-1.467-1.467-1.194a1.06,1.06,0,0,0-.729,1.112c0,1.093-.016,2.187.005,3.28.009.415-.125.56-.546.543-.774-.029-1.549-.009-2.323-.008-.213,0-.43.008-.423-.3a30.668,30.668,0,0,1,.142-5.317,6.529,6.529,0,0,1,6.243-5.34,48.688,48.688,0,0,1,7.1.023,2.064,2.064,0,0,1,.385.114,6.446,6.446,0,0,1,2.8,3.129,8.806,8.806,0,0,1,.807,3.769c-.008,1.022.007,2.045-.007,3.067,0,.307.057.656-.314.832" transform="translate(-20.765 -60.973)" fill="#5bbc92"/>
        <path id="Trazado_727770" data-name="Trazado 727770" d="M72.24,129.053a.191.191,0,0,0,.029-.061c.149-3.009.508-6.052-1.377-8.739a15.25,15.25,0,0,0-1.937-2,6.563,6.563,0,0,1,5.187,5.833c.073,1.5.019,3,.045,4.5.007.4-.142.516-.517.493-.475-.029-.953-.02-1.429-.027" transform="translate(-35.713 -61.247)" fill="#2db17f"/>
        <path id="Trazado_727771" data-name="Trazado 727771" d="M48.8,57.131a6.509,6.509,0,0,0-4.814-2.491,6.191,6.191,0,0,0-5.514,2.691.579.579,0,0,1-.868.231,15.193,15.193,0,0,1-6.432-22.511c.43-.622.672-1.185.122-1.838a.294.294,0,0,1,.088-.366,8.321,8.321,0,0,1,1.729-1.6c.726.584.954.565,1.806,0a14.954,14.954,0,0,1,16.37-.734,2.16,2.16,0,0,1,.269.2,15.457,15.457,0,0,1,5.657,12.015,15.779,15.779,0,0,1-2.4,8.9,15.948,15.948,0,0,1-5.135,5.213c-.265.166-.521.388-.877.282" transform="translate(-14.761 -14.724)" fill="#f8c42d"/>
        <path id="Trazado_727772" data-name="Trazado 727772" d="M27.933,26.128l-1.816,1.962c-.865-.341-1.17-.247-1.723.53A17.232,17.232,0,0,0,31.6,54.3c.477.209.629.422.558.939a5.321,5.321,0,0,0,.155,2.243,18.706,18.706,0,0,1-7.493-4.466c-5.664-5.607-7.647-12.37-5.444-20.009s7.475-12.415,15.26-14.022a18.988,18.988,0,0,1,17.219,4.77c-.044.463.37.666.59.956a20.881,20.881,0,0,1,2.675,20.759,20.362,20.362,0,0,1-5.159,7.37,16.993,16.993,0,0,1-5.061,3.4c-.254-1.162.105-1.78,1.288-2.358a17.075,17.075,0,0,0,9.469-17.114A17.28,17.28,0,0,0,37.473,21.321a17.082,17.082,0,0,0-9.008,3.189c-.732.523-.81.777-.532,1.617" transform="translate(-9.581 -9.601)" fill="#fce265"/>
        <path id="Trazado_727773" data-name="Trazado 727773" d="M70.613,59.588a16.087,16.087,0,0,0,8.18-12.257A16.088,16.088,0,0,0,76.55,37.063a27.554,27.554,0,0,0-3.182-3.89,14.585,14.585,0,0,1,6.557,8.241,15.2,15.2,0,0,1-8.239,18.561c-.555.25-.882.206-1.073-.387" transform="translate(-36.572 -17.181)" fill="#e6b629"/>
        <path id="Trazado_727774" data-name="Trazado 727774" d="M54.584,95.564a3.854,3.854,0,0,1-3.1-2.823,3.932,3.932,0,0,1,1.151-4.29,3.891,3.891,0,0,1,4.161-.872,2,2,0,0,1,.713.966,5.466,5.466,0,0,1-2.043,6.783,1.046,1.046,0,0,1-.88.236" transform="translate(-26.552 -45.224)" fill="#5bbc92"/>
        <path id="Trazado_727775" data-name="Trazado 727775" d="M58.148,95.845a5.117,5.117,0,0,0,3.167-4.3,6.062,6.062,0,0,0-.958-3.682,4.146,4.146,0,0,1-2.209,7.985" transform="translate(-30.116 -45.505)" fill="#2db17f"/>
        <path id="Trazado_727776" data-name="Trazado 727776" d="M57.646,53.586a1.37,1.37,0,0,0-.938-1.157c-.7-.324-1.442-.555-2.143-.877-2.3-1.058-2.924-3.5-1.361-5.272a1.186,1.186,0,0,1,.291-.286c.814-.43,1.461-.911,1.409-2.009-.02-.434.511-.655,1-.616a.905.905,0,0,1,.875.729,2.282,2.282,0,0,1,.05.678.476.476,0,0,0,.427.569,4.668,4.668,0,0,1,1.631.831,1.061,1.061,0,0,1,.344,1.489,1.022,1.022,0,0,1-1.5.2,2.952,2.952,0,0,0-1.892-.658,1.411,1.411,0,0,0-1.388,1c-.146.685.258,1.062.779,1.367a11.568,11.568,0,0,0,1.957.786,3.5,3.5,0,0,1,2.513,3.23,3.71,3.71,0,0,1-2.279,3.637.838.838,0,0,0-.6.959c.021.786-.355,1.2-.989,1.207s-1.041-.4-1.037-1.167c0-.49-.1-.731-.642-.808a3.954,3.954,0,0,1-1.558-.663,1.026,1.026,0,0,1-.414-1.412,1,1,0,0,1,1.423-.354,3.97,3.97,0,0,0,2.283.561,1.842,1.842,0,0,0,1.761-1.967" transform="translate(-26.954 -22.459)"/>
      </g>
    </g>
  </g>
</svg>
