<svg xmlns="http://www.w3.org/2000/svg" xmlns:xlink="http://www.w3.org/1999/xlink" width="80" height="86" viewBox="0 0 80 86">
  <defs>
    <clipPath id="clip-path">
      <rect id="Rect치ngulo_340696" data-name="Rect치ngulo 340696" width="46.715" height="66.308" fill="none"/>
    </clipPath>
  </defs>
  <g id="Grupo_984002" data-name="Grupo 984002" transform="translate(-209 -441)">
    <g id="Rect치ngulo_340695" data-name="Rect치ngulo 340695" transform="translate(209 441)" fill="none" stroke="#0e494d" stroke-width="3">
      <rect width="80" height="86" rx="8" stroke="none"/>
      <rect x="1.5" y="1.5" width="77" height="83" rx="6.5" fill="none"/>
    </g>
    <g id="Grupo_983982" data-name="Grupo 983982" transform="translate(225.546 450.777)">
      <g id="Grupo_983981" data-name="Grupo 983981" clip-path="url(#clip-path)">
        <path id="Trazado_727710" data-name="Trazado 727710" d="M45.734,59.484c.819.344,1,.677.818,1.531A6.629,6.629,0,0,1,40.2,66.285q-16.815.042-33.631,0a6.615,6.615,0,0,1-6.552-6.4C0,59.651,0,59.415,0,59.179Q0,37.336,0,15.493A6.716,6.716,0,0,1,4.929,8.716a11.421,11.421,0,0,1,3.306-.209c.451.007.55-.13.54-.555-.028-1.2-.013-2.407-.009-3.611,0-.99.325-1.321,1.309-1.323,2.643-.005,5.287-.011,7.93.007a.879.879,0,0,0,.89-.484,5.182,5.182,0,0,1,8.917,0,.881.881,0,0,0,.888.488c2.62-.019,5.239-.011,7.859-.008,1.078,0,1.383.311,1.385,1.391,0,1.157.025,2.314-.011,3.469-.015.482.1.643.608.632a12.609,12.609,0,0,1,2.822.114A6.71,6.71,0,0,1,46.7,14.857a1.088,1.088,0,0,1-.7,1.177c-.848.222-1.235,0-1.434-.843-.082-.344-.125-.7-.209-1.041a4.336,4.336,0,0,0-4.3-3.434q-16.672-.022-33.345,0A4.455,4.455,0,0,0,2.2,15.073c-.021.259-.017.519-.017.778q0,21.558,0,43.115a6.952,6.952,0,0,0,.11,1.408,4.428,4.428,0,0,0,4.513,3.715q10.23.014,20.461,0,6.159,0,12.319,0A4.5,4.5,0,0,0,44.4,60.541c.3-.962.6-1.2,1.335-1.057" transform="translate(0 0)"/>
        <path id="Trazado_727711" data-name="Trazado 727711" d="M48.3,73.072a1.146,1.146,0,0,0-1.128,1.055A4.622,4.622,0,0,1,42.46,77.9q-16.537.01-33.073,0a4.659,4.659,0,0,1-4.828-4.822q-.014-22.1,0-44.192A4.646,4.646,0,0,1,9.38,24.069q16.537-.01,33.074,0a4.663,4.663,0,0,1,4.828,4.383c.1.971.329,1.181,1.283,1.172-.283.174-.273.448-.271.733.008,1.21.006,2.421.007,3.631a2.288,2.288,0,0,0-.788,2.13c.033,2.333.04,4.668,0,7a1.827,1.827,0,0,0,.918,1.944,4.115,4.115,0,0,0-.123,1.738c-.028.87,0,1.741,0,2.612a2.042,2.042,0,0,0-.782,1.974q.031,7.659,0,15.318c0,.851.084,1.582.91,2.022a3.445,3.445,0,0,0-.125,1.595c-.026.916,0,1.834,0,2.751" transform="translate(-2.57 -13.588)" fill="#98bbe6"/>
        <path id="Trazado_727712" data-name="Trazado 727712" d="M103.863,101.6c-.862-.076-1.131-.343-1.132-1.189q-.007-8.462-.007-16.924a1.059,1.059,0,0,1,1.014-1.2,1.11,1.11,0,0,1,.977,1.253q-.009,8.425,0,16.851a1.079,1.079,0,0,1-.849,1.21" transform="translate(-58.003 -46.463)"/>
        <path id="Trazado_727713" data-name="Trazado 727713" d="M103.855,57.931c-.859-.077-1.128-.346-1.13-1.187-.007-2.869.01-5.739-.012-8.609a1.122,1.122,0,0,1,1.015-1.279,1.169,1.169,0,0,1,.983,1.326c-.016,2.825-.012,5.65,0,8.475,0,.632-.185,1.107-.854,1.275" transform="translate(-57.997 -26.457)"/>
        <path id="Trazado_727714" data-name="Trazado 727714" d="M52.68,7.854a3.25,3.25,0,1,1-3.2-3.281,3.275,3.275,0,0,1,3.2,3.281" transform="translate(-26.075 -2.582)" fill="#edd98c"/>
        <path id="Trazado_727715" data-name="Trazado 727715" d="M33.16,14.972c-2.751,0-5.369,0-7.987.005-.333,0-.521-.037-.508-.448.029-.872.022-1.746,0-2.618-.008-.343.114-.444.448-.442,2.17.012,4.34.007,6.51.005.223,0,.424-.007.426.313a5.638,5.638,0,0,0,1.107,3.184" transform="translate(-13.927 -6.476)" fill="#9baeca"/>
        <path id="Trazado_727716" data-name="Trazado 727716" d="M63.109,14.972a5.663,5.663,0,0,0,1.108-3.185c0-.32.205-.312.428-.312,2.17,0,4.34.007,6.51-.005.335,0,.455.1.448.442-.019.872-.027,1.746,0,2.618.014.411-.176.448-.508.447-2.618-.01-5.236-.005-7.987-.005" transform="translate(-35.634 -6.476)" fill="#9baeca"/>
        <path id="Trazado_727717" data-name="Trazado 727717" d="M47.886,53.569q0,10.868,0,21.735c0,2.175-1.023,3.19-3.21,3.19h-32.5a2.744,2.744,0,0,1-3.073-3.041q0-21.912,0-43.823a2.72,2.72,0,0,1,3.03-3.005q16.354,0,32.708,0a2.737,2.737,0,0,1,3.039,3.069q0,10.938,0,21.876" transform="translate(-5.142 -16.162)"/>
        <path id="Trazado_727718" data-name="Trazado 727718" d="M48.477,56.064q0,10.9,0,21.809c0,1.067-.148,1.21-1.232,1.21H14.885c-1.072,0-1.219-.146-1.219-1.223q0-21.738,0-43.476c0-1.067.141-1.205,1.232-1.205H47.257c1.086,0,1.219.132,1.219,1.218q0,10.833,0,21.667" transform="translate(-7.717 -18.734)" fill="#f4f2f7"/>
        <path id="Trazado_727719" data-name="Trazado 727719" d="M60.767,46.826c1.862,0,3.724,0,5.585,0,.789,0,1.209.343,1.219.959.011.643-.435,1.019-1.245,1.02q-5.55.007-11.1,0c-.811,0-1.263-.376-1.256-1.01s.43-.968,1.282-.97c1.838,0,3.677,0,5.515,0" transform="translate(-30.475 -26.44)"/>
        <path id="Trazado_727720" data-name="Trazado 727720" d="M60.765,79.816c-1.862,0-3.723,0-5.585,0-.792,0-1.2-.339-1.211-.964s.431-1.011,1.187-1.013q5.62-.014,11.24,0c.751,0,1.187.408,1.175,1.024s-.427.951-1.222.953c-1.862.005-3.723,0-5.585,0" transform="translate(-30.474 -43.947)" fill="#010101"/>
        <path id="Trazado_727721" data-name="Trazado 727721" d="M60.769,108.971q2.757,0,5.514,0c.864,0,1.279.313,1.289.956s-.436,1.023-1.247,1.024q-5.549.009-11.1,0c-.811,0-1.263-.384-1.254-1.018s.432-.96,1.284-.962q2.757,0,5.514,0" transform="translate(-30.475 -61.53)"/>
        <path id="Trazado_727722" data-name="Trazado 727722" d="M60.756,60.263c-1.838,0-3.677,0-5.515,0-.833,0-1.269-.347-1.27-.985s.45-.994,1.267-1q5.55,0,11.1,0c.805,0,1.254.385,1.234,1.027-.019.612-.446.95-1.231.953-1.862.005-3.724,0-5.585,0" transform="translate(-30.475 -32.907)"/>
        <path id="Trazado_727723" data-name="Trazado 727723" d="M60.779,91.36q-2.651,0-5.3,0a3.394,3.394,0,0,1-.7-.045.906.906,0,0,1-.793-1.006.893.893,0,0,1,.891-.914c.351-.031.706-.016,1.059-.016,3.464,0,6.927,0,10.391,0,.6,0,1.088.139,1.237.791.155.68-.347,1.187-1.2,1.192-1.861.013-3.723,0-5.584,0" transform="translate(-30.481 -50.464)" fill="#010101"/>
        <path id="Trazado_727724" data-name="Trazado 727724" d="M60.843,120.41q2.722,0,5.444,0c.829,0,1.273.345,1.285.976s-.428,1-1.249,1q-5.55.005-11.1,0c-.82,0-1.262-.365-1.251-1s.457-.974,1.286-.976q2.793,0,5.586,0" transform="translate(-30.475 -67.989)"/>
        <path id="Trazado_727725" data-name="Trazado 727725" d="M23.3,49.538a1.413,1.413,0,0,1,1.122.516c.462.42.841,1.23,1.371,1.187.468-.038.881-.778,1.316-1.212.919-.916,1.834-1.838,2.756-2.751.549-.544,1.112-.612,1.551-.2.484.449.449,1.019-.129,1.6q-2.321,2.336-4.658,4.655c-.647.642-1.107.639-1.754,0-.707-.7-1.411-1.393-2.1-2.1a.909.909,0,0,1-.2-1.1.949.949,0,0,1,.73-.585" transform="translate(-12.687 -26.433)"/>
        <path id="Trazado_727726" data-name="Trazado 727726" d="M31.527,78.772a1.215,1.215,0,0,1-.413.94c-1.582,1.582-3.156,3.171-4.747,4.743a1.011,1.011,0,0,1-1.652-.007q-1.037-1.01-2.047-2.048a1,1,0,1,1,1.391-1.421A12.21,12.21,0,0,1,25.1,82.032c.313.376.52.379.871.016,1.243-1.287,2.522-2.539,3.788-3.8a.975.975,0,0,1,1.152-.273,1.024,1.024,0,0,1,.614.8" transform="translate(-12.576 -43.978)"/>
        <path id="Trazado_727727" data-name="Trazado 727727" d="M31.29,109.972a1.011,1.011,0,0,1-.376.771c-1.6,1.6-3.194,3.206-4.8,4.8a.988.988,0,0,1-1.6-.01q-1.043-1.007-2.054-2.046a1.015,1.015,0,0,1-.093-1.55c.429-.4.969-.354,1.5.138.034.032.065.068.1.1.475.411.842,1.227,1.379,1.193.464-.029.889-.762,1.322-1.192q1.455-1.445,2.9-2.9a.988.988,0,0,1,1.165-.233.909.909,0,0,1,.561.934" transform="translate(-12.448 -61.514)"/>
      </g>
    </g>
  </g>
</svg>
