<svg xmlns="http://www.w3.org/2000/svg" xmlns:xlink="http://www.w3.org/1999/xlink" width="80" height="86" viewBox="0 0 80 86">
  <defs>
    <clipPath id="clip-path">
      <rect id="Rect치ngulo_340721" data-name="Rect치ngulo 340721" width="56.914" height="58.953" fill="none"/>
    </clipPath>
  </defs>
  <g id="Grupo_984003" data-name="Grupo 984003" transform="translate(-209 -441)">
    <g id="Rect치ngulo_340695" data-name="Rect치ngulo 340695" transform="translate(209 441)" fill="none" stroke="#0e494d" stroke-width="3">
      <rect width="80" height="86" rx="8" stroke="none"/>
      <rect x="1.5" y="1.5" width="77" height="83" rx="6.5" fill="none"/>
    </g>
    <g id="Grupo_984007" data-name="Grupo 984007" transform="translate(221 455)">
      <g id="Grupo_984007-2" data-name="Grupo 984007" clip-path="url(#clip-path)">
        <path id="Trazado_727777" data-name="Trazado 727777" d="M49.141,37.391c1.54,0,3.006,0,4.471,0a3.076,3.076,0,0,1,3.3,3.306q0,2.168,0,4.337c0,.786-.243,1.009-1.02,1.037-.628.023-1.469-.277-1.823.125-.308.35-.1,1.173-.086,1.786.033,1.945.006,1.936-1.933,1.916-1.828-.019-3.657.035-5.484-.025-.68-.022-.774.2-.765.8.035,2.38.015,4.762.014,7.143,0,.94-.185,1.134-1.1,1.134q-21.811,0-43.623,0c-.88,0-1.082-.206-1.082-1.089q0-23.947-.009-47.9A1.411,1.411,0,0,1,.476,8.852Q4.894,4.661,9.287.443A1.505,1.505,0,0,1,10.42,0Q27.545.015,44.668.008c.973,0,1.144.173,1.144,1.151q0,8.642,0,17.283c0,.307-.1.579.445.594a4.949,4.949,0,0,1,4.887,6.034c-.675,4.083-1.329,8.169-2,12.32"/>
        <path id="Trazado_727778" data-name="Trazado 727778" d="M40.795,32.272H10.718a4.19,4.19,0,0,0-.637.011.759.759,0,0,0,.005,1.508,4.134,4.134,0,0,0,.637.011q14.8,0,29.6-.018c.6,0,.808.168.854.735a16.281,16.281,0,0,0,.269,1.7c.056.3-.009.444-.341.4a2.7,2.7,0,0,0-.382,0H10.74c-.191,0-.384-.011-.574,0a.762.762,0,0,0,.025,1.523c.191.012.382,0,.574,0H40.556c1.187,0,1.187,0,1.376,1.275-1.469,0-2.931.015-4.392,0a3.111,3.111,0,0,0-2.757,1.3c-.215.3-.47.233-.728.234q-9.346.006-18.691,0-2.456,0-4.912,0c-.7,0-1.029.239-1.039.747-.011.53.328.783,1.068.783q11.514,0,23.029-.012c.537,0,.754.089.693.676a13.494,13.494,0,0,0-.008,1.784c.008.269-.059.4-.35.363a2.832,2.832,0,0,0-.382,0H10.688a3.484,3.484,0,0,0-.636.016.759.759,0,0,0,0,1.5,3.522,3.522,0,0,0,.636.016q11.387,0,22.774,0c.43,0,.823-.079.756.614-.04.422.335.658.779.663a13.347,13.347,0,0,0,1.53-.009c.533-.056.628.164.6.633-.037.7-.011,1.4-.009,2.1,0,.873.223,1.1,1.08,1.1,2.509,0,5.019.014,7.527-.011.47,0,.6.1.592.584-.031,2.148-.025,4.3,0,6.443,0,.413-.1.523-.519.523q-20.861-.017-41.72,0c-.414,0-.522-.1-.522-.519q.017-23.029,0-46.058c0-.416.1-.524.521-.521,2.573.02,5.146.012,7.719.009.882,0,1.083-.2,1.083-1.085,0-2.4.012-4.806-.01-7.208,0-.421.113-.519.524-.518q16.2.017,32.406,0c.423,0,.518.115.517.525q-.021,8.229,0,16.458c0,.425-.118.534-.527.515a6.245,6.245,0,0,0-3.113.474,4.952,4.952,0,0,0-2.688,5.69c.12.606.018.732-.6.731q-14.353-.029-28.706-.013a3.524,3.524,0,0,0-.636.015.759.759,0,0,0,0,1.5,3.479,3.479,0,0,0,.636.016q14.481,0,28.962-.012c.556,0,.779.126.815.708.043.691.209,1.374.329,2.111" transform="translate(-2.028 -2.026)" fill="#e7fffe"/>
        <path id="Trazado_727779" data-name="Trazado 727779" d="M96.694,64.47c-.85,0-1.7-.023-2.549.01-.395.015-.55-.108-.61-.495-.381-2.452-.781-4.9-1.174-7.352-.269-1.675-.546-3.35-.8-5.027a3.372,3.372,0,0,1,3.165-3.836c1.315-.048,2.635-.049,3.95,0a3.355,3.355,0,0,1,3.157,3.84c-.64,4.108-1.319,8.209-1.961,12.317-.071.454-.243.576-.688.554-.827-.041-1.656-.012-2.485-.012" transform="translate(-52.162 -27.207)" fill="#5c1800"/>
        <path id="Trazado_727780" data-name="Trazado 727780" d="M89.177,100.275c3.422,0,6.845.02,10.267-.018.642-.007.583.3.582.719s.062.726-.581.72c-4.1-.036-8.205-.019-12.308-.018a3.527,3.527,0,0,0-.573.014.759.759,0,0,0-.019,1.5,3.019,3.019,0,0,0,.572.016c3.1,0,6.207.02,9.31-.017.591-.007.726.172.665.7a4.65,4.65,0,0,0,0,1.082c.057.473-.142.541-.566.539q-7.365-.023-14.731,0c-.463,0-.579-.132-.541-.565a8.223,8.223,0,0,0,0-1.338c-.027-.358.121-.428.435-.41.4.023.807,0,1.211.006.521.005.894-.21.9-.759s-.36-.774-.884-.773c-1.361,0-2.721-.018-4.081.012-.426.009-.527-.119-.516-.527.023-.887,0-.888.909-.888Z" transform="translate(-44.639 -57.142)" fill="#fe916b"/>
        <path id="Trazado_727781" data-name="Trazado 727781" d="M89.175,93.171c-3.419,0-6.839-.007-10.258.01-.436,0-.619-.048-.609-.565.033-1.639.488-2.124,2.127-2.124,5.841,0,11.681.021,17.521-.012,1.946-.011,2.145,1.082,2.059,2.443-.026.421-.338.24-.519.241-2.548.012-5.1.008-7.646.008Z" transform="translate(-44.632 -51.57)" fill="#fe642e"/>
        <path id="Trazado_727782" data-name="Trazado 727782" d="M6.252,12.145l6.633-6.3v.946q0,2.451,0,4.9c0,.218.083.461-.313.458-2.051-.015-4.1-.007-6.319-.007" transform="translate(-3.563 -3.333)" fill="#c2d6d5"/>
        <path id="Trazado_727783" data-name="Trazado 727783" d="M18.034,32.224a6.782,6.782,0,1,1,6.761,6.828,6.747,6.747,0,0,1-6.761-6.828" transform="translate(-10.279 -14.532)"/>
        <path id="Trazado_727784" data-name="Trazado 727784" d="M27.015,110.678h8.612a4.581,4.581,0,0,1,.51.006.711.711,0,0,1,.718.741.719.719,0,0,1-.746.779c-.126.012-.255,0-.382,0H18.311c-.127,0-.256.007-.382,0a.762.762,0,0,1,.028-1.524c.148-.009.3,0,.446,0h8.612" transform="translate(-9.793 -63.08)"/>
        <path id="Trazado_727785" data-name="Trazado 727785" d="M96.856,58.272c.088.533-.022.942-.591,1.083-.444.111-.818-.223-.917-.823-.313-1.9-.61-3.807-.9-5.648a2.216,2.216,0,0,1,2.019-2.221c.485-.026.855.123.92.651a.7.7,0,0,1-.661.847c-.627.092-.787.423-.682,1.028" transform="translate(-53.829 -28.874)" fill="#fefefe"/>
        <path id="Trazado_727786" data-name="Trazado 727786" d="M98.641,75.63a.706.706,0,0,1-.88-.53,6.129,6.129,0,0,1-.147-.805c-.028-.583.2-.871.627-.945a.716.716,0,0,1,.856.577" transform="translate(-55.635 -41.799)" fill="#fefefe"/>
        <path id="Trazado_727787" data-name="Trazado 727787" d="M21.6,34.273a5.251,5.251,0,1,1,5.171,5.277A5.208,5.208,0,0,1,21.6,34.273" transform="translate(-12.309 -16.561)" fill="#3870fe"/>
        <path id="Trazado_727788" data-name="Trazado 727788" d="M23.968,35.581a4.187,4.187,0,1,1,4.116,4.307,4.189,4.189,0,0,1-4.116-4.307" transform="translate(-13.66 -17.944)"/>
        <path id="Trazado_727789" data-name="Trazado 727789" d="M27.53,37.7a2.652,2.652,0,1,1,2.657,2.684A2.668,2.668,0,0,1,27.53,37.7" transform="translate(-15.691 -19.974)" fill="#21fef5"/>
      </g>
    </g>
  </g>
</svg>
