<svg xmlns="http://www.w3.org/2000/svg" xmlns:xlink="http://www.w3.org/1999/xlink" width="404.307" height="831.539" viewBox="0 0 404.307 831.539">
  <defs>
    <clipPath id="clip-path">
      <rect id="Rectángulo_340637" data-name="Rectángulo 340637" width="402.755" height="831.075" transform="translate(0 0)" fill="#f0faf6"/>
    </clipPath>
    <clipPath id="clip-path-2">
      <rect id="Rectángulo_340636" data-name="Rectángulo 340636" width="333.528" height="255.369" fill="none"/>
    </clipPath>
    <clipPath id="clip-path-3">
      <rect id="Rectángulo_340634" data-name="Rectángulo 340634" width="436.555" height="477.461" fill="none"/>
    </clipPath>
    <clipPath id="clip-path-4">
      <rect id="Rectángulo_340636-2" data-name="Rectángulo 340636" width="211.552" height="161.977" fill="none"/>
    </clipPath>
    <clipPath id="clip-path-5">
      <rect id="Rectángulo_340639" data-name="Rectángulo 340639" width="37.82" height="29.895" fill="none"/>
    </clipPath>
    <clipPath id="clip-path-6">
      <rect id="Rectángulo_340648" data-name="Rectángulo 340648" width="240.452" height="379.539" fill="none"/>
    </clipPath>
  </defs>
  <g id="Grupo_984389" data-name="Grupo 984389" transform="translate(-178.448 -7684)">
    <g id="Grupo_984383" data-name="Grupo 984383" transform="translate(0 5.672)">
      <rect id="Rectángulo_340635" data-name="Rectángulo 340635" width="399.256" height="822.811" transform="translate(180 7678.328)" fill="#fff"/>
      <g id="Enmascarar_grupo_927253" data-name="Enmascarar grupo 927253" transform="translate(180 7678.328)" clip-path="url(#clip-path)">
        <g id="Grupo_960358" data-name="Grupo 960358" transform="translate(-346 233.963)">
          <g id="Grupo_984387" data-name="Grupo 984387">
            <circle id="Elipse_5449" data-name="Elipse 5449" cx="325.5" cy="325.5" r="325.5" transform="translate(70 116.708)" fill="#8ac3b3"/>
            <line id="Línea_219" data-name="Línea 219" x1="27.355" y2="101.765" transform="translate(450.633 2.808)" fill="none" stroke="#8ac3b3" stroke-linecap="round" stroke-linejoin="round" stroke-width="5"/>
            <line id="Línea_220" data-name="Línea 220" y1="97.84" x2="51.014" transform="translate(514.005 19.3)" fill="none" stroke="#8ac3b3" stroke-linecap="round" stroke-linejoin="round" stroke-width="5"/>
            <line id="Línea_221" data-name="Línea 221" y1="52.492" x2="76.849" transform="translate(695.519 198.791)" fill="none" stroke="#8ac3b3" stroke-linecap="round" stroke-linejoin="round" stroke-width="5"/>
            <line id="Línea_222" data-name="Línea 222" y1="10.896" x2="61.347" transform="translate(735.845 313.795)" fill="none" stroke="#8ac3b3" stroke-linecap="round" stroke-linejoin="round" stroke-width="5"/>
            <line id="Línea_223" data-name="Línea 223" x2="90.18" y2="44.626" transform="translate(36.562 174.458)" fill="none" stroke="#8ac3b3" stroke-linecap="round" stroke-linejoin="round" stroke-width="5"/>
            <line id="Línea_224" data-name="Línea 224" x1="38.845" y1="96.344" transform="translate(310.038 7.162)" fill="none" stroke="#8ac3b3" stroke-linecap="round" stroke-linejoin="round" stroke-width="5"/>
            <line id="Línea_225" data-name="Línea 225" x2="55.823" y2="90.815" transform="translate(228.132 27.545)" fill="none" stroke="#8ac3b3" stroke-linecap="round" stroke-linejoin="round" stroke-width="5"/>
            <line id="Línea_226" data-name="Línea 226" x2="67.508" y2="12.359" transform="translate(2.808 269.817)" fill="none" stroke="#8ac3b3" stroke-linecap="round" stroke-linejoin="round" stroke-width="5"/>
          </g>
        </g>
        <g id="Grupo_960360" data-name="Grupo 960360" transform="translate(22.036 236.771)">
          <g id="Grupo_960350" data-name="Grupo 960350" clip-path="url(#clip-path-2)">
            <path id="Trazado_727269" data-name="Trazado 727269" d="M0,255.369C20.032,150.887,94.1,50.367,187.809,0a214.435,214.435,0,0,1-33.474,147.052C197.148,94.744,266.1,64.985,333.528,69.713c-2.079,76.593-48.479,148.149-115.292,185.656" fill="#7cac35"/>
            <path id="Trazado_727270" data-name="Trazado 727270" d="M203.884,19.547A389.749,389.749,0,0,0,99.682,199" transform="translate(-33.785 12.5)" fill="none" stroke="#111414" stroke-linecap="round" stroke-linejoin="round" stroke-width="1"/>
            <path id="Trazado_727271" data-name="Trazado 727271" d="M186.384,60.152C165.509,72.316,144.6,84.5,124.992,98.62A377.1,377.1,0,0,0,20.6,213.177" transform="translate(113.379 38.468)" fill="none" stroke="#111414" stroke-linecap="round" stroke-linejoin="round" stroke-width="1"/>
          </g>
        </g>
        <g id="Grupo_960349" data-name="Grupo 960349" transform="translate(-40.935 26.421) rotate(-7)">
          <g id="Grupo_960348" data-name="Grupo 960348" transform="translate(0 0)" clip-path="url(#clip-path-3)">
            <path id="Trazado_727200" data-name="Trazado 727200" d="M196.377,124.692c19.737,33.922,57.689,37.548,90.425,17.118,16.953-10.132,27.317-25.154,39-40.485,3.185,6.769,14.786,14.287,14.354,21.339a116.275,116.275,0,0,1-16.574,28.424c-35.386,47.445-119.555,65.369-161.474,17.673" transform="translate(12.851 8.034)" fill="#f3d54a"/>
            <path id="Trazado_727201" data-name="Trazado 727201" d="M186.989,140.676c12.228,13.461,30.21,21.141,48.37,22.107s36.382-4.5,51.846-14.073,28.256-23.1,38.255-38.293" transform="translate(14.823 8.754)" fill="none" stroke="#e9bc38" stroke-linecap="round" stroke-linejoin="round" stroke-width="1"/>
            <path id="Trazado_727202" data-name="Trazado 727202" d="M177.283,167.011c9.424,7.769,21.148,12.508,33.209,14.433s24.456,1.117,36.408-1.393a131.545,131.545,0,0,0,86.669-63.861" transform="translate(14.054 9.212)" fill="none" stroke="#e9bc38" stroke-linecap="round" stroke-linejoin="round" stroke-width="1"/>
            <path id="Trazado_727203" data-name="Trazado 727203" d="M319.42,97.748c9.162-10.446,20.561-13.871,30.715-2.67,4.2,3.824,12.548,3.153,15.292,8.177-.5,4.244-7.14,3.676-10.1,2.336,2.95.212,9.034.584,10.439,3.954.67,1.607-.584,3.022-1.914,3.767a8.517,8.517,0,0,1-3.107.961c-1.979.247-3.9.707-5.593-.813a4.647,4.647,0,0,1,1.769,3.486,2.41,2.41,0,0,1-2.65,2.35,2.536,2.536,0,0,1,.1,4.522,4.715,4.715,0,0,1-2.767.285,28.8,28.8,0,0,1-15.793-7.122,16.82,16.82,0,0,1-3.938,4.892,7.189,7.189,0,0,1-5.907,1.561,8.412,8.412,0,0,1-4.235-2.885c-2.017-2.324-4.073-5.741-3.691-8.9" transform="translate(25.208 6.988)" fill="#9c522a"/>
            <path id="Trazado_727204" data-name="Trazado 727204" d="M339.054,96.584a75.177,75.177,0,0,0,10.935,6.839" transform="translate(26.878 7.658)" fill="none" stroke="#111414" stroke-linecap="round" stroke-linejoin="round" stroke-width="1"/>
            <path id="Trazado_727205" data-name="Trazado 727205" d="M336.706,109.739a57.5,57.5,0,0,0,9.889,6.076" transform="translate(26.692 8.7)" fill="none" stroke="#111414" stroke-linecap="round" stroke-linejoin="round" stroke-width="1"/>
            <path id="Trazado_727206" data-name="Trazado 727206" d="M393.943,109.261a26.317,26.317,0,1,0-44.435,19.084,13.152,13.152,0,0,1,4.272,9.675c-.006.343,0,.689.018,1.037a13.85,13.85,0,0,0,27.679-.771v-.063a13.218,13.218,0,0,1,4.151-9.766,26.243,26.243,0,0,0,8.315-19.2" transform="translate(27.057 6.576)" fill="#aad447"/>
            <path id="Trazado_727207" data-name="Trazado 727207" d="M374.668,94.261c2.31,4.3,7.374,5.88,10.983,8.817,2.384-8.5-15.207-24.6-10.983-8.817" transform="translate(29.649 6.945)" fill="#fff"/>
            <path id="Trazado_727208" data-name="Trazado 727208" d="M362.5,134.748l-.21.3c1.665-7.439-8.24-11.787-7.085-19.179.228-1.328,1.319-2.585,2.747-2.238,1.316.318,1.359,1.544,2.243,2.393a1.928,1.928,0,0,0,2.241.42,4.075,4.075,0,0,0,1.169-1.677,3.973,3.973,0,0,1,2.427-1.934,3.064,3.064,0,0,1,2.937.8c.611.653.966,1.657,1.829,1.891a2.061,2.061,0,0,0,1.6-.381,10.863,10.863,0,0,1,1.418-.914,3.229,3.229,0,0,1,3.818,1.363c1.127,1.757.555,3.57.012,5.376-1.52,4.938-6.51,9-5.883,14.509" transform="translate(28.151 8.938)" fill="none" stroke="#111414" stroke-linecap="round" stroke-linejoin="round" stroke-width="1"/>
            <path id="Trazado_727209" data-name="Trazado 727209" d="M351.862,132.646h29.657v4.185a14.829,14.829,0,0,1-29.657,0Z" transform="translate(27.893 10.516)" fill="#7cac35"/>
            <line id="Línea_199" data-name="Línea 199" y1="1.815" x2="20.067" transform="translate(385.531 157.275)" fill="none" stroke="#111414" stroke-linecap="round" stroke-linejoin="round" stroke-width="1"/>
            <line id="Línea_200" data-name="Línea 200" y1="1.648" x2="27.391" transform="translate(381.226 152.146)" fill="none" stroke="#111414" stroke-linecap="round" stroke-linejoin="round" stroke-width="1"/>
            <path id="Trazado_727210" data-name="Trazado 727210" d="M327.291,112.015c-5.642,3.405-13.511.615-16-5.366,2.133-6.176,8.529-13.129,15.7-12.188,7.09,2.513,12.793,8.668,20.68,9.584,4.761.277,5.455,4.984,1.268,6.931-8.265,5.682-14.885-4.123-21.648,1.039" transform="translate(24.677 7.482)" fill="#ba704f"/>
            <path id="Trazado_727211" data-name="Trazado 727211" d="M104.632,50.1C90.378,37.255,54.6,49.178,73.537,63.159c-10.3-.055-22.966,9.745-16.1,19.77,9.988,10.662,28.452,2.386,33.083-9.393-3.227,16.483,20.4,6.046,18.963-4.863" transform="translate(4.398 3.538)" fill="#111414"/>
            <path id="Trazado_727212" data-name="Trazado 727212" d="M100.823,53.214a19.132,19.132,0,0,0-14.664-4.345c-3.162.409-6.493,1.9-7.77,4.818a7.714,7.714,0,0,0,.005,5.689,14.577,14.577,0,0,0,3.191,4.832,13.067,13.067,0,0,0-11.023,5c-1.024,1.336-1.752,3.308-.7,4.624a4.073,4.073,0,0,0,3.4,1.087c7.159-.223,13.81-4.726,17.523-10.85a5.244,5.244,0,0,0,1.868,5.95,6.328,6.328,0,0,0,6.375.416,8.016,8.016,0,0,0,4.041-5.108" transform="translate(5.497 3.863)" fill="none" stroke="#333" stroke-linecap="round" stroke-linejoin="round" stroke-width="1"/>
            <path id="Trazado_727213" data-name="Trazado 727213" d="M105.2,45.241c-22.464,9.012-4.809,38.888,16.6,29.652" transform="translate(7.512 3.587)" fill="#aad447"/>
            <path id="Trazado_727214" data-name="Trazado 727214" d="M192.973,20.251c20.457,5.862,7.057,35.638-2.586,46.32,13.8,12.017-3.575,28.633-17.2,30.164-14.025,5.011-29.464,5.9-43.554.6C105.846,90.008,96.07,59.327,106.5,37.859c1.018-4.542,17.111-26,20.065-16.323,7.625-7.505,41.928-21.048,42.068-2.214a49.823,49.823,0,0,1,24.341.928" transform="translate(8.114 0.775)" fill="#111414"/>
            <path id="Trazado_727215" data-name="Trazado 727215" d="M178.734,66.127a8.566,8.566,0,0,1,5.809,3.29,6.824,6.824,0,0,1,.9,6.5,5.688,5.688,0,0,1-5.4,3.5,4.888,4.888,0,0,1-4.5-4.368" transform="translate(13.916 5.243)" fill="none" stroke="#f3d54a" stroke-linecap="round" stroke-linejoin="round" stroke-width="1"/>
            <path id="Trazado_727216" data-name="Trazado 727216" d="M170.026,24.494a33.475,33.475,0,0,1,7.025-1.526,13.155,13.155,0,0,1,7.01,1.2,12.031,12.031,0,0,1,6,8.495,18.74,18.74,0,0,1-1.365,10.53,43.543,43.543,0,0,1-5.542,9.2" transform="translate(13.478 1.818)" fill="none" stroke="#333" stroke-linecap="round" stroke-linejoin="round" stroke-width="1"/>
            <path id="Trazado_727217" data-name="Trazado 727217" d="M114.269,118.259c27.257,6.885,57.187,11.882,84.236,2.454-13.034-11.831-33.093-15.28-49.879-19.016-15.7-2.642-31.658-3.326-47.575-3.555-5.375-.386-11.531.094-16.483,2.295,5.36,10.882,18.461,15.219,29.7,17.822" transform="translate(6.704 7.772)" fill="#ba704f"/>
            <path id="Trazado_727218" data-name="Trazado 727218" d="M199.5,120.535c-27.049,9.429-56.979,4.432-84.236-2.454-11.24-2.6-24.342-6.94-29.7-17.821-4.767,2.119-8.418,5.831-9.173,11.914A154.466,154.466,0,0,0,87.417,215.7l68.094,10.38c8.009-5.727,13.147-14.544,17.945-23.141,7.082-12.692,13.95-25.55,19.487-39a176.755,176.755,0,0,0,7.138-20.689q1.408-5.16,2.427-10.417c.489-2.547,2.015-7.025-.031-9.309a40.928,40.928,0,0,0-2.981-2.984" transform="translate(5.712 7.949)" fill="#f3d54a"/>
            <path id="Trazado_727219" data-name="Trazado 727219" d="M176.25,180.769c9.077-17.605,16.25-32.039,15.626-49.749" transform="translate(13.972 10.387)" fill="none" stroke="#111414" stroke-linecap="round" stroke-linejoin="round" stroke-width="1"/>
            <path id="Trazado_727220" data-name="Trazado 727220" d="M112.711,124.364A193.083,193.083,0,0,1,97.29,216.67" transform="translate(7.712 9.86)" fill="none" stroke="#e9bc38" stroke-linecap="round" stroke-linejoin="round" stroke-width="1"/>
            <path id="Trazado_727221" data-name="Trazado 727221" d="M175.418,128.189a139.112,139.112,0,0,1-31.656,92.064" transform="translate(11.396 10.163)" fill="none" stroke="#e9bc38" stroke-linecap="round" stroke-linejoin="round" stroke-width="1"/>
            <path id="Trazado_727222" data-name="Trazado 727222" d="M141.412,130.012a198.973,198.973,0,0,1-15.79,91.128" transform="translate(9.958 10.308)" fill="none" stroke="#e9bc38" stroke-linecap="round" stroke-linejoin="round" stroke-width="1"/>
            <path id="Trazado_727223" data-name="Trazado 727223" d="M88.143,146.833a257.917,257.917,0,0,0,5.474,67.819" transform="translate(6.96 11.641)" fill="none" stroke="#e9bc38" stroke-linecap="round" stroke-linejoin="round" stroke-width="1"/>
            <path id="Trazado_727224" data-name="Trazado 727224" d="M121.953,107.815a2.872,2.872,0,0,0-.323,1.48,2.811,2.811,0,0,0,1.313,1.676,46.12,46.12,0,0,0,26.933,8.943q3.176-16.693,6.35-33.386a7.242,7.242,0,0,0,.092-3.466,6.724,6.724,0,0,0-2.7-3.162c-3.055-2.256-6.53-4.141-10.308-4.519-4.292-.43-8.613,1.188-10.151,5.326-2.143,5.773-4.692,11.42-7.054,17.108l-4.154,10" transform="translate(9.641 5.971)" fill="#ba704f"/>
            <path id="Trazado_727225" data-name="Trazado 727225" d="M130.827,82.409c.341,12.141,7.615,24.149,20.3,26.279q2.561-9.883,4.471-19.921" transform="translate(10.371 6.534)" fill="#9c522a"/>
            <path id="Trazado_727226" data-name="Trazado 727226" d="M45.784,289.555q.453-1.946.908-3.893C19.468,338.95,23.307,402.72,13.778,460.83c16.131,3.944,34.95,7.577,51.368,4.563,1.8-45.454,25.763-86.052,43.213-127.047,6.758-15.927,12.752-31.76,20.264-47.375" transform="translate(1.092 22.646)" fill="#ba704f"/>
            <path id="Trazado_727227" data-name="Trazado 727227" d="M168.448,248.173a1418.442,1418.442,0,0,1,16.737,222.843,337.413,337.413,0,0,1-60.217,4.2A917.9,917.9,0,0,0,112.493,287.6" transform="translate(8.918 19.675)" fill="#ba704f"/>
            <path id="Trazado_727228" data-name="Trazado 727228" d="M89.607,205C50.2,242.746,24.759,296.753,21,351.47c16.892,7.809,35.653,10.391,54.094,12.884,39.664,6.789,79.808,6.916,118.869-3.308,6.018-37.741-1.432-76.029-15.056-111.422q-3.439-8.975-7.448-17.721c-1.181-2.575-5.866-16.3-8.421-16.968-26.8-7.022-46.3-3.416-73.432-9.938" transform="translate(1.665 16.252)" fill="#111414"/>
            <path id="Trazado_727229" data-name="Trazado 727229" d="M95.54,208.8A288.014,288.014,0,0,0,38.445,356.355" transform="translate(3.048 16.553)" fill="none" stroke="#fff" stroke-linecap="round" stroke-linejoin="round" stroke-width="1"/>
            <path id="Trazado_727230" data-name="Trazado 727230" d="M95,285.454a123.739,123.739,0,0,0,62.489-20.16l-.922,1.19" transform="translate(7.531 21.032)" fill="none" stroke="#fff" stroke-linecap="round" stroke-linejoin="round" stroke-width="1"/>
            <path id="Trazado_727231" data-name="Trazado 727231" d="M151.739,280.12a94.435,94.435,0,0,1-38.51,23.625" transform="translate(8.976 22.207)" fill="none" stroke="#fff" stroke-linecap="round" stroke-linejoin="round" stroke-width="1"/>
            <path id="Trazado_727232" data-name="Trazado 727232" d="M180.706,85.594c-4.071,6.611-10.249,12.183-17.734,14.244-8.535,2.351-17.9-.138-25.208-5.138a39.191,39.191,0,0,1-16.819-28.25,36.3,36.3,0,0,1,12.082-30.379,33.816,33.816,0,0,1,31.82-6.6c23.116,7.5,27.448,37.3,15.858,56.122" transform="translate(9.576 2.218)" fill="#ba704f"/>
            <path id="Trazado_727233" data-name="Trazado 727233" d="M120.1,59.737c7.054,15.389,15.611,4.208,11.389-7.213,7.518,3.611,20.34,1.468,12.963-12.05C156.812,52.521,196.6,43.8,171.228,27.952c-9.758-6.092-22.83-6.22-33.037-.917-11.173,5.932-21.85,21.215-16.931,33.931" transform="translate(9.515 1.841)" fill="#111414"/>
            <path id="Trazado_727234" data-name="Trazado 727234" d="M103.98,52.419a21.738,21.738,0,0,0,8.931,1.878,10.309,10.309,0,0,0,7.967-3.931c1.778-2.5,1.844-6.268-.288-8.47a16.392,16.392,0,0,0,10.543,2.394,12.323,12.323,0,0,0,8.961-5.748,9.906,9.906,0,0,0-.241-10.433,20.876,20.876,0,0,0,11.9,8.11,14.878,14.878,0,0,0,13.616-3.641c3.45-3.485,4.55-9.281,2.1-13.528" transform="translate(8.243 1.511)" fill="none" stroke="#333" stroke-linecap="round" stroke-linejoin="round" stroke-width="1"/>
            <path id="Trazado_727235" data-name="Trazado 727235" d="M120.1,59.737c7.054,15.389,18.786,2.46,11.389-7.213,6.286,8.219,20.34,1.468,12.963-12.05C156.812,52.521,196.6,43.8,171.228,27.952c-9.758-6.092-22.83-6.22-33.037-.917-11.173,5.932-21.85,21.215-16.931,33.931" transform="translate(9.515 1.841)" fill="#111414"/>
            <path id="Trazado_727236" data-name="Trazado 727236" d="M149.3,73.637A5.949,5.949,0,0,1,147.7,78.37a4.468,4.468,0,0,1-4.751,1.035,5.3,5.3,0,0,1-2.538-2.619,6.794,6.794,0,0,1-.575-4.638,5.056,5.056,0,0,1,3-3.475,5.451,5.451,0,0,1,4.511.593c1.234.874,1.818,2.957,1.945,4.372" transform="translate(11.071 5.425)" fill="#9c522a"/>
            <path id="Trazado_727237" data-name="Trazado 727237" d="M174.226,75.73a3.237,3.237,0,0,1,1.577,2.506,6.2,6.2,0,0,1-.525,3,6.637,6.637,0,0,1-1.452,2.306,3.6,3.6,0,0,1-2.448,1.083,3.367,3.367,0,0,1-3-2.168,4.559,4.559,0,0,1,.35-3.793c.883-1.6,3.5-3.989,5.5-2.936" transform="translate(13.327 5.984)" fill="#9c522a"/>
            <path id="Trazado_727238" data-name="Trazado 727238" d="M175.753,62.823c-.063,1.541-1.025,2.754-2.149,2.709s-1.984-1.333-1.921-2.875,1.025-2.754,2.149-2.709,1.984,1.333,1.921,2.875" transform="translate(13.61 4.753)" fill="#111414"/>
            <path id="Trazado_727239" data-name="Trazado 727239" d="M156.01,63.242c-.063,1.543-1.025,2.754-2.149,2.71s-1.984-1.333-1.921-2.875,1.025-2.754,2.149-2.709,1.984,1.333,1.921,2.874" transform="translate(12.045 4.787)" fill="#111414"/>
            <path id="Trazado_727240" data-name="Trazado 727240" d="M151.424,77.036a8.136,8.136,0,0,0,14.546,4.778" transform="translate(12.004 6.108)" fill="none" stroke="#111414" stroke-linecap="round" stroke-linejoin="round" stroke-width="1"/>
            <path id="Trazado_727241" data-name="Trazado 727241" d="M163.177,57.256a56.5,56.5,0,0,1,6.859,13.16,2.5,2.5,0,0,1,.091,2.136,2.244,2.244,0,0,1-1.414.841,9.745,9.745,0,0,1-5.162-.077" transform="translate(12.936 4.54)" fill="none" stroke="#111414" stroke-linecap="round" stroke-linejoin="round" stroke-width="1"/>
            <path id="Trazado_727242" data-name="Trazado 727242" d="M158.83,54.955a9.392,9.392,0,0,0-15.14,3.376" transform="translate(11.391 4.16)" fill="none" stroke="#111414" stroke-linecap="round" stroke-linejoin="round" stroke-width="1"/>
            <path id="Trazado_727243" data-name="Trazado 727243" d="M167.258,55.411a6.9,6.9,0,0,1,12.676-2.136" transform="translate(13.259 3.959)" fill="none" stroke="#111414" stroke-linecap="round" stroke-linejoin="round" stroke-width="1"/>
            <path id="Trazado_727244" data-name="Trazado 727244" d="M126.64,59.379c-4.491-9.011-20.6-4.891-18.138,5.619,1.646,6.68,12.692,12.467,17.872,6.752,1.8-3.758,1.439-8.384.267-12.371" transform="translate(8.581 4.316)" fill="#ba704f"/>
            <path id="Trazado_727245" data-name="Trazado 727245" d="M120.208,69.246c7.75,11.626-12.562,13.455-5.742,2.595" transform="translate(8.961 5.49)" fill="none" stroke="#f3d54a" stroke-linecap="round" stroke-linejoin="round" stroke-width="1"/>
            <path id="Trazado_727246" data-name="Trazado 727246" d="M117.536,59.055a8.4,8.4,0,0,1-.035,8.178" transform="translate(9.315 4.683)" fill="none" stroke="#111414" stroke-linecap="round" stroke-linejoin="round" stroke-width="1"/>
            <path id="Trazado_727247" data-name="Trazado 727247" d="M118.79,63.149a4.81,4.81,0,0,1-5-1.812" transform="translate(9.02 4.863)" fill="none" stroke="#111414" stroke-linecap="round" stroke-linejoin="round" stroke-width="1"/>
            <path id="Trazado_727248" data-name="Trazado 727248" d="M112.047,157.029a19.953,19.953,0,0,1,9.039-6.509c3.627-1.281,7.624-1.507,11.039-3.279.918-.477,1.988-1.075,2.919-.622a2.382,2.382,0,0,1,1.1,2.048c.173,2.414-1.279,4.666-3.024,6.345s-3.826,2.989-5.484,4.752-2.891,4.2-2.361,6.562" transform="translate(8.882 11.611)" fill="#ba704f"/>
            <path id="Trazado_727249" data-name="Trazado 727249" d="M144.491,199.09l-21.757-74.052-6.057.956L127.29,203.91a13.676,13.676,0,0,0,10.867.58,13.213,13.213,0,0,0,6.334-5.4" transform="translate(9.249 9.913)" fill="#7cac35"/>
            <path id="Trazado_727250" data-name="Trazado 727250" d="M117.566,134.7,128.7,145.18l-4.72-16.065-6.68,5.7" transform="translate(9.299 10.236)" fill="#487424"/>
            <path id="Trazado_727251" data-name="Trazado 727251" d="M108.194,166.157c-.953-4.926,3-10.673,7.642-12.068,4.621,1.869,8.083,6.694,13.379,7.805,2.369,1.286,2.881-2.05,3.881-3.449,3.19-3.34,7.61,1.493,6.007,5.1a4.27,4.27,0,0,1,2.62,6.1,4.34,4.34,0,0,1,.577,7.325c4.435,18.874-26.676,9.466-35.027,3.88Z" transform="translate(8.504 12.216)" fill="#ba704f"/>
            <path id="Trazado_727252" data-name="Trazado 727252" d="M137.63,162.821a23.752,23.752,0,0,1-2.924,4.521,7.982,7.982,0,0,1-4.533,2.731,11.934,11.934,0,0,1-5.445-.825" transform="translate(9.888 12.908)" fill="none" stroke="#111414" stroke-linecap="round" stroke-linejoin="round" stroke-width="1"/>
            <path id="Trazado_727253" data-name="Trazado 727253" d="M140.16,168.474a28.657,28.657,0,0,1-3.4,4.583,9.614,9.614,0,0,1-4.854,2.858,12.488,12.488,0,0,1-5.985-.643" transform="translate(9.982 13.357)" fill="none" stroke="#111414" stroke-linecap="round" stroke-linejoin="round" stroke-width="1"/>
            <path id="Trazado_727254" data-name="Trazado 727254" d="M140.6,175.247a28.341,28.341,0,0,1-5.109,4.266,9.53,9.53,0,0,1-6.369,1.454,7.1,7.1,0,0,1-2.481-.925" transform="translate(10.039 13.894)" fill="none" stroke="#111414" stroke-linecap="round" stroke-linejoin="round" stroke-width="1"/>
            <path id="Trazado_727255" data-name="Trazado 727255" d="M132.19,118.879l.563,12.971,34.885-6.313-.05-2.827Z" transform="translate(10.479 9.425)" fill="#375b1a"/>
            <path id="Trazado_727256" data-name="Trazado 727256" d="M135.391,121.689l-27.262-1.77a14.3,14.3,0,0,0-2.04,8.99,14.462,14.462,0,0,0,4.981,9.254l25.016-9.248a5.169,5.169,0,0,0,1.206-4.223,5,5,0,0,0-1.9-3" transform="translate(8.403 9.507)" fill="#7cac35"/>
            <path id="Trazado_727257" data-name="Trazado 727257" d="M131.019,135.766l-10.96-5.776L107.55,162.77l3.518.263Z" transform="translate(8.526 10.306)" fill="#375b1a"/>
            <path id="Trazado_727258" data-name="Trazado 727258" d="M122.374,133.078l2.5-5.685a5.47,5.47,0,0,0,2.51,3.069l-2.118,3.97" transform="translate(9.701 10.1)" fill="#375b1a"/>
            <path id="Trazado_727259" data-name="Trazado 727259" d="M129.7,117.747l-9.509,7.625L97.881,90.345l3.335-2.59Z" transform="translate(7.759 6.958)" fill="#375b1a"/>
            <path id="Trazado_727260" data-name="Trazado 727260" d="M124.35,117.509l2.393,4.075c-.238.1-.5-.054-.873.457a6.377,6.377,0,0,0-1.09,2.126c-1.468-1.448-2.337-3.131-3.8-4.579" transform="translate(9.59 9.316)" fill="#375b1a"/>
            <path id="Trazado_727261" data-name="Trazado 727261" d="M127.919,131.349a5.419,5.419,0,0,1-3.961-4.5,7.018,7.018,0,0,1,2.082-5.792" transform="translate(9.822 9.597)" fill="none" stroke="#111414" stroke-linecap="round" stroke-linejoin="round" stroke-width="1"/>
            <path id="Trazado_727262" data-name="Trazado 727262" d="M130.739,124.857a3.577,3.577,0,0,0,.787,2.162,1.755,1.755,0,0,0,1,.679,1.378,1.378,0,0,0,1.2-.418,2.1,2.1,0,0,0,.54-1.178,4.537,4.537,0,0,0-.042-1.312,4.2,4.2,0,0,0-.383-1.332,1.9,1.9,0,0,0-.99-.934,1.488,1.488,0,0,0-1.553.372,3.339,3.339,0,0,0-.55,1.96" transform="translate(10.364 9.708)" fill="#375b1a"/>
            <path id="Trazado_727263" data-name="Trazado 727263" d="M34.218,136.861c-14.811,14.971-22.054,41.346-6.405,58.217,18.678,15.324,49.587,8,70.733,1.049,6.467-1.918,12.508-5.427,19.027-6.957.966-.119,1.379-.118,1.524-1.019.312-1.947-4.587-22.622-4.019-22.738-7.545,2.305-75.4,13.918-48.308-5.868,5.934-5.523,15.017-8.138,19.008-15.379,6.012-13.008,6.729-30.811,3.562-44.233a151.237,151.237,0,0,0-55.121,36.927" transform="translate(1.509 7.923)" fill="#f3d54a"/>
            <path id="Trazado_727264" data-name="Trazado 727264" d="M73.333,165.322a306.5,306.5,0,0,0,36.8-4.519" transform="translate(5.813 12.748)" fill="none" stroke="#111414" stroke-linecap="round" stroke-linejoin="round" stroke-width="1"/>
            <path id="Trazado_727265" data-name="Trazado 727265" d="M79.841,193.781c11.123-3.161,22.514-6.254,34.435-12.109" transform="translate(6.329 14.403)" fill="none" stroke="#111414" stroke-linecap="round" stroke-linejoin="round" stroke-width="1"/>
            <path id="Trazado_727266" data-name="Trazado 727266" d="M72.547,150.424A36.019,36.019,0,0,0,92.318,135.3" transform="translate(5.751 10.727)" fill="none" stroke="#111414" stroke-linecap="round" stroke-linejoin="round" stroke-width="1"/>
            <path id="Trazado_727267" data-name="Trazado 727267" d="M85.475,107.921c-28.126,7.521-56.087,33.737-54.752,64.506,4.815,36.8,64.674,18.561,86.033,7.22" transform="translate(2.432 8.556)" fill="none" stroke="#e9bc38" stroke-linecap="round" stroke-linejoin="round" stroke-width="1"/>
            <path id="Trazado_727268" data-name="Trazado 727268" d="M87.442,124.431a57.792,57.792,0,0,0-38.895,31.436c-5.04,8.275-.46,17.035,8.724,19.234,18.324,6.259,35.554.431,53.147-5.213" transform="translate(3.683 9.865)" fill="none" stroke="#e9bc38" stroke-linecap="round" stroke-linejoin="round" stroke-width="1"/>
          </g>
        </g>
      </g>
    </g>
    <g id="Grupo_960351" data-name="Grupo 960351" transform="translate(178.448 8029.031)">
      <g id="Grupo_960350-2" data-name="Grupo 960350" clip-path="url(#clip-path-4)">
        <path id="Trazado_727269-2" data-name="Trazado 727269" d="M211.552,161.977C198.846,95.705,151.864,31.947,92.428,0A136.013,136.013,0,0,0,113.66,93.273C86.5,60.095,42.771,41.219,0,44.218,1.319,92.8,30.749,138.187,73.128,161.977" fill="#7cac35"/>
        <path id="Trazado_727270-2" data-name="Trazado 727270" d="M99.682,19.547A247.212,247.212,0,0,1,165.776,133.37" transform="translate(3.979 0.78)" fill="none" stroke="#111414" stroke-linecap="round" stroke-linejoin="round" stroke-width="1"/>
        <path id="Trazado_727271-2" data-name="Trazado 727271" d="M20.6,60.152c13.24,7.715,26.5,15.446,38.94,24.4a239.188,239.188,0,0,1,66.218,72.662" transform="translate(0.822 2.401)" fill="none" stroke="#111414" stroke-linecap="round" stroke-linejoin="round" stroke-width="1"/>
      </g>
    </g>
    <g id="Grupo_960357" data-name="Grupo 960357" transform="translate(180 8091.924)">
      <g id="Grupo_960353" data-name="Grupo 960353" transform="translate(0 33.821)">
        <g id="Grupo_984386" data-name="Grupo 984386" transform="translate(0 0)">
          <path id="Trazado_727272" data-name="Trazado 727272" d="M68.777,331.986c-3.108-2.97-6.622-6.127-7.179-10.39-.5-3.849,1.538-8.053-.268-11.489S55,306.018,51.135,305.766L18.419,303.64c1.216-7.583.3-13.708,8.692-16.355,6.24-1.967,13.093-1.58,19.182-3.973,8.248-3.24,13.88-11.208,16.624-19.634s3.042-17.419,3.588-26.264,1.415-17.884,5.163-25.914l4.219-.1q2.793,20.226,5.586,40.451c.284,2.053.925,4.532,2.931,5.054,2.937.763,4.572-3.285,4.793-6.311,1.395-19.087-.516-37.646-2.978-56.531a11.633,11.633,0,0,1,.144-5.382c1.239-3.5,5.287-4.9,8.682-6.4a37.474,37.474,0,0,0,13.1-9.753,171.344,171.344,0,0,1,14.607,66.443,171.178,171.178,0,0,1-38.671,111.7c-.035-.055-.069-.113-.1-.168a99.666,99.666,0,0,0-15.2-18.52" transform="translate(220.97 -70.159)" fill="#0e6f7c"/>
          <path id="Trazado_727273" data-name="Trazado 727273" d="M359.969,245.02c4.442-1.306,8.593-1.44,12.976-3.309a113.876,113.876,0,0,0,27.949-17.033c2.384-1.977,5.635-4.162,8.284-2.557,1.711,1.038,2.273,3.3,2.075,5.3s-.983,3.878-1.319,5.851a13.558,13.558,0,0,0,8.562,14.58c3.336,1.179,7.394,1.161,9.723,3.825,2.148,2.457,1.855,6.164,1.175,9.357-.977,4.581-2.5,9.335-1.211,13.84,1.17,4.1,4.61,7.82,3.772,12-.591,2.942-3.149,5.014-4.775,7.536-2.8,4.341-2.741,9.869-2.474,15.025a344.346,344.346,0,0,0,6.547,51.293,11.756,11.756,0,0,1,.248,5.566c-.519,1.8-2.277,3.4-4.12,3.053-2.131-.406-3.033-2.9-3.548-5.009l-4.251-17.39c-.342-1.4-.789-2.944-2.032-3.671-1.735-1.014-4.046.251-5.015,2.013s-1.04,3.855-1.422,5.829c-1.308,6.758-6.512,12.366-12.764,15.248a28.233,28.233,0,0,1-3.543,1.321A171.21,171.21,0,0,1,350.4,255.424c-.047-2.58-.024-5.144.043-7.7,3.191-.778,6.317-1.761,9.526-2.705" transform="translate(-350.375 -80.485)" fill="#b4deb4"/>
          <path id="Trazado_727274" data-name="Trazado 727274" d="M420.07,103.47c.651,2.29-1.377,4.47-3.457,5.628-3.851,2.146-8.35,2.708-12.7,3.443s-8.852,1.775-12.217,4.624-5.144,8.032-2.867,11.808c1.7,2.811,5.05,4.1,8.217,4.969a67.719,67.719,0,0,0,17.037,2.392c3.589.043,8.077.346,9.415,3.675,1.347,3.352-1.743,6.7-4.472,9.07s-5.645,5.987-3.957,9.18c1.3,2.456,4.938,3.451,5.3,6.205.4,3.028-3.452,4.686-6.5,4.9a36.459,36.459,0,0,1-28.5-10.995c-2.533-2.647-4.659-5.678-7.353-8.16s-6.168-4.432-9.826-4.226c-5.828.329-10.034,5.942-11.643,11.553s-1.492,11.617-3.221,17.192a26.8,26.8,0,0,1-27.441,18.856A171.751,171.751,0,0,1,380.758,97.53l32.936,2.629c2.551.2,5.676.851,6.376,3.311" transform="translate(-322.784 -54.362)" fill="#b4deb4"/>
          <path id="Trazado_727275" data-name="Trazado 727275" d="M71.556,342.318c.957-5.626-1.057-11.444-.092-17.068,1.467-8.551,9.227-14.394,16.512-19.108,6.8-4.4,14.854-9.409,17.521-17.556,2.66-8.126-1.338-15.574-9.852-9.583-1.659,1.168-3.825,2.166-5.649,1.277-2.066-1.006-2.431-3.747-3.705-5.659-2.38-3.571-8.321-4.8-8.578-9.083-.195-3.242,3.218-5.473,4.4-8.5,1.175-2.995.037-6.327-.407-9.514s.365-7.2,3.435-8.163c2.742-.863,5.573,1.37,6.875,3.934s1.679,5.519,2.995,8.074,4.183,4.759,6.91,3.85c2.893-.965,3.707-4.539,4.891-7.349,4.792-11.375,20.976-15.3,24.221-27.213,1.15-4.221.387-8.7-.381-13l-4.99-27.952c-5,4.766-11.159,4.2-16.55,7.734-8.251,5.414-9.225,17.98-20.944,17.532-3.867-.148-7.412-2.4-9.973-5.3s-4.286-6.428-5.981-9.907L59.943,164.571c2.766-1.706,6.468-.186,8.8,2.083s3.944,5.23,6.489,7.251,6.685,2.727,8.81.27c1.292-1.493,1.419-3.638,1.443-5.612a148.937,148.937,0,0,0-1.644-23.982,26.851,26.851,0,0,0-2.618-9.143c-1.546-2.787-4.211-5.131-7.374-5.516-5.973-.726-10.384,5.224-13.4,10.429l-8.622,14.879c-1.489,2.57-3.072,5.24-5.581,6.831s-6.233,1.69-8.133-.594c-1.6-1.925-1.378-4.848-.269-7.093s2.94-4.033,4.507-5.986A30.346,30.346,0,0,0,48.778,126.5c-.613-5.841-2.845-12.16.055-17.266,2.959-5.212,9.789-6.485,15.758-7.034,12.172-1.12,24.538-1.542,36.249-5.046,9.5-2.842,20.728-8.373,25.07-17.629a52.87,52.87,0,0,0,4.583-16.042,172.52,172.52,0,0,1,84.147,86.085,37.476,37.476,0,0,1-13.1,9.753c-3.4,1.491-7.442,2.9-8.682,6.4a11.643,11.643,0,0,0-.145,5.382c2.462,18.885,4.373,37.444,2.978,56.531-.221,3.027-1.857,7.074-4.793,6.311-2.006-.522-2.648-3-2.931-5.054q-2.793-20.225-5.586-40.451l-4.219.1c-3.748,8.03-4.617,17.069-5.163,25.914s-.844,17.837-3.588,26.264-8.375,16.394-16.624,19.634c-6.09,2.393-12.942,2.006-19.182,3.973-8.4,2.647-7.477,8.772-8.692,16.354l32.715,2.126c3.862.252,8.4.915,10.2,4.341s-.234,7.64.268,11.49c.557,4.263,4.071,7.419,7.179,10.39a99.665,99.665,0,0,1,15.2,18.52c.035.055.069.113.1.168A171.489,171.489,0,0,1,60.458,390.919a173.81,173.81,0,0,1-19.136-.723A55.148,55.148,0,0,1,55.109,364c6.366-6.691,14.9-12.576,16.447-21.68" transform="translate(114.478 -47.191)" fill="#b4deb4"/>
          <path id="Trazado_727276" data-name="Trazado 727276" d="M262.113,49.749a171.23,171.23,0,0,1,26.72-5.365c-6.993,3.191-14.062,5.853-21.658,5.6-1.686-.057-3.381-.245-5.062-.234" transform="translate(-137.45 -43.169)" fill="#f3d54a"/>
          <path id="Trazado_727277" data-name="Trazado 727277" d="M202.8,315.22c.382-1.973.455-4.067,1.423-5.829s3.28-3.027,5.015-2.013c1.242.727,1.69,2.273,2.032,3.671l4.251,17.39c.515,2.108,1.417,4.6,3.548,5.009,1.843.35,3.6-1.249,4.12-3.053a11.757,11.757,0,0,0-.248-5.566,344.245,344.245,0,0,1-6.547-51.292c-.267-5.157-.324-10.685,2.474-15.025,1.625-2.523,4.184-4.6,4.774-7.537.839-4.178-2.6-7.9-3.772-12-1.286-4.5.234-9.259,1.211-13.84.681-3.192.974-6.9-1.175-9.357-2.328-2.664-6.386-2.646-9.722-3.825a13.559,13.559,0,0,1-8.563-14.58c.336-1.973,1.122-3.859,1.32-5.851s-.365-4.258-2.076-5.3c-2.648-1.606-5.9.579-8.284,2.556a113.854,113.854,0,0,1-27.948,17.033c-4.383,1.869-8.534,2-12.976,3.309-3.21.944-6.336,1.928-9.526,2.705a172.052,172.052,0,0,1,3.034-28.014A26.8,26.8,0,0,0,172.6,164.962c1.73-5.575,1.614-11.581,3.222-17.192s5.815-11.223,11.643-11.552c3.658-.207,7.13,1.743,9.826,4.225s4.82,5.513,7.353,8.16A36.458,36.458,0,0,0,233.15,159.6c3.046-.217,6.9-1.875,6.5-4.9-.365-2.754-4-3.749-5.3-6.205-1.689-3.193,1.227-6.813,3.957-9.18s5.818-5.718,4.471-9.07c-1.338-3.33-5.827-3.633-9.415-3.675a67.717,67.717,0,0,1-17.037-2.392c-3.166-.866-6.521-2.158-8.217-4.969-2.277-3.776-.5-8.958,2.868-11.808s7.869-3.889,12.217-4.623,8.845-1.3,12.7-3.443c2.08-1.158,4.109-3.338,3.457-5.628-.7-2.461-3.825-3.108-6.375-3.311L200.033,87.76a171.54,171.54,0,0,1,60.552-34.719,5.227,5.227,0,0,0-1.746,2.5c-.855,2.824,1.139,5.826,3.663,7.354s5.515,2.033,8.3,3.014A25.439,25.439,0,0,1,285.85,80.5c1.065,2.747,2.412,6.3,5.359,6.287,2.276-.009,3.785-2.266,4.99-4.2a60.317,60.317,0,0,1,49.1-27.875c4.638-.091,9.55.306,13.638-1.887a8.351,8.351,0,0,0,2.12-1.688,170.742,170.742,0,0,1,25.971,9.739,52.879,52.879,0,0,1-4.582,16.043c-4.342,9.256-15.574,14.788-25.071,17.629-11.71,3.5-24.077,3.926-36.249,5.047-5.969.549-12.8,1.822-15.758,7.034-2.9,5.107-.667,11.426-.054,17.266a30.349,30.349,0,0,1-6.432,21.891c-1.567,1.954-3.4,3.741-4.507,5.986s-1.333,5.17.268,7.094c1.9,2.284,5.624,2.184,8.134.594s4.091-4.26,5.581-6.831l8.621-14.879c3.016-5.206,7.428-11.156,13.4-10.429,3.164.384,5.828,2.729,7.375,5.516a26.846,26.846,0,0,1,2.618,9.142,148.951,148.951,0,0,1,1.644,23.982c-.025,1.974-.152,4.12-1.443,5.613-2.126,2.457-6.266,1.751-8.811-.27s-4.162-4.983-6.488-7.251-6.029-3.79-8.8-2.084l12.271,25.193c1.695,3.48,3.42,7.006,5.981,9.908s6.106,5.152,9.972,5.3c11.719.448,12.694-12.118,20.944-17.532,5.392-3.538,11.546-2.968,16.551-7.734q2.495,13.976,4.989,27.952c.769,4.307,1.531,8.784.381,13-3.244,11.909-19.428,15.838-24.22,27.213-1.184,2.811-2,6.385-4.891,7.35-2.727.909-5.593-1.295-6.91-3.85s-1.693-5.512-2.995-8.075-4.133-4.8-6.875-3.933c-3.069.965-3.88,4.976-3.435,8.163s1.584,6.519.408,9.514c-1.186,3.024-4.6,5.254-4.4,8.5.257,4.283,6.2,5.512,8.578,9.082,1.274,1.913,1.639,4.653,3.705,5.66,1.823.889,3.989-.11,5.649-1.277,8.514-5.991,12.513,1.457,9.852,9.583-2.667,8.146-10.717,13.154-17.52,17.556C337.228,308.257,329.467,314.1,328,322.65c-.965,5.625,1.049,11.443.092,17.069-1.549,9.1-10.081,14.99-16.447,21.681a55.146,55.146,0,0,0-13.788,26.2,170.969,170.969,0,0,1-31.678-5.973,71.558,71.558,0,0,0,12.808-18.648c1.686-3.566,2.963-8.194.44-11.258-4.293-5.215-14.333,0-18.375-5.418L271.9,334.172c1.12-1.251,2.323-2.843,1.844-4.491-.579-1.989-3.1-2.465-5.107-2.375-12.467.56-23.232,8.355-33.812,15.021-7.926,4.994-16.931,9.591-26.021,10.114a172.923,172.923,0,0,1-22.316-20.652,28.206,28.206,0,0,0,3.544-1.321c6.251-2.881,11.456-8.49,12.763-15.248M351.689,75.837c2.014,1.87,3.846,4.031,6.307,5.252s5.852,1.175,7.545-.988c2.959-3.777-1.488-10,1.292-13.907,1.016-1.428,2.88-2.288,3.342-3.979a3.825,3.825,0,0,0-1.793-3.944c-3.751-2.528-6.326.281-9.915,1.512a27.119,27.119,0,0,1-13.158,1.124,18.977,18.977,0,0,0-5.424-.553c-1.811.228-3.667,1.407-3.976,3.206a4.358,4.358,0,0,0,1.868,3.967,17.336,17.336,0,0,0,4.119,2.03,32.9,32.9,0,0,1,9.791,6.28M313.971,88.587a3.642,3.642,0,0,0,1.778,2.759,3.845,3.845,0,0,0,3.538-.3,17.03,17.03,0,0,0,2.864-2.326A22.645,22.645,0,0,1,334.1,83.235a13.257,13.257,0,0,0,3.528-.706,3.246,3.246,0,0,0,2.117-2.682c.038-1.592-1.5-2.733-2.934-3.428-3.225-1.564-6.644-1.927-10.058-2.722-3.171-.738-6.084-.354-8.468,2.144s-3.374,5.984-4.057,9.365a9.854,9.854,0,0,0-.259,3.382M282.02,198.27c.4,1.459,2.532,1.17,3.937,1.728,1.927.764,2.407,3.225,2.577,5.291s.557,4.516,2.436,5.392c1.3.6,2.806.189,4.235.137a10.973,10.973,0,0,1,8.123,3.828,32.516,32.516,0,0,1,4.9,7.818,13.559,13.559,0,0,0-6.758-15.493c-2.572-1.273-5.976-2.141-6.666-4.926-.841-3.391,3.307-6.727,2.077-10-2.82.006-4.365.975-6.34,2.7-2.192,1.916-3.746,1.128-6.425,1.346-1.148.094-2.4,1.066-2.1,2.177" transform="translate(-142.059 -44.592)" fill="#0a6f7c"/>
          <path id="Trazado_727278" data-name="Trazado 727278" d="M276.756,51.083c-4.087,2.193-9,1.8-13.638,1.887a60.322,60.322,0,0,0-49.1,27.875c-1.2,1.932-2.713,4.189-4.99,4.2-2.947.012-4.294-3.539-5.359-6.287a25.44,25.44,0,0,0-15.049-14.594c-2.783-.981-5.774-1.486-8.3-3.014s-4.518-4.53-3.663-7.353a5.214,5.214,0,0,1,1.745-2.5q3.043-.992,6.137-1.87c1.681-.01,3.376.178,5.062.234,7.6.254,14.664-2.408,21.658-5.6a173.973,173.973,0,0,1,17.43-1.187A171.851,171.851,0,0,1,278.876,49.4a8.35,8.35,0,0,1-2.12,1.688" transform="translate(-59.877 -42.845)" fill="#b4deb4"/>
          <path id="Trazado_727279" data-name="Trazado 727279" d="M164.828,65.19c.309-1.8,2.165-2.978,3.976-3.206a18.97,18.97,0,0,1,5.423.553,27.141,27.141,0,0,0,13.158-1.124c3.589-1.231,6.164-4.04,9.915-1.512a3.824,3.824,0,0,1,1.792,3.945c-.461,1.69-2.326,2.551-3.342,3.978-2.78,3.911,1.666,10.129-1.292,13.907-1.694,2.163-5.084,2.209-7.545.989s-4.293-3.383-6.307-5.252a32.921,32.921,0,0,0-9.791-6.28,17.305,17.305,0,0,1-4.119-2.03,4.355,4.355,0,0,1-1.868-3.967" transform="translate(29.024 -46.222)" fill="#b4deb4"/>
          <path id="Trazado_727280" data-name="Trazado 727280" d="M207.83,81.769c2.384-2.5,5.3-2.882,8.468-2.144,3.414.795,6.835,1.158,10.058,2.722,1.434.7,2.972,1.836,2.934,3.428a3.246,3.246,0,0,1-2.117,2.682,13.256,13.256,0,0,1-3.528.706,22.644,22.644,0,0,0-11.952,5.485,17.032,17.032,0,0,1-2.864,2.326,3.845,3.845,0,0,1-3.538.3,3.643,3.643,0,0,1-1.778-2.759,9.858,9.858,0,0,1,.259-3.382c.684-3.381,1.677-6.869,4.057-9.365" transform="translate(-31.602 -50.521)" fill="#b4deb4"/>
          <path id="Trazado_727281" data-name="Trazado 727281" d="M244.9,233.688c2.679-.218,4.232.57,6.425-1.346,1.975-1.725,3.519-2.694,6.339-2.7,1.231,3.271-2.917,6.606-2.077,10,.691,2.785,4.095,3.653,6.666,4.926a13.558,13.558,0,0,1,6.759,15.493,32.493,32.493,0,0,0-4.9-7.818,10.972,10.972,0,0,0-8.122-3.828c-1.429.051-2.94.466-4.235-.137-1.88-.875-2.267-3.326-2.437-5.392s-.649-4.527-2.576-5.291c-1.405-.558-3.54-.269-3.937-1.728-.3-1.111.949-2.084,2.1-2.177" transform="translate(-102.843 -82.187)" fill="#b4deb4"/>
        </g>
      </g>
      <path id="Trazado_727282" data-name="Trazado 727282" d="M256.916,69.457q-.153,1.171-.307,2.348" transform="translate(-101.189 -14.628)" fill="none" stroke="#111414" stroke-linecap="round" stroke-linejoin="round" stroke-width="2"/>
      <path id="Trazado_727283" data-name="Trazado 727283" d="M268.154,78.01c-2.641,19.587-5.852,39.9-10.414,59.056" transform="translate(-113.319 -16.43)" fill="none" stroke="#111414" stroke-linecap="round" stroke-linejoin="round" stroke-width="2" stroke-dasharray="5.629 5.629"/>
      <path id="Trazado_727284" data-name="Trazado 727284" d="M269.893,155.56q-.282,1.152-.571,2.3,1.177.086,2.363.166" transform="translate(-125.993 -32.763)" fill="none" stroke="#111414" stroke-linecap="round" stroke-linejoin="round" stroke-width="2"/>
      <path id="Trazado_727285" data-name="Trazado 727285" d="M134.257,157.6c32.749,1.776,69.654-.414,101.875-5.433" transform="translate(16.178 -32.047)" fill="none" stroke="#111414" stroke-linecap="round" stroke-linejoin="round" stroke-width="2" stroke-dasharray="6.021 6.021"/>
      <path id="Trazado_727286" data-name="Trazado 727286" d="M128.322,151.588q1.173-.189,2.337-.383" transform="translate(126.337 -31.846)" fill="none" stroke="#111414" stroke-linecap="round" stroke-linejoin="round" stroke-width="2"/>
      <line id="Línea_201" data-name="Línea 201" y2="2.368" transform="translate(273.536 123.325)" fill="none" stroke="#111414" stroke-linecap="round" stroke-linejoin="round" stroke-width="2"/>
      <line id="Línea_202" data-name="Línea 202" y2="72.554" transform="translate(273.536 130.373)" fill="none" stroke="#111414" stroke-linecap="round" stroke-linejoin="round" stroke-width="2" stroke-dasharray="5.93 5.93"/>
      <path id="Trazado_727287" data-name="Trazado 727287" d="M109.737,260.035V262.4h-2.368" transform="translate(163.798 -54.767)" fill="none" stroke="#111414" stroke-linecap="round" stroke-linejoin="round" stroke-width="2"/>
      <line id="Línea_203" data-name="Línea 203" x1="71.484" transform="translate(195.072 207.637)" fill="none" stroke="#111414" stroke-linecap="round" stroke-linejoin="round" stroke-width="2" stroke-dasharray="5.842 5.842"/>
      <path id="Trazado_727288" data-name="Trazado 727288" d="M212.057,262.4h-2.368v-2.368" transform="translate(-19.291 -54.767)" fill="none" stroke="#111414" stroke-linecap="round" stroke-linejoin="round" stroke-width="2"/>
      <line id="Línea_204" data-name="Línea 204" y1="23.416" transform="translate(190.398 177.595)" fill="none" stroke="#111414" stroke-linecap="round" stroke-linejoin="round" stroke-width="2" stroke-dasharray="5.393 5.393"/>
      <line id="Línea_205" data-name="Línea 205" y1="2.368" transform="translate(190.398 173.098)" fill="none" stroke="#111414" stroke-linecap="round" stroke-linejoin="round" stroke-width="2"/>
      <path id="Trazado_727289" data-name="Trazado 727289" d="M234.621,49.5l8.016,18.207H227.292Z" transform="translate(-63.768 -10.426)" fill="#487424"/>
      <path id="Trazado_727290" data-name="Trazado 727290" d="M306.459,39.832l-9.9,30.016-64.472-.687L250.35,39.832Z" transform="translate(-131.371 -8.389)" fill="#7cac35"/>
      <line id="Línea_206" data-name="Línea 206" x1="11.261" y2="25.597" transform="translate(142.581 32.846)" fill="none" stroke="#111414" stroke-linecap="round" stroke-linejoin="round" stroke-width="1"/>
      <line id="Línea_207" data-name="Línea 207" x1="13.653" y2="25.193" transform="translate(123.083 33.25)" fill="none" stroke="#111414" stroke-linecap="round" stroke-linejoin="round" stroke-width="1"/>
      <path id="Trazado_727291" data-name="Trazado 727291" d="M244.62,39.832h-1.9L232.083,69.82l2.633.028Z" transform="translate(-69.532 -8.389)" fill="#375b1a"/>
      <path id="Trazado_727292" data-name="Trazado 727292" d="M279.295,42.9l-3.8,8.073H261.415l4.177-8.073Z" transform="translate(-127.361 -9.034)" fill="#487424"/>
      <path id="Trazado_727293" data-name="Trazado 727293" d="M301.075,42.9l-3.964,8.073H283.476l4.177-8.073Z" transform="translate(-166.556 -9.034)" fill="#487424"/>
      <path id="Trazado_727294" data-name="Trazado 727294" d="M260.863,55.371l-2.061,6.3H243.972l2.517-6.3Z" transform="translate(-95.161 -11.662)" fill="#487424"/>
      <path id="Trazado_727295" data-name="Trazado 727295" d="M256.616,42.9l-2.691,8.073H239.1l3.147-8.073Z" transform="translate(-87.063 -9.034)" fill="#487424"/>
      <path id="Trazado_727296" data-name="Trazado 727296" d="M314.732,65.417,310.851,72H296.124l4.235-6.584Z" transform="translate(-190.198 -13.778)" fill="#487424"/>
      <path id="Trazado_727297" data-name="Trazado 727297" d="M284.758,55.371l-2.805,6.3H266.9l3.487-6.3Z" transform="translate(-137.152 -11.662)" fill="#487424"/>
      <path id="Trazado_727298" data-name="Trazado 727298" d="M308.132,55.19l-3.881,6.584H289.524l4.235-6.584Z" transform="translate(-178.387 -11.624)" fill="#487424"/>
      <path id="Trazado_727299" data-name="Trazado 727299" d="M265.19,65.6l-2.061,6.3H248.3l2.517-6.3Z" transform="translate(-102.903 -13.816)" fill="#487424"/>
      <path id="Trazado_727300" data-name="Trazado 727300" d="M290.641,65.6l-2.805,6.3h-15.86l3.464-6.3Z" transform="translate(-147.043 -13.816)" fill="#487424"/>
      <g id="Grupo_960356" data-name="Grupo 960356" transform="translate(116.022 31.443)" opacity="0.19">
        <g id="Grupo_960355" data-name="Grupo 960355" transform="translate(0 0)">
          <g id="Grupo_960354" data-name="Grupo 960354" clip-path="url(#clip-path-5)">
            <path id="Trazado_727301" data-name="Trazado 727301" d="M272.329,39.832l9.02,12.959,3.627-1.329,11.842,18.264-10.512-.112-6.821-8.862L274.5,62.869,259,44.58l2.956-4.747Z" transform="translate(-258.998 -39.832)" fill="#fff"/>
          </g>
        </g>
      </g>
      <path id="Trazado_727302" data-name="Trazado 727302" d="M338.8,77.676a5.241,5.241,0,0,0-6.025-6,8.3,8.3,0,0,0-2.663-6.208,6.614,6.614,0,0,0-6.5-1.334,5.514,5.514,0,0,0-3.585,5.4,5.684,5.684,0,0,0-9.635,4.887,3.847,3.847,0,0,0-5.782,3.615" transform="translate(-221.019 -13.432)" fill="#375b1a"/>
      <path id="Trazado_727303" data-name="Trazado 727303" d="M126.619,215.02,118.6,233.228h15.345Z" transform="translate(130.72 -45.286)" fill="#487424"/>
      <path id="Trazado_727304" data-name="Trazado 727304" d="M39.032,205.349l9.9,30.016,64.473-.687L95.141,205.349Z" transform="translate(214.073 -43.249)" fill="#7cac35"/>
      <line id="Línea_208" data-name="Línea 208" x1="52.426" transform="translate(260.536 173.072)" fill="none" stroke="#111414" stroke-linecap="round" stroke-linejoin="round" stroke-width="1"/>
      <line id="Línea_209" data-name="Línea 209" x1="54.845" transform="translate(263.458 181.688)" fill="none" stroke="#111414" stroke-linecap="round" stroke-linejoin="round" stroke-width="1"/>
      <path id="Trazado_727305" data-name="Trazado 727305" d="M103.533,208.412l2.641,7.294H121l-3.1-7.294Z" transform="translate(155.56 -43.895)" fill="#487424"/>
      <path id="Trazado_727306" data-name="Trazado 727306" d="M81.716,208.412l3.45,7.294H99.914l-3.825-7.294Z" transform="translate(193.872 -43.895)" fill="#487424"/>
      <path id="Trazado_727307" data-name="Trazado 727307" d="M59.328,208.412l4.01,7.546H78.065L73.7,208.412Z" transform="translate(233.394 -43.895)" fill="#487424"/>
      <path id="Trazado_727308" data-name="Trazado 727308" d="M99.39,220.888l1.961,5.86h14.83l-2.417-5.86Z" transform="translate(163.654 -46.522)" fill="#487424"/>
      <path id="Trazado_727309" data-name="Trazado 727309" d="M76,220.888l2.655,5.86H93.712l-3.336-5.86Z" transform="translate(204.585 -46.522)" fill="#487424"/>
      <path id="Trazado_727310" data-name="Trazado 727310" d="M52.3,220.707l3.831,6H70.859l-4.185-6Z" transform="translate(246.147 -46.483)" fill="#487424"/>
      <path id="Trazado_727311" data-name="Trazado 727311" d="M94.185,231.95l2.162,5.639h14.829l-2.618-5.639Z" transform="translate(172.766 -48.852)" fill="#487424"/>
      <path id="Trazado_727312" data-name="Trazado 727312" d="M69.713,231.95l2.554,5.639h15.86l-3.212-5.639Z" transform="translate(215.133 -48.852)" fill="#487424"/>
      <path id="Trazado_727313" data-name="Trazado 727313" d="M45.637,231.631l3.579,6.034H63.943l-3.932-6.034Z" transform="translate(258.323 -48.784)" fill="#487424"/>
      <path id="Trazado_727314" data-name="Trazado 727314" d="M123.806,205.349h-3.1l9.775,30.016h3.228" transform="translate(129.299 -43.249)" fill="#375b1a"/>
      <path id="Trazado_727315" data-name="Trazado 727315" d="M398.619,84.875a6.566,6.566,0,0,0-.125-10.759,13.2,13.2,0,0,0-11.459-17.46c-2.089-4.692-4.567-9.376-8.465-12.72s-9.513-5.111-14.3-3.258c-4.38,1.693-7.259,6.048-8.53,10.568a21.73,21.73,0,0,0,.657,14.081,17.769,17.769,0,0,0,9.912,9.835A15.062,15.062,0,0,0,380.022,73.6a4.714,4.714,0,0,0,.478,5.551,6.771,6.771,0,0,0,5.373,2.158,12.321,12.321,0,0,0,5.646-1.818,3.4,3.4,0,0,0,1.912,4.144" transform="translate(-323.201 -8.409)" fill="#333"/>
      <path id="Trazado_727316" data-name="Trazado 727316" d="M356.937,97.968h6.328l1.194,18.026h-8.3Z" transform="translate(-287.317 -20.634)" fill="#111414"/>
      <rect id="Rectángulo_340640" data-name="Rectángulo 340640" width="10.506" height="4.716" transform="translate(67.89 74.29)" fill="#111414"/>
      <line id="Línea_210" data-name="Línea 210" x1="6.51" transform="translate(69.549 79.006)" fill="none" stroke="#333" stroke-linecap="round" stroke-linejoin="round" stroke-width="1"/>
      <path id="Trazado_727317" data-name="Trazado 727317" d="M355.855,134.949l-.6-25.774-13.371,7.389v-7.389l-14.227,8.941v-8.941l-20.752,6.793v18.982Z" transform="translate(-239.833 -22.993)" fill="#111414"/>
      <line id="Línea_211" data-name="Línea 211" x1="7.799" y2="2.553" transform="translate(68.974 89.799)" fill="none" stroke="#333" stroke-linecap="round" stroke-linejoin="round" stroke-width="1"/>
      <path id="Trazado_727318" data-name="Trazado 727318" d="M317.967,122.215l-5.412,2.865v6.566h5.412" transform="translate(-206.403 -25.74)" fill="#333"/>
      <path id="Trazado_727319" data-name="Trazado 727319" d="M334.1,122.215l-5.412,2.865v6.566H334.1" transform="translate(-235.267 -25.74)" fill="#333"/>
      <path id="Trazado_727320" data-name="Trazado 727320" d="M351.01,122.215l-5.412,2.865v6.566h5.412" transform="translate(-265.53 -25.74)" fill="#333"/>
      <path id="Trazado_727321" data-name="Trazado 727321" d="M333.127,188.385c4.42-3.079,8.368-11.9,2.441-15.29,5.314-7.139-2.13-19.258-11.033-18.1-14.316.894-13.367,23.191.974,22.861-3.1,3.111-2.462,9.908,2.637,10.035" transform="translate(-228.352 -32.627)" fill="#333"/>
      <path id="Trazado_727322" data-name="Trazado 727322" d="M319.372,198.711h8.022l1.513,22.854H318.388Z" transform="translate(-221.947 -41.851)" fill="#111414"/>
      <rect id="Rectángulo_340641" data-name="Rectángulo 340641" width="13.319" height="5.979" transform="translate(95.23 153)" fill="#111414"/>
      <line id="Línea_212" data-name="Línea 212" x1="8.248" y1="0.122" transform="translate(97.339 158.857)" fill="none" stroke="#333" stroke-linecap="round" stroke-linejoin="round" stroke-width="1"/>
      <path id="Trazado_727323" data-name="Trazado 727323" d="M318,245.6l-.757-32.676-16.951,9.368v-9.368l-18.038,11.336V212.919l-26.309,8.611V245.6Z" transform="translate(-161.748 -44.844)" fill="#111414"/>
      <line id="Línea_213" data-name="Línea 213" x1="9.888" y2="3.236" transform="translate(96.605 172.662)" fill="none" stroke="#333" stroke-linecap="round" stroke-linejoin="round" stroke-width="1"/>
      <path id="Trazado_727324" data-name="Trazado 727324" d="M269.966,229.451l-6.861,3.633v8.324h6.861" transform="translate(-119.367 -48.325)" fill="#333"/>
      <path id="Trazado_727325" data-name="Trazado 727325" d="M290.416,229.451l-6.861,3.633v8.324h6.861" transform="translate(-155.959 -48.325)" fill="#333"/>
      <path id="Trazado_727326" data-name="Trazado 727326" d="M311.857,229.451,305,233.084v8.324h6.861" transform="translate(-194.326 -48.325)" fill="#333"/>
      <path id="Trazado_727327" data-name="Trazado 727327" d="M118.2,130.7l2.569-73.383-5.755-.954-13.791,73.528a13.014,13.014,0,0,0,9.638,3.784A12.58,12.58,0,0,0,118.2,130.7" transform="translate(157.61 -11.872)" fill="#7cac35"/>
      <path id="Trazado_727328" data-name="Trazado 727328" d="M101.7,66.217l6.907,12.8.557-15.92-7.741,3.145" transform="translate(169.069 -13.289)" fill="#487424"/>
      <path id="Trazado_727329" data-name="Trazado 727329" d="M59.792,55.595,53.4,67.532,85.1,78.765l1.378-2.31Z" transform="translate(229.654 -11.71)" fill="#375b1a"/>
      <line id="Línea_214" data-name="Línea 214" x2="22.627" y2="12.185" transform="translate(287.942 50.742)" fill="none" stroke="#111414" stroke-linecap="round" stroke-linejoin="round" stroke-width="1"/>
      <path id="Trazado_727330" data-name="Trazado 727330" d="M114.119,55.158,90.036,45.383a13.612,13.612,0,0,0-4.538,7.5,13.753,13.753,0,0,0,1.722,9.849l25.359-.846a4.917,4.917,0,0,0,2.356-3.45,4.754,4.754,0,0,0-.815-3.281" transform="translate(176.054 -9.558)" fill="#7cac35"/>
      <path id="Trazado_727331" data-name="Trazado 727331" d="M89.285,62.144A1.475,1.475,0,0,1,88.1,63.171a1.148,1.148,0,0,1-.948-.571,2.364,2.364,0,0,1-.306-1.1,3.156,3.156,0,0,1,.409-1.938,1.92,1.92,0,0,1,1.061-.8c.56-.159.741,0,.954.508a3.754,3.754,0,0,1,.013,2.88" transform="translate(200.178 -12.363)" fill="#375b1a"/>
      <path id="Trazado_727332" data-name="Trazado 727332" d="M136.045,67.5l-4.065-11.064L102.26,71.632l2.319,2.428Z" transform="translate(141.524 -11.886)" fill="#375b1a"/>
      <path id="Trazado_727333" data-name="Trazado 727333" d="M130.869,63.759c-.6.1-25.8,8.919-25.8,8.919" transform="translate(144.481 -13.429)" fill="none" stroke="#111414" stroke-linecap="round" stroke-linejoin="round" stroke-width="1"/>
      <path id="Trazado_727334" data-name="Trazado 727334" d="M99.786,61.188l5.387-2.425a4.823,4.823,0,0,0-.182,3.768l-4.024,1.456" transform="translate(174.349 -12.377)" fill="#375b1a"/>
      <path id="Trazado_727335" data-name="Trazado 727335" d="M100.965,39.073l-11.589.4L92.31.077,96.326,0Z" transform="translate(186.774 0)" fill="#375b1a"/>
      <line id="Línea_215" data-name="Línea 215" x1="0.895" y1="31.894" transform="translate(281.307 5.436)" fill="none" stroke="#111414" stroke-linecap="round" stroke-linejoin="round" stroke-width="1"/>
      <path id="Trazado_727336" data-name="Trazado 727336" d="M98.054,48.922l-.107,4.284a2.521,2.521,0,0,0-1.314.035,2.6,2.6,0,0,0-1.452,1.164q-.44-2.909-.882-5.819" transform="translate(185.799 -10.233)" fill="#375b1a"/>
      <path id="Trazado_727337" data-name="Trazado 727337" d="M99.346,54.151a6.084,6.084,0,0,0-3.47,10" transform="translate(184.444 -11.405)" fill="none" stroke="#111414" stroke-linecap="round" stroke-linejoin="round" stroke-width="1"/>
      <path id="Trazado_727338" data-name="Trazado 727338" d="M133.506,152.958a6.3,6.3,0,0,0-1.1-5.527,8.514,8.514,0,0,0-5.457-3.092,10.017,10.017,0,0,0-3.2-9.329,11.442,11.442,0,0,0-10.8-2.178c-3.64,1.248-6.069,4.867-5.126,8.128-.438-1.809-2.745-3.034-4.886-2.82a5.8,5.8,0,0,0-4.688,3.4,6.61,6.61,0,0,0,.335,5.41,5.13,5.13,0,0,0-5.646.365,3.477,3.477,0,0,0-.532,4.831" transform="translate(152.189 -27.863)" fill="#375b1a"/>
      <path id="Trazado_727339" data-name="Trazado 727339" d="M197.6,196.737l2.774-70.264,5.564-.5,7.932,71.2A12.463,12.463,0,0,1,204.4,200.1a12.046,12.046,0,0,1-6.8-3.364" transform="translate(-11.566 -26.532)" fill="#7cac35"/>
      <path id="Trazado_727340" data-name="Trazado 727340" d="M213.335,135.407l-7.508,11.731.6-15.242,7.168,3.554" transform="translate(-17.784 -27.779)" fill="#487424"/>
      <path id="Trazado_727341" data-name="Trazado 727341" d="M248.564,123.719l5.014,10.713-30.836,9.612-1.152-2.3Z" transform="translate(-70.208 -26.057)" fill="#375b1a"/>
      <line id="Línea_216" data-name="Línea 216" x1="23.592" y2="11.375" transform="translate(155.556 103.526)" fill="none" stroke="#111414" stroke-linecap="round" stroke-linejoin="round" stroke-width="1"/>
      <path id="Trazado_727342" data-name="Trazado 727342" d="M195.02,123.694l23.7-7.62a13.034,13.034,0,0,1,3.8,7.49,13.174,13.174,0,0,1-2.345,9.283l-24.158-2.614a4.707,4.707,0,0,1-2-3.463,4.559,4.559,0,0,1,1.013-3.075" transform="translate(-17.479 -24.447)" fill="#7cac35"/>
      <path id="Trazado_727343" data-name="Trazado 727343" d="M173.306,136.239l4.67-10.276,27.3,16.627-2.387,2.153Z" transform="translate(16.209 -26.53)" fill="#375b1a"/>
      <line id="Línea_217" data-name="Línea 217" x2="24.573" y2="10.765" transform="translate(191.825 104.626)" fill="none" stroke="#111414" stroke-linecap="round" stroke-linejoin="round" stroke-width="1"/>
      <path id="Trazado_727344" data-name="Trazado 727344" d="M214.1,130.34l-4.972-2.7a4.626,4.626,0,0,1-.095,3.611l3.739,1.677" transform="translate(-20.825 -26.882)" fill="#375b1a"/>
      <path id="Trazado_727345" data-name="Trazado 727345" d="M211.682,108.827l11.1.185L219.3,71.34l-3.847,0Z" transform="translate(-31.593 -15.024)" fill="#375b1a"/>
      <line id="Línea_218" data-name="Línea 218" y1="30.01" transform="translate(185.599 63.884)" fill="none" stroke="#111414" stroke-linecap="round" stroke-linejoin="round" stroke-width="1"/>
      <path id="Trazado_727346" data-name="Trazado 727346" d="M216.495,118.177l.176,4.1a2.4,2.4,0,0,1,1.259.01,2.488,2.488,0,0,1,1.41,1.09q.373-2.794.744-5.587" transform="translate(-32.691 -24.808)" fill="#375b1a"/>
      <path id="Trazado_727347" data-name="Trazado 727347" d="M215.406,123.047c3.859.437,5.885,7.359,2.591,9.464" transform="translate(-31.397 -25.915)" fill="none" stroke="#111414" stroke-linecap="round" stroke-linejoin="round" stroke-width="1"/>
      <path id="Trazado_727348" data-name="Trazado 727348" d="M228.03,128.256a3.262,3.262,0,0,1-.215,2.085,1.6,1.6,0,0,1-.73.821,1.253,1.253,0,0,1-1.149-.1,1.91,1.91,0,0,1-.739-.92,4.127,4.127,0,0,1-.254-1.169,3.87,3.87,0,0,1,.042-1.262,1.735,1.735,0,0,1,.668-1.044,1.356,1.356,0,0,1,1.455-.016,3.038,3.038,0,0,1,.922,1.61" transform="translate(-47.364 -26.63)" fill="#375b1a"/>
      <path id="Trazado_727349" data-name="Trazado 727349" d="M224.5,222.36c.455-2.539.289-5.347-1.244-7.423s-4.724-3.026-6.808-1.505a9.645,9.645,0,0,0-15.856-6.551c-2.511,2.134-3.75,5.367-4.893,8.457a6.7,6.7,0,0,0-13.266,1.31,4.9,4.9,0,0,0-8.919,4.059" transform="translate(-3.137 -43.095)" fill="#375b1a"/>
      <path id="Trazado_727350" data-name="Trazado 727350" d="M183.566,89.176A42.508,42.508,0,0,1,180.092,69.4H173.28c-.3,0-.1,4.848-.095,5.2a26.391,26.391,0,0,1-.561,6.04,12.332,12.332,0,0,1-5.36,8.042" transform="translate(42.69 -14.616)" fill="#375b1a"/>
      <path id="Trazado_727351" data-name="Trazado 727351" d="M186.55,96.024a3.271,3.271,0,0,0,.086-3.551,7.866,7.866,0,0,0-5.193-3.982,7.417,7.417,0,0,0-7.122,2.543,5.838,5.838,0,0,0-4.079-3.3,7.259,7.259,0,0,0-5.587.92A4.809,4.809,0,0,0,162.4,93a3.046,3.046,0,0,0-2.911-1.07,3.423,3.423,0,0,0-2.5,1.744,3.331,3.331,0,0,0-.06,2.76" transform="translate(47.505 -18.437)" fill="#7cac35"/>
      <path id="Trazado_727352" data-name="Trazado 727352" d="M158.055,65.737c3.654,1.629,9.383,1.05,10.373-3.476,4.6,6.748,16.266.6,10.62-6.47a6.83,6.83,0,0,0,7.187-7.277A7.243,7.243,0,0,1,183.646,58c3.785,1.247,6.733,5.7,4.751,9.514-3.413,5.468-11.392,3.792-16.718,2.556-5.672-.965-14.7,1.116-16.669-6.066a9.016,9.016,0,0,0,3.045,1.733" transform="translate(46.897 -10.217)" fill="#487424"/>
      <path id="Trazado_727353" data-name="Trazado 727353" d="M158.5,55.861a5.463,5.463,0,0,1,4.155-4.878c-4.547-3.627-2.791-11.5,2.865-12.848-6.077-2.789-1.635-11.609,4.387-9.828-8.046-11.42,13.966-14.051,9.435-.9,5.278-.267,10.624,6.636,5.391,10.269,8.582,1.541,5.624,12.033-2.031,11.814,5.648,7.076-6.028,13.214-10.62,6.469-1.486,5.89-9.708,4.976-13.418,1.744a5.872,5.872,0,0,1-.163-1.842" transform="translate(43.248 -3.916)" fill="#7cac35"/>
      <path id="Trazado_727354" data-name="Trazado 727354" d="M181.268,35.66a3.268,3.268,0,0,0-3.034,4.953" transform="translate(36.692 -7.508)" fill="none" stroke="#111414" stroke-linecap="round" stroke-linejoin="round" stroke-width="1"/>
      <path id="Trazado_727355" data-name="Trazado 727355" d="M178.337,50.313a9.544,9.544,0,0,0-2.465,1.57,3.222,3.222,0,0,0-1.066,2.622,1.974,1.974,0,0,0,1.988,1.755,2.948,2.948,0,0,0,4.928,2.7" transform="translate(38.598 -10.597)" fill="none" stroke="#111414" stroke-linecap="round" stroke-linejoin="round" stroke-width="1"/>
      <path id="Trazado_727356" data-name="Trazado 727356" d="M180.095,29.487a3.649,3.649,0,0,0-.648-3.937,1.825,1.825,0,0,0-1.58-.663,1.974,1.974,0,0,0-1.318,1.4,5.069,5.069,0,0,0,.166,3.774" transform="translate(38.746 -5.237)" fill="none" stroke="#111414" stroke-linecap="round" stroke-linejoin="round" stroke-width="1"/>
      <path id="Trazado_727357" data-name="Trazado 727357" d="M403.958,234.77a50.325,50.325,0,0,1-4.114-23.413H391.78c-.357,0-.114,5.739-.112,6.153a31.256,31.256,0,0,1-.665,7.153c-.876,3.824-2.959,7.543-6.346,9.522" transform="translate(-349.31 -44.515)" fill="#375b1a"/>
      <path id="Trazado_727358" data-name="Trazado 727358" d="M403.343,242.489a5.4,5.4,0,0,0-6.681-5.616,12.2,12.2,0,0,0-6.819-6.907,6.947,6.947,0,0,0-4.283-.452,3.806,3.806,0,0,0-2.87,2.97,4.516,4.516,0,0,0-8.851,1.587c-.029-.358-1.06-1-1.336-1.186a7.572,7.572,0,0,0-1.741-.877,7.9,7.9,0,0,0-3.862-.355c-2.674.433-4.9,2.663-6.2,4.951a11.777,11.777,0,0,0-1.494,6.563" transform="translate(-328.595 -48.271)" fill="#7cac35"/>
      <path id="Trazado_727359" data-name="Trazado 727359" d="M373.753,207.018c4.327,1.928,11.109,1.243,12.28-4.116,5.444,7.99,19.259.711,12.574-7.66a8.087,8.087,0,0,0,8.51-8.616,8.576,8.576,0,0,1-3.064,11.232c4.481,1.477,7.971,6.748,5.624,11.265-4.042,6.475-13.488,4.49-19.793,3.026-6.716-1.143-17.4,1.321-19.737-7.183a10.675,10.675,0,0,0,3.606,2.052" transform="translate(-344.328 -39.306)" fill="#487424"/>
      <path id="Trazado_727360" data-name="Trazado 727360" d="M374.276,195.326a6.466,6.466,0,0,1,4.919-5.776c-5.384-4.294-3.305-13.611,3.391-15.212-7.2-3.3-1.936-13.745,5.194-11.636-9.526-13.521,16.535-16.636,11.171-1.065,6.249-.316,12.578,7.856,6.382,12.157,10.161,1.825,6.659,14.248-2.4,13.988,6.688,8.378-7.137,15.645-12.573,7.659-1.76,6.973-11.494,5.891-15.886,2.064a6.907,6.907,0,0,1-.193-2.18" transform="translate(-348.65 -31.845)" fill="#7cac35"/>
      <path id="Trazado_727361" data-name="Trazado 727361" d="M394.16,185.8a2.54,2.54,0,0,0,.408-3.554,3.358,3.358,0,0,0-3.654-.924,3.051,3.051,0,0,0,.449-2.907,2.6,2.6,0,0,0-2.378-1.644,2.274,2.274,0,0,0-2.167,1.823" transform="translate(-342.165 -37.23)" fill="none" stroke="#111414" stroke-linecap="round" stroke-linejoin="round" stroke-width="1"/>
      <path id="Trazado_727362" data-name="Trazado 727362" d="M407.914,192.407a3.279,3.279,0,0,0-2.355-1.133,2.608,2.608,0,0,0-2.183.97,1.865,1.865,0,0,0,.047,2.294,2.379,2.379,0,1,0-.859,4.6" transform="translate(-365.542 -40.285)" fill="none" stroke="#111414" stroke-linecap="round" stroke-linejoin="round" stroke-width="1"/>
      <path id="Trazado_727363" data-name="Trazado 727363" d="M399.006,162.454a2.616,2.616,0,0,0-.642-4.138,1.7,1.7,0,0,0-2.5.853,4.6,4.6,0,0,0-.351,1.589" transform="translate(-353.675 -33.29)" fill="none" stroke="#111414" stroke-linecap="round" stroke-linejoin="round" stroke-width="1"/>
    </g>
    <g id="Grupo_960374" data-name="Grupo 960374" transform="translate(6062.815 12176)">
      <path id="Trazado_727488" data-name="Trazado 727488" d="M147.575,317.777s-73.3-11.032-91.953-74.021S30.244,142.235,61.139,116.813s31.735-22.39,57.481-44.458,59.8-51.214,118.673-42.754,81.307,38.619,94.18,70.618.736,65.241-11.4,86.135-18.757,40.756-20.965,64.295S263.068,326.058,147.575,317.777Z" transform="translate(-5819.796 -4023.707)" fill="#badc61"/>
      <g id="Grupo_960368" data-name="Grupo 960368" transform="translate(-5752.074 -4040)">
        <g id="Grupo_960367" data-name="Grupo 960367" clip-path="url(#clip-path-6)">
          <path id="Trazado_727386" data-name="Trazado 727386" d="M43.7,166.757c-9.674,8.647-21.761,20.6-18.382,34.673,4.542,13.626,22.951,13.953,32.624,5.434C73.5,194.741,76.3,172.01,92.681,160.662a34.832,34.832,0,0,1-1.46-22.933C74.692,139.6,56.672,156.5,43.7,166.757" transform="translate(-4.983 -27.746)" fill="#aad447"/>
          <path id="Trazado_727387" data-name="Trazado 727387" d="M22.53,207a19.289,19.289,0,0,1,2.04-12.96,15.832,15.832,0,0,1,10.455-7.7c5.655-1.1,11.347,1.251,17.069,1.918,1.785.208,3.8.358,4.952,1.74a5.841,5.841,0,0,1,.977,3.756,34.026,34.026,0,0,1-5.575,18.83c-2.618,3.974-6.233,7.475-10.738,9.008a13.741,13.741,0,0,1-9.975-.373c-3.28-1.494-5.469-4.829-7.059-7.952A22.969,22.969,0,0,1,22.53,207" transform="translate(-4.471 -37.48)" fill="#7cac35"/>
          <path id="Trazado_727388" data-name="Trazado 727388" d="M111.7,284.472c16.355-1.687,32.765-2.769,49.136-4.278,8.39-.773,16.774-1.638,25.128-2.744,8.07-1.069,15.755-1.017,23.918-1.1,1.381-.013,4.313,20.809,4.688,22.914,1.473,8.251,2.842,16.523,3.978,24.828,2.26,16.536,3.6,33.246,2.948,49.943q-.078,2.005-.193,4.007c-.326,5.591-.879,11.236.01,16.766.739,4.6,2.457,8.98,3.637,13.488,4.314,16.48,1.316,33.883-1.7,50.649-6.135.416-12.391.6-18.546.6-7.787.137-15.317-1.428-22.957-1.14.513-.019-4.046-44.9-4.572-48.967q-3.189-24.638-8.142-49-2.263-11.129-4.891-22.18c.543,2.081-.266,3.3-.825,5.215-.811,2.772-1.133,5.774-1.718,8.6-1.191,5.756-2.505,11.49-4.146,17.135-2.131,7.328-4.822,14.551-5.794,22.121-1.063,8.275-.036,16.673-.45,25-.791,15.888-6.767,31-12.666,45.771-5.887.869-12.108.195-18.106.233-6.733.043-13.457.212-20.188.41-.343.01,3.659-83.328,4.23-90.9,2.2-29.2,5.554-58.279,7.222-87.38" transform="translate(-20.191 -55.672)" fill="#111414"/>
          <path id="Trazado_727389" data-name="Trazado 727389" d="M174.664,349.991a109.527,109.527,0,0,1-4.45-17.579,50.173,50.173,0,0,1-18.869-3.153" transform="translate(-30.489 -66.33)" fill="none" stroke="#fff" stroke-linecap="round" stroke-linejoin="round" stroke-width="1"/>
          <path id="Trazado_727390" data-name="Trazado 727390" d="M224.867,283.395a217.87,217.87,0,0,1,8.892,79.812c-1.04,13.841-3.4,27.718-1.953,41.522.949,9.014,3.508,17.776,5.048,26.707s2.015,18.346-1.107,26.855" transform="translate(-45.3 -57.09)" fill="none" stroke="#fff" stroke-linecap="round" stroke-linejoin="round" stroke-width="1"/>
          <path id="Trazado_727391" data-name="Trazado 727391" d="M110.274,265.106a669.818,669.818,0,0,0-9.4-74.208c-4.765-18.015-3.516-36.636-.914-54.929,25.009-10.562,52.479-16.5,79.516-11.375,2.5.264,4.786,1.571,4.832,4.259,1.478,15.9,6.887,30.8,9.982,46.357,5.092,25.325,6.911,51.147,8.72,76.872" transform="translate(-19.673 -24.723)" fill="#aad447"/>
          <path id="Trazado_727392" data-name="Trazado 727392" d="M105.017,221.769c5.294,7.2,12.95,12.37,21.027,16.2s16.663,6.451,25.064,9.508a11.064,11.064,0,0,1,4.8,2.758,10.8,10.8,0,0,1,2.013,5.421,115.046,115.046,0,0,1,1.509,22.466q-23.77,4.316-47.765,7.229" transform="translate(-21.156 -44.676)" fill="#7cac35"/>
          <path id="Trazado_727393" data-name="Trazado 727393" d="M99.816,187.145a148.093,148.093,0,0,1-1.688-30.77" transform="translate(-19.732 -31.502)" fill="none" stroke="#111414" stroke-linecap="round" stroke-linejoin="round" stroke-width="1"/>
          <path id="Trazado_727394" data-name="Trazado 727394" d="M123.261,106.625c2.95,7.156,5.852,14.281,6.963,21.994a4.746,4.746,0,0,0,.931,2.653,5.613,5.613,0,0,0,2.083,1.136,12.2,12.2,0,0,1,5.9,5.159,61.786,61.786,0,0,1,5.49-8.782,26.8,26.8,0,0,0,3.047-4.561,7.15,7.15,0,0,0,.01-6.346q-1.58-3.564-3.234-7.094-3.355-7.156-7.018-14.162l.387.426Z" transform="translate(-24.831 -19.465)" fill="#df9271"/>
          <path id="Trazado_727395" data-name="Trazado 727395" d="M125.746,114.1a64.033,64.033,0,0,1,3.692,9.806c6.564-4.775,14.73-10.97,12.716-19.7Z" transform="translate(-25.332 -20.992)" fill="#d17e54"/>
          <path id="Trazado_727396" data-name="Trazado 727396" d="M125.964,145.494c3.951-2.583,9.04-3.909,13.554-2.078-.815-7.549-10.328-13.147-11.551-18.422-2,3.124-4.046,5.921-4.338,9.693-.039,2.451-1.691,11.674,2.335,10.807" transform="translate(-24.831 -25.18)" fill="#7cac35"/>
          <path id="Trazado_727397" data-name="Trazado 727397" d="M149.137,126.462c-1.109,5.706-5.641,10.317-6.688,16.091,4.216-4.066,14.411-7.438,19.526-3.578-.037-8.616-4.863-17.7-12.58-21.834a16.092,16.092,0,0,1-.259,9.321" transform="translate(-28.697 -23.598)" fill="#7cac35"/>
          <path id="Trazado_727398" data-name="Trazado 727398" d="M96.986,61.866a32.129,32.129,0,0,0-9.749,8.3,13.3,13.3,0,0,0-3.145,6.807,8.977,8.977,0,0,0,3.382,7.65A10.168,10.168,0,0,0,95.7,86.512a11.738,11.738,0,0,0,7.1-4.7" transform="translate(-16.934 -12.463)" fill="#111414"/>
          <path id="Trazado_727399" data-name="Trazado 727399" d="M95.638,95.523c2.5,5.174,6.619,9.744,11.972,11.828,6.1,2.377,13.187,1.256,18.943-1.87a29,29,0,0,0,14.52-19.517,26.857,26.857,0,0,0-6.589-23.276,25.022,25.022,0,0,0-22.919-7.269c-17.582,3.765-23.031,25.375-15.927,40.1" transform="translate(-18.657 -11.063)" fill="#df9271"/>
          <path id="Trazado_727400" data-name="Trazado 727400" d="M141.06,59.733c6.9,3.522,7.653,14.249,3.8,20.3-7.62,9.768-21.7-1.621-18.135-11.926a15.268,15.268,0,0,1-12.952.685,11.454,11.454,0,0,0,6.877-3.9C110.077,69.384,96.809,67.292,86.5,62.72c-18.419-7.45-.888-27.7,7.053-11.661C101.225,36.438,132.023,34,134.9,53.1c3.245-8.765,13.563-3.343,6.872,1.322,5.968-1.417,5.253,7.415-.707,5.314" transform="translate(-15.788 -7.944)" fill="#111414"/>
          <path id="Trazado_727401" data-name="Trazado 727401" d="M97.805,53.458a37.982,37.982,0,0,0,21.708,10.4,23.742,23.742,0,0,0,10.984-.932,13.71,13.71,0,0,0,8.05-7.223" transform="translate(-19.703 -10.769)" fill="none" stroke="#333" stroke-linecap="round" stroke-linejoin="round" stroke-width="1"/>
          <path id="Trazado_727402" data-name="Trazado 727402" d="M113.776,41.691a16.07,16.07,0,0,0,25.436,6.266" transform="translate(-22.92 -8.399)" fill="none" stroke="#333" stroke-linecap="round" stroke-linejoin="round" stroke-width="1"/>
          <path id="Trazado_727403" data-name="Trazado 727403" d="M154.814,64.058a11.738,11.738,0,0,0,4.014,19.948" transform="translate(-30.386 -12.905)" fill="none" stroke="#333" stroke-linecap="round" stroke-linejoin="round" stroke-width="1"/>
          <path id="Trazado_727404" data-name="Trazado 727404" d="M125.385,99.725a4.4,4.4,0,0,0,.813,3.6,3.3,3.3,0,0,0,3.418,1.122,3.923,3.923,0,0,0,2.067-1.735,5.025,5.025,0,0,0,.775-3.37,3.739,3.739,0,0,0-1.944-2.785,4.033,4.033,0,0,0-3.366.094,4.759,4.759,0,0,0-1.762,3.07" transform="translate(-25.241 -19.387)" fill="#d17e54"/>
          <path id="Trazado_727405" data-name="Trazado 727405" d="M99.739,100.439a2.394,2.394,0,0,0-1.35,1.725,4.579,4.579,0,0,0,.158,2.25,4.922,4.922,0,0,0,.894,1.807,2.667,2.667,0,0,0,1.72.982,2.492,2.492,0,0,0,2.372-1.369,3.37,3.37,0,0,0,.03-2.817c-.528-1.249-2.273-3.2-3.823-2.578" transform="translate(-19.805 -20.209)" fill="#d17e54"/>
          <path id="Trazado_727406" data-name="Trazado 727406" d="M99.773,86.768c-.071,1.14.545,2.1,1.376,2.157s1.561-.831,1.632-1.971-.545-2.1-1.377-2.156-1.561.83-1.631,1.97" transform="translate(-20.098 -17.082)" fill="#111414"/>
          <path id="Trazado_727407" data-name="Trazado 727407" d="M119.369,89.209c-.07,1.14.545,2.1,1.376,2.157s1.561-.831,1.632-1.971-.545-2.1-1.376-2.156-1.561.83-1.632,1.97" transform="translate(-24.046 -17.574)" fill="#111414"/>
          <path id="Trazado_727408" data-name="Trazado 727408" d="M119.408,104.077a6.019,6.019,0,0,1-11.068,2.414" transform="translate(-21.825 -20.966)" fill="none" stroke="#111414" stroke-linecap="round" stroke-linejoin="round" stroke-width="1"/>
          <path id="Trazado_727409" data-name="Trazado 727409" d="M109.431,84.7a30.109,30.109,0,0,1,.654,3.835,8.141,8.141,0,0,1-.078,2.818,3.341,3.341,0,0,1-1.625,2.215,7.35,7.35,0,0,1-1.294.419,2.647,2.647,0,0,0-1.194.622,1.143,1.143,0,0,0-.28,1.247,1.594,1.594,0,0,0,1.112.708A8.365,8.365,0,0,0,112.385,96" transform="translate(-21.259 -17.063)" fill="none" stroke="#111414" stroke-linecap="round" stroke-linejoin="round" stroke-width="1"/>
          <path id="Trazado_727410" data-name="Trazado 727410" d="M104.146,80.587a5.033,5.033,0,0,0-7.867,1.366" transform="translate(-19.396 -15.967)" fill="none" stroke="#111414" stroke-linecap="round" stroke-linejoin="round" stroke-width="1"/>
          <path id="Trazado_727411" data-name="Trazado 727411" d="M117.681,81.466a6.794,6.794,0,0,1,9.646,1.784" transform="translate(-23.707 -16.155)" fill="none" stroke="#111414" stroke-linecap="round" stroke-linejoin="round" stroke-width="1"/>
          <path id="Trazado_727412" data-name="Trazado 727412" d="M150.19,86.791c3.914-6.6,15.32-2.145,12.77,5.422-2.142,5.641-11.611,8.181-15.061,2.467Z" transform="translate(-29.794 -16.837)" fill="#df9271"/>
          <path id="Trazado_727413" data-name="Trazado 727413" d="M158.006,88.325a6.211,6.211,0,0,0-.594,6.021" transform="translate(-31.607 -17.793)" fill="none" stroke="#111414" stroke-linecap="round" stroke-linejoin="round" stroke-width="1"/>
          <path id="Trazado_727414" data-name="Trazado 727414" d="M156.995,91.933a3.557,3.557,0,0,0,3.82-.954" transform="translate(-31.627 -18.328)" fill="none" stroke="#111414" stroke-linecap="round" stroke-linejoin="round" stroke-width="1"/>
          <path id="Trazado_727415" data-name="Trazado 727415" d="M185.456,124.312c35-2.372,84.654,24.842,75.174,65.3-1.348,6.6-6.8,11.561-13.728,10.527-23.626-4.095-4.468-20.108-17.027-30.322-10.193-9.847-26.5-10.157-39.783-8.018" transform="translate(-37.36 -25.014)" fill="#aad447"/>
          <path id="Trazado_727416" data-name="Trazado 727416" d="M242.977,186.147c-1.219-4.4,1.128-9.244,4.829-11.909s8.47-3.446,13.028-3.257c4.16.173,8.56,1.247,11.367,4.322s3.474,7.536,3.608,11.707a51.576,51.576,0,0,1-.783,11.237,14.791,14.791,0,0,1-3.058,7.253,8.387,8.387,0,0,1-6,2.814,7.4,7.4,0,0,1-5.94-2.806c-1.108-1.453-1.592-3.283-2.519-4.858-1.855-3.15-5.228-4.917-8.505-6.245a9.742,9.742,0,0,1-2.282-.893,6.2,6.2,0,0,1-1.179-2.063,27.457,27.457,0,0,1-2.569-5.3" transform="translate(-48.883 -34.439)" fill="#7cac35"/>
          <path id="Trazado_727417" data-name="Trazado 727417" d="M208.892,160.217a152.454,152.454,0,0,0-92.333,20.141c8,7.243,19.44,9.382,30.229,9.028a87.951,87.951,0,0,0,62.1-29.169" transform="translate(-23.481 -32.118)" fill="#487424"/>
          <path id="Trazado_727418" data-name="Trazado 727418" d="M205.788,166.305a110.918,110.918,0,0,0-79.923,17.174,109.046,109.046,0,0,0,34.464.5,110.051,110.051,0,0,0,45.46-17.669" transform="translate(-25.356 -33.192)" fill="#375b1a"/>
          <path id="Trazado_727419" data-name="Trazado 727419" d="M199.426,112.646A6.951,6.951,0,0,1,193.9,102.8a33.529,33.529,0,0,1-3.3-4.163,13.291,13.291,0,0,1-1.348-5.336,15.248,15.248,0,0,1,3.419-10.154c.745-.915,3.28-2.43,3.117-3.643-.172-1.282-3.019-2.97-3.775-4.1A13.458,13.458,0,0,1,203.954,54.31,21.762,21.762,0,0,1,210.445,23.3a15.99,15.99,0,0,1,8.956-2.559,10.464,10.464,0,0,1,8.1,4.2,14.153,14.153,0,0,1,4.6-14.418A17.6,17.6,0,0,1,247.181,7.15a23.428,23.428,0,0,1,13.071,8.7,17.439,17.439,0,0,1,3.6,7.523,10.007,10.007,0,0,1-1.809,7.966,16.98,16.98,0,0,1,12.683,17.212A16.982,16.982,0,0,1,259.66,63.72c5.06,4.656,6.547,12.617,3.933,18.978a20.025,20.025,0,0,1-15.784,11.777,23.635,23.635,0,0,1-18.9-6.427c.317,2.846.62,5.809-.347,8.5-2.6,7.252-14.478,5.551-15.907-1.653.513,5.813-4,9.6-9.6,9.14a3.571,3.571,0,0,1,.434,4.768" transform="translate(-38.123 -1.349)" fill="#333"/>
          <path id="Trazado_727420" data-name="Trazado 727420" d="M207.713,136.559l-5.75,3.315,8.359,17.008,7.54-4.347Z" transform="translate(-40.686 -27.51)" fill="#111414"/>
          <rect id="Rectángulo_340647" data-name="Rectángulo 340647" width="11.019" height="4.946" transform="translate(157.458 110.879) rotate(-29.963)" fill="#111414"/>
          <line id="Línea_227" data-name="Línea 227" y1="3.411" x2="5.916" transform="translate(162.052 110.53)" fill="none" stroke="#333" stroke-linecap="round" stroke-linejoin="round" stroke-width="1"/>
          <path id="Trazado_727421" data-name="Trazado 727421" d="M175.8,195.578l-12.96-23.735,16.022-.289-3.871-6.715,17.613.672-4.684-8.125,22.417-4.7,4.557,17.249Z" transform="translate(-32.805 -30.759)" fill="#111414"/>
          <line id="Línea_228" data-name="Línea 228" y1="1.766" x2="8.425" transform="translate(167.057 122.357)" fill="none" stroke="#333" stroke-linecap="round" stroke-linejoin="round" stroke-width="1"/>
          <path id="Trazado_727422" data-name="Trazado 727422" d="M173.99,181.97l6.42-.232,3.439,5.967-4.918,2.836" transform="translate(-35.051 -36.611)" fill="#333"/>
          <path id="Trazado_727423" data-name="Trazado 727423" d="M188.817,174.263l6.419-.232,3.44,5.967-4.918,2.836" transform="translate(-38.038 -35.059)" fill="#333"/>
          <path id="Trazado_727424" data-name="Trazado 727424" d="M204.705,164.155l6.42-.232,3.439,5.967-4.918,2.836" transform="translate(-41.238 -33.023)" fill="#333"/>
          <path id="Trazado_727425" data-name="Trazado 727425" d="M116.559,180.556,150.54,284.8a96.682,96.682,0,0,0,69.751-14.345q-5.7-55.02-11.4-110.04a100.633,100.633,0,0,1-32.36,18.427c-26.669,9.132-50.022,4.38-59.973,1.714" transform="translate(-23.481 -32.316)" fill="#487424"/>
          <path id="Trazado_727426" data-name="Trazado 727426" d="M188.334,274.064l5.206-11.784,8.949,8.028,3.252-3.827,2.352,10.155-9.814.85,1.385-3.429-4.524-4.069-2.581,5.958Z" transform="translate(-37.94 -52.837)" fill="#fff"/>
          <path id="Trazado_727427" data-name="Trazado 727427" d="M208.7,284.636l3.471,3.937-6.369,1.778-.472-4.476-4.644,6.293,6.155,4.4-.35-3.4,11.565-3.142-5.488-7.244Z" transform="translate(-40.429 -56.968)" fill="#fff"/>
          <path id="Trazado_727428" data-name="Trazado 727428" d="M181.783,287.418l6.752-6.62,5.532,5.413-3.768.347-1.742,5.481,5.631-1.207.339,3.914L183.4,296.619l2.509-9.647Z" transform="translate(-36.621 -56.567)" fill="#fff"/>
          <path id="Trazado_727429" data-name="Trazado 727429" d="M118.575,186.753a104.219,104.219,0,0,0,39.184,2.334,105.93,105.93,0,0,0,52.056-22.422" transform="translate(-23.887 -33.575)" fill="none" stroke="#111414" stroke-linecap="round" stroke-linejoin="round" stroke-width="1"/>
          <path id="Trazado_727430" data-name="Trazado 727430" d="M253.259,206.153a21.676,21.676,0,0,0-4.332-11.948,16.312,16.312,0,0,0-10.534-6.2c-1.833,1.992-2.534,4.58-3.719,7.149-8.767,16.262-29.5,22.33-45.857,27.956.124,5.38,1.4,10.534.992,15.971,22.652-.126,45.479-6.035,62.063-21.884a31.689,31.689,0,0,0,1.387-11.038" transform="translate(-38.038 -37.873)" fill="#df9271"/>
          <path id="Trazado_727431" data-name="Trazado 727431" d="M252.659,185.606a8.7,8.7,0,0,0-1.76,1.473,16.312,16.312,0,0,1,10.534,6.2,21.676,21.676,0,0,1,4.332,11.948,31.689,31.689,0,0,1-1.387,11.038c.7-.665,1.385-1.342,2.059-2.042,12.31-13.065,7.872-38.356-13.778-28.622" transform="translate(-50.544 -36.952)" fill="#d17e54"/>
          <path id="Trazado_727432" data-name="Trazado 727432" d="M189.628,233.245c-1.414-7.157-8.672-11.4-15.3-7.95-2.1.605-4.14-.318-6.189-.533-6.05,1.7,2.711,5.76,5.132,6.206-4.676-.484-9.181-1.881-13.867-2.143-2.387-.088-3.434,2.509-1.084,3.541a9.635,9.635,0,0,1,2.217,1.168c-6.245-3.784-9.285,3.574-1.584,4.053-1.409-.354-3.871-.016-3.79,1.893,1.149,2.7,5.132,2.783,7.656,3.519-1.614-.719-4.8-.165-3.979,2.116,10.158,4.077,23.787,5.821,33.66-.153Z" transform="translate(-31.098 -45.14)" fill="#df9271"/>
          <path id="Trazado_727433" data-name="Trazado 727433" d="M177.031,232.068a19.606,19.606,0,0,0,4.278.458" transform="translate(-35.663 -46.75)" fill="none" stroke="#111414" stroke-linecap="round" stroke-linejoin="round" stroke-width="1"/>
          <path id="Trazado_727434" data-name="Trazado 727434" d="M160.56,234.933a48.132,48.132,0,0,0,15.089,2.983" transform="translate(-32.345 -47.328)" fill="none" stroke="#111414" stroke-linecap="round" stroke-linejoin="round" stroke-width="1"/>
          <path id="Trazado_727435" data-name="Trazado 727435" d="M158.557,240.737a133.516,133.516,0,0,0,14.656,2.548" transform="translate(-31.942 -48.497)" fill="none" stroke="#111414" stroke-linecap="round" stroke-linejoin="round" stroke-width="1"/>
          <path id="Trazado_727436" data-name="Trazado 727436" d="M162.287,247.005a44.571,44.571,0,0,0,12.128,1.952" transform="translate(-32.693 -49.759)" fill="none" stroke="#111414" stroke-linecap="round" stroke-linejoin="round" stroke-width="1"/>
          <path id="Trazado_727437" data-name="Trazado 727437" d="M40.446,215.179a20.921,20.921,0,0,1-7.934-10.5,11.889,11.889,0,0,0-1.605,2.853c-5.359,16.731,16.875,23.777,28.588,15.122,2.163-1.437,4.242-2.985,6.269-4.6a34.527,34.527,0,0,1-10.891,1.612,26.264,26.264,0,0,1-14.427-4.489" transform="translate(-6.061 -41.233)" fill="#d17e54"/>
          <path id="Trazado_727438" data-name="Trazado 727438" d="M94.463,162.325c-13.09,5.83-51.974,21.088-61.34,33.824a20.92,20.92,0,0,0,7.934,10.5,26.266,26.266,0,0,0,14.427,4.489,34.52,34.52,0,0,0,10.891-1.613c10.568-8.423,19.552-18.918,29.617-27.913l3.79-3.642a44.815,44.815,0,0,1-5.318-15.643" transform="translate(-6.673 -32.701)" fill="#df9271"/>
          <path id="Trazado_727439" data-name="Trazado 727439" d="M111.687,154.923A11.663,11.663,0,0,1,119.3,152c1.005,1.393-.156,3.9,1.2,5.437,1.664,2.1-6.52,2.024-7.888,3.336-7.727,3.575-4.33-2.886-.927-5.845" transform="translate(-21.742 -30.617)" fill="#df9271"/>
          <path id="Trazado_727440" data-name="Trazado 727440" d="M112.491,143.223,135.8,175.213l21.6-16.531-6.453-3.388,2.373-1.984-9.638-5.643,2-2.355-9.261-4.608,3.6-3.142-11.917-3.087Z" transform="translate(-22.662 -27.09)" fill="#111414"/>
          <path id="Trazado_727441" data-name="Trazado 727441" d="M123.261,144.62l6.694-3.517,4.282,1.58-8.9,5.443" transform="translate(-24.831 -28.425)" fill="#333"/>
          <path id="Trazado_727442" data-name="Trazado 727442" d="M132.084,151.031l6.694-3.517,4.282,1.58-8.9,5.443" transform="translate(-26.609 -29.717)" fill="#333"/>
          <path id="Trazado_727443" data-name="Trazado 727443" d="M140,160.492l6.694-3.517,4.282,1.58-8.9,5.443" transform="translate(-28.204 -31.623)" fill="#333"/>
          <path id="Trazado_727444" data-name="Trazado 727444" d="M142.716,169.723,151.9,164.9l4.282,1.58-11.438,7" transform="translate(-28.75 -33.219)" fill="#333"/>
          <path id="Trazado_727445" data-name="Trazado 727445" d="M108.649,160.095a.289.289,0,0,1-.248.129c7.253-2.241,14.644-4.766,20.507-9.855,3.412-3.949,6.535-.911,4.113,3.25,5.49-4.838,6.678,1.146,2.813,4.747,6.508-3.934,3.463,4.242.055,6.117,5.674-.862-.073,4.763-2.131,5.677-5.919,2.4-14.336,7.9-20.654,5.151Z" transform="translate(-21.838 -29.922)" fill="#df9271"/>
          <path id="Trazado_727446" data-name="Trazado 727446" d="M120.494,158.168a13.454,13.454,0,0,0-3.993,1.159" transform="translate(-23.469 -31.863)" fill="none" stroke="#111414" stroke-linecap="round" stroke-linejoin="round" stroke-width="1"/>
          <path id="Trazado_727447" data-name="Trazado 727447" d="M136.174,155.137a28.232,28.232,0,0,1-11.033,7.827" transform="translate(-25.21 -31.253)" fill="none" stroke="#111414" stroke-linecap="round" stroke-linejoin="round" stroke-width="1"/>
          <path id="Trazado_727448" data-name="Trazado 727448" d="M140.812,160.148a30.7,30.7,0,0,1-11.373,7.59" transform="translate(-26.076 -32.262)" fill="none" stroke="#111414" stroke-linecap="round" stroke-linejoin="round" stroke-width="1"/>
          <path id="Trazado_727449" data-name="Trazado 727449" d="M140.694,168.4a29.564,29.564,0,0,1-10.869,5.4" transform="translate(-26.154 -33.924)" fill="none" stroke="#111414" stroke-linecap="round" stroke-linejoin="round" stroke-width="1"/>
        </g>
      </g>
    </g>
  </g>
</svg>
