<svg xmlns="http://www.w3.org/2000/svg" xmlns:xlink="http://www.w3.org/1999/xlink" width="86" height="86" viewBox="0 0 86 86">
  <defs>
    <clipPath id="clip-path">
      <rect id="Rectángulo_340687" data-name="Rectángulo 340687" width="40.626" height="49.061" fill="none"/>
    </clipPath>
  </defs>
  <g id="Grupo_983961" data-name="Grupo 983961" transform="translate(8838 9215)">
    <circle id="Elipse_12" data-name="Elipse 12" cx="43" cy="43" r="43" transform="translate(-8838 -9215)" fill="#39a900"/>
    <g id="Grupo_983960" data-name="Grupo 983960" transform="translate(-8815 -9197)">
      <g id="Grupo_983959" data-name="Grupo 983959" transform="translate(0 0)" clip-path="url(#clip-path)">
        <path id="Trazado_727660" data-name="Trazado 727660" d="M0,24.48Q0,14.315,0,4.15A3.951,3.951,0,0,1,2.5.272,3.518,3.518,0,0,1,3.812.006Q16.466,0,29.12,0a1.25,1.25,0,0,1,.93.4q5.128,5.124,10.263,10.241a1.234,1.234,0,0,1,.313.959q-.005,9.218,0,18.437,0,7.45,0,14.9a3.936,3.936,0,0,1-3.286,4.078,4.663,4.663,0,0,1-.843.05q-16.192,0-32.383,0A3.922,3.922,0,0,1,0,44.96Q-.007,34.72,0,24.48" transform="translate(0 0)"/>
        <path id="Trazado_727661" data-name="Trazado 727661" d="M3.795,43.755c-.006-.182-.017-.365-.017-.547q0-18.584,0-37.167a2,2,0,0,1,2.274-2.3q11.731,0,23.462-.011c.465,0,.574.13.569.58-.024,2.059-.015,4.118-.009,6.178a3.439,3.439,0,0,0,3.656,3.642c.514,0,1.028.014,1.542.022a.759.759,0,0,1,.158.558c.006,1.107.008,2.215,0,3.322a.825.825,0,0,1-.128.52,1.565,1.565,0,0,1-.967.14q-12.673.005-25.347,0c-.232,0-.465,0-.7.006-.363,0-.561.165-.554.542,0,.033,0,.066,0,.1-.043.948.023,1.021.979,1.021q12.8,0,25.6,0a1.758,1.758,0,0,1,.974.123,3.113,3.113,0,0,1,.144,1.559,1.455,1.455,0,0,1-.152,1.056q-2.764.01-5.529.019c-1.038,0-1.346.3-1.347,1.325,0,2.176-.018,4.352.014,6.528.007.5-.146.591-.608.584-1.793-.027-3.587-.013-5.381-.01-.971,0-1.292.32-1.293,1.277,0,1.545-.01,3.09.007,4.634,0,.341-.077.452-.435.447q-2.217-.031-4.434,0c-.356.005-.437-.1-.435-.445.013-2.907.008-5.814.007-8.721,0-1-.322-1.321-1.307-1.322q-3.263,0-6.527,0c-1.089,0-1.4.307-1.4,1.383q0,7.176,0,14.352c0,.2-.017.4-.026.6a.632.632,0,0,1-.408.148q-.984.027-1.967,0a.54.54,0,0,1-.4-.15" transform="translate(-1.801 -1.781)" fill="#e3f0fe"/>
        <path id="Trazado_727662" data-name="Trazado 727662" d="M59.9,56.505c0,3.769-.006,7.538.009,11.307,0,.4-.093.542-.518.535-1.444-.026-2.888-.02-4.332,0-.349,0-.449-.1-.449-.451q.011-11.432,0-22.863c0-.342.088-.458.444-.454,1.444.019,2.889.025,4.332,0,.409-.007.53.1.529.52-.017,3.8-.01,7.6-.01,11.406" transform="translate(-26.04 -21.258)" fill="#59dd9a"/>
        <path id="Trazado_727663" data-name="Trazado 727663" d="M63.979,32.588q0-1.288,0-2.577c.171-.18.4-.131.609-.152a.424.424,0,0,0,.438-.443c.006-.116.007-.232.008-.348.005-.794.005-.794-.793-.93a.393.393,0,0,1-.262-.126l0-4.379c1.626-.007,3.253-.01,4.879-.026.241,0,.332.08.306.315a2.583,2.583,0,0,0,0,.3q0,15.939,0,31.878a2.1,2.1,0,0,1-2.568,2.26c-.187-.024-.268-.086-.261-.272.005-.15,0-.3,0-.448q0-11.78,0-23.56c0-1.193-.277-1.47-1.458-1.472-.3,0-.6-.012-.9-.018" transform="translate(-30.51 -11.258)" fill="#d8e5f2"/>
        <path id="Trazado_727664" data-name="Trazado 727664" d="M12.918,62.457c0-3.056.009-6.112-.01-9.168,0-.421.116-.522.524-.515,1.444.027,2.89.021,4.334.006.333,0,.457.064.456.431q-.016,9.293,0,18.586c0,.375-.1.478-.474.472q-2.166-.031-4.334,0c-.383.006-.5-.093-.5-.493.017-3.106.009-6.212.009-9.318Z" transform="translate(-6.156 -25.167)" fill="#e9bb5b"/>
        <path id="Trazado_727665" data-name="Trazado 727665" d="M40.741,74.505c-.006-2.831-.017-5.661-.017-8.491,0-1.754.016-3.508.025-5.262a28.841,28.841,0,0,1,2.924-.047c1.2-.015,1.2,0,1.2,1.19,0,2.6.006,5.208,0,7.812a5.076,5.076,0,0,1-3.555,4.775c-.185.056-.375.157-.57.022" transform="translate(-19.421 -28.943)" fill="#2fcafe"/>
        <path id="Trazado_727666" data-name="Trazado 727666" d="M26.824,77.294c0-1.344.01-2.689-.007-4.033,0-.334.069-.46.433-.455q2.215.032,4.431,0c.361,0,.436.118.435.454q-.018,4.033,0,8.067c0,.354-.067.492-.459.485q-2.19-.035-4.381,0c-.4.007-.46-.138-.456-.488.018-1.344.007-2.689.007-4.033Z" transform="translate(-12.789 -34.72)" fill="#fe5974"/>
        <path id="Trazado_727667" data-name="Trazado 727667" d="M40.731,74.466a4.991,4.991,0,0,0,3.8-3.533,3.488,3.488,0,0,0,.178-1.068c0-2.867-.011-5.734.008-8.6,0-.431-.1-.574-.55-.561-1.142.032-2.287.011-3.43.011.107-.161.273-.087.41-.087,1.46,0,2.921.009,4.381-.008.355,0,.485.069.484.46q-.021,7.221,0,14.44c0,.36-.08.488-.465.481-1.46-.022-2.921-.018-4.381,0-.333,0-.49-.072-.459-.437s.018-.729.024-1.094" transform="translate(-19.411 -28.904)" fill="#2dc0f2"/>
        <path id="Trazado_727668" data-name="Trazado 727668" d="M64.588,13.556c-1.73,0-3.555.009-5.38,0a1.387,1.387,0,0,1-1.418-1.332c-.046-1.851-.015-3.7-.015-5.553l6.813,6.889" transform="translate(-27.547 -3.179)" fill="#c6d5e4"/>
        <path id="Trazado_727669" data-name="Trazado 727669" d="M3.8,80.239l2.779,0q.013,2.415.027,4.83c0,.168-.032.263-.237.295a2.089,2.089,0,0,1-2.585-2.188c0-.98.011-1.959.017-2.939" transform="translate(-1.802 -38.265)" fill="#d8e5f2"/>
        <path id="Trazado_727670" data-name="Trazado 727670" d="M38.72,32.026c1.3.029,1.2-.211,1.2,1.023,0,.972,0,.972-.95.974l-.248,0-26.9,0c-.779,0-.8-.029-.806-.822-.007-1.223-.069-1.173,1.155-1.173q13.275,0,26.55,0" transform="translate(-5.252 -15.272)" fill="#c6d5e4"/>
        <path id="Trazado_727671" data-name="Trazado 727671" d="M17.451,13.859c-1.942,0-3.885-.012-5.826.008-.46.005-.614-.144-.6-.6.044-1.575-.212-1.369,1.379-1.373q5.353-.012,10.707,0c.688,0,.73.041.733.731,0,1.239,0,1.239-1.213,1.239H17.451" transform="translate(-5.257 -5.668)" fill="#f3556f"/>
        <path id="Trazado_727672" data-name="Trazado 727672" d="M11.022,23.326c-.02-1.571-.118-1.4,1.368-1.4q8.831,0,17.663.005a1.481,1.481,0,0,1-1.3,1.42,5.1,5.1,0,0,1-.794.027q-7.882,0-15.764-.007c-.389,0-.79.149-1.172-.049" transform="translate(-5.252 -10.455)" fill="#c7d6e4"/>
        <path id="Trazado_727673" data-name="Trazado 727673" d="M11.024,23.335a4.94,4.94,0,0,1,1.381-.1H28.3a1.628,1.628,0,0,0,1.76-1.29c.695-.008.695-.008.7.672,0,1.315,0,1.315-1.3,1.315q-8.876,0-17.752,0c-.431,0-.73-.084-.673-.6" transform="translate(-5.254 -10.464)" fill="#beccda"/>
      </g>
    </g>
  </g>
</svg>
