<svg xmlns="http://www.w3.org/2000/svg" xmlns:xlink="http://www.w3.org/1999/xlink" width="86" height="86" viewBox="0 0 86 86">
  <defs>
    <clipPath id="clip-path">
      <rect id="Rectángulo_340684" data-name="Rectángulo 340684" width="49.441" height="45.859" fill="none"/>
    </clipPath>
  </defs>
  <g id="Grupo_983952" data-name="Grupo 983952" transform="translate(-451 -2337)">
    <circle id="Elipse_14" data-name="Elipse 14" cx="43" cy="43" r="43" transform="translate(451 2337)" fill="#39a900"/>
    <g id="Grupo_983951" data-name="Grupo 983951" transform="translate(469 2357)">
      <g id="Grupo_983950" data-name="Grupo 983950" clip-path="url(#clip-path)">
        <path id="Trazado_727608" data-name="Trazado 727608" d="M6.376,21.55c-.561.314-.76.282-1.219-.187a11.922,11.922,0,0,1-2.276-3.209.479.479,0,0,0-.539-.332,2.213,2.213,0,0,1-2.2-1.477c-.037-.1,0-.237-.138-.283v-.966a2.577,2.577,0,0,1,1.433-1.634c.219-.087.127-.273.124-.416a12.369,12.369,0,0,1,1.34-6.1,12.174,12.174,0,0,1,9.371-6.8A12.431,12.431,0,0,1,25.413,6.985c.053.1.042.4.286.247A.446.446,0,0,0,25.92,6.6a2.216,2.216,0,0,1,1.274-3,2.162,2.162,0,0,1,2.328.458,2.127,2.127,0,0,1,.632,2.281.507.507,0,0,0,.162.583Q31.967,8.55,33.592,10.2a.576.576,0,0,0,.663.177,2.251,2.251,0,0,1,2.794,1.7,2.271,2.271,0,1,1-4.441.957,1.993,1.993,0,0,1,.1-1.23.45.45,0,0,0-.114-.582Q30.933,9.6,29.31,7.951a.407.407,0,0,0-.54-.112,1.829,1.829,0,0,1-1.274.087c-.289-.082-.421.032-.622.185a1.357,1.357,0,0,0-.507,1.634,12.538,12.538,0,0,1-9.131,15,12.377,12.377,0,0,1-9.148-1.151c-.554-.3-.631-.468-.513-1.087.165-.457.509-.59,1.04-.38.777.307,1.515.7,2.321.948a10.7,10.7,0,0,0,7.847-.555,10.845,10.845,0,0,0,5.322-5.308,9.9,9.9,0,0,0,.99-4A10.41,10.41,0,0,0,24.9,10.4c-.14,0-.186.1-.251.166-1.434,1.433-2.864,2.87-4.3,4.3a.919.919,0,0,0-.306.9A2.4,2.4,0,0,1,17.987,18.4a2.353,2.353,0,0,1-2.655-2.192,1.509,1.509,0,0,1,.009-.481c.186-.592-.125-.956-.515-1.336-1.255-1.225-2.49-2.47-3.722-3.718a.746.746,0,0,0-.854-.247A1.684,1.684,0,0,1,9.2,10.413a.621.621,0,0,0-.7.165Q6.632,12.461,4.75,14.333a.6.6,0,0,0-.169.654,2.152,2.152,0,0,1-.243,1.765.772.772,0,0,0,0,.854,13.016,13.016,0,0,0,1.887,2.615,1.636,1.636,0,0,1,.356.453c.137.334.189.658-.2.875" transform="translate(0 0)"/>
        <path id="Trazado_727609" data-name="Trazado 727609" d="M49.27,54.854c.587.167.7.326.7,1.019q0,7.485-.005,14.97c0,.366-.023.642.486.65a.6.6,0,0,1,.555.672.646.646,0,0,1-.559.682,2.819,2.819,0,0,1-.527.04q-23.3,0-46.6,0a2.952,2.952,0,0,1-.385-.014.718.718,0,0,1-.684-.731.677.677,0,0,1,.677-.684c.465-.028.932-.019,1.4-.02,1.223,0,2.448-.025,3.67.012.462.014.534-.142.532-.558C8.511,67.45,8.518,64,8.518,60.56c0-.85.205-1.057,1.046-1.058q1.835,0,3.67,0c.743,0,.98.237.98.983,0,3.477.007,6.954-.008,10.431,0,.393.05.556.506.536.954-.043.955-.012.955-.945,0-.982.006-1.964,0-2.946a.8.8,0,0,1,.711-.924c.4-.17.6.1.764.385a1.467,1.467,0,0,1,.125.754c0,.982.006,1.964,0,2.945,0,.363.131.534.509.521.4-.014.8,0,1.207,0,.783,0,.786,0,.786-.768q0-3.886,0-7.773c0-.322,0-.644,0-.966-.009-.583-.044-.618-.641-.623-.435,0-.869-.007-1.3,0-.495.009-.545.058-.551.565-.009.8,0,1.609,0,2.414a1.261,1.261,0,0,1-.2.782c-.173.231-.372.413-.692.26a.776.776,0,0,1-.709-.875c0-1.288,0-2.575,0-3.863,0-.641.265-.89.923-.892q1.908-.006,3.815,0c.713,0,.957.244.958.954,0,3.493.01,6.986-.011,10.479,0,.435.115.528.527.514.938-.032.939-.009.939-.96q0-6.712,0-13.424c0-.9.212-1.112,1.105-1.113q1.762,0,3.525,0c.839,0,1.064.225,1.064,1.052,0,4.652.007,9.3-.011,13.955,0,.414.112.5.5.489.962-.028.963-.008.963-.985q0-9.32,0-18.639c0-.933.191-1.123,1.132-1.123q1.787,0,3.574,0c.777,0,.99.221.991,1.011q0,9.585-.012,19.171c0,.476.124.586.58.566.887-.038.888-.011.888-.918q0-12.072,0-24.144c0-.951.2-1.151,1.169-1.152,1.175,0,2.35,0,3.525,0,.77,0,1,.239,1,1.015q0,12.314-.012,24.627c0,.474.121.591.581.571.886-.039.887-.011.887-.921q0-15.235,0-30.47c0-1.019.185-1.2,1.216-1.2,1.159,0,2.318,0,3.477,0,.768,0,1,.24,1,1.012q0,6.253,0,12.507c0,.643-.123.807-.7.97a.654.654,0,0,1-.812-.469,2.547,2.547,0,0,1-.1-.954q0-5.311,0-10.623c0-.858,0-.858-.847-.859-.354,0-.708-.006-1.062,0-.519.011-.564.06-.579.594,0,.113,0,.225,0,.338q0,14.461,0,28.923c0,.934,0,.935.915.935.37,0,.741,0,1.111,0,.328,0,.466-.154.461-.472,0-.177,0-.354,0-.531q0-6.953,0-13.906a2.871,2.871,0,0,1,.088-.957.665.665,0,0,1,.829-.514" transform="translate(-1.564 -27.03)"/>
        <path id="Trazado_727610" data-name="Trazado 727610" d="M15.607,44.556a.841.841,0,0,0-.18-1.2,11.014,11.014,0,0,1-2.057-2.9.526.526,0,0,1,.019-.641,2.055,2.055,0,0,0,.256-1.973.407.407,0,0,1,.112-.5q2.006-1.989,4-3.993a.4.4,0,0,1,.5-.117,1.911,1.911,0,0,0,1.416.016.4.4,0,0,1,.5.13q2.213,2.226,4.439,4.438a.484.484,0,0,1,.153.547,2.235,2.235,0,0,0,.805,2.49,2.278,2.278,0,0,0,2.581.079,2.244,2.244,0,0,0,.967-2.433.468.468,0,0,1,.119-.509q2.4-2.379,4.785-4.775a2.165,2.165,0,0,1,.188-.144,11.139,11.139,0,0,1-8.477,13.357,10.705,10.705,0,0,1-7.009-.768c-.277-.127-.549-.265-.823-.4a.778.778,0,0,0-1.1.248,10.012,10.012,0,0,0-1.2-.956" transform="translate(-9.231 -23.007)" fill="#72f1ea"/>
        <path id="Trazado_727611" data-name="Trazado 727611" d="M148.593,58.131c-.6.138-.748.336-.748,1.032q0,7.458,0,14.916c0,.636,0,.636-.636.636-.612,0-1.223-.009-1.834,0-.249.005-.362-.076-.33-.331a1.984,1.984,0,0,0,0-.241q0-14.988-.013-29.977c0-.5.129-.633.61-.6a12.619,12.619,0,0,0,1.737,0c.391-.024.474.11.473.482-.013,3.845-.009,7.691-.008,11.537,0,.7.148.894.748,1.032v1.505" transform="translate(-100.887 -30.306)" fill="#72f1ea"/>
        <path id="Trazado_727612" data-name="Trazado 727612" d="M48.659,115.608c.569-.131.735-.321.738-.888.006-.982.011-1.964,0-2.945,0-.269.066-.363.346-.356q1.062.028,2.124,0c.287-.008.342.1.341.359q-.012,4.876,0,9.752c0,.288-.064.4-.371.386-.691-.022-1.384-.023-2.075,0-.314.01-.369-.111-.366-.391.014-1.175.01-2.35,0-3.524,0-.567-.17-.758-.739-.888a7.123,7.123,0,0,0,0-1.5" transform="translate(-33.848 -77.504)" fill="#fe6a66"/>
        <path id="Trazado_727613" data-name="Trazado 727613" d="M136.814,21.52c1.06,0,2.121,0,3.182,0a.714.714,0,0,1,.766.594.665.665,0,0,1-.342.734.925.925,0,0,1-.509.115c-2.073,0-4.146.008-6.219,0-.571,0-.887-.291-.875-.741s.328-.7.911-.7c1.028-.008,2.057,0,3.085,0Z" transform="translate(-92.389 -14.967)" fill="#010101"/>
        <path id="Trazado_727614" data-name="Trazado 727614" d="M148.164,15.24c-.385,0-.771.012-1.155,0a.7.7,0,0,1-.765-.688.688.688,0,0,1,.715-.743c.817-.03,1.638-.03,2.455,0a.715.715,0,1,1-.046,1.428c-.4.009-.8,0-1.2,0" transform="translate(-101.729 -9.589)" fill="#010101"/>
        <path id="Trazado_727615" data-name="Trazado 727615" d="M146.211,4.613a.713.713,0,0,1,.763-.74.748.748,0,0,1,.681.833.726.726,0,1,1-1.444-.094" transform="translate(-101.706 -2.693)" fill="#010101"/>
        <path id="Trazado_727616" data-name="Trazado 727616" d="M155.717,4.679a.721.721,0,0,1-.736.772.747.747,0,0,1-.712-.808.736.736,0,0,1,.748-.77.722.722,0,0,1,.7.806" transform="translate(-107.312 -2.694)" fill="#020202"/>
        <path id="Trazado_727617" data-name="Trazado 727617" d="M20.924,4.715a11.194,11.194,0,0,1,10.255,6.641.5.5,0,0,1-.114.665q-2.542,2.511-5.053,5.052a.5.5,0,0,1-.662.135,1.919,1.919,0,0,0-1.591-.02.4.4,0,0,1-.5-.105q-2.208-2.231-4.438-4.439a.4.4,0,0,1-.093-.5,2.226,2.226,0,0,0-.756-2.582,2.256,2.256,0,0,0-2.658-.052,2.227,2.227,0,0,0-.846,2.554.487.487,0,0,1-.153.581c-1.316,1.3-2.621,2.614-3.932,3.92-.094.094-.164.257-.351.194-.213-.072-.157-.257-.165-.408A11.159,11.159,0,0,1,19.4,4.832c.529-.076,1.059-.064,1.529-.117" transform="translate(-6.851 -3.28)" fill="#72f1ea"/>
        <path id="Trazado_727618" data-name="Trazado 727618" d="M113.352,39.4a.8.8,0,0,1-.847.789.819.819,0,0,1-.79-.8.858.858,0,0,1,.83-.83.835.835,0,0,1,.807.845" transform="translate(-77.71 -26.819)" fill="#f6b566"/>
        <path id="Trazado_727619" data-name="Trazado 727619" d="M31.005,24.7a.816.816,0,1,1-.833-.815.836.836,0,0,1,.833.815" transform="translate(-20.432 -16.617)" fill="#f7b566"/>
        <path id="Trazado_727620" data-name="Trazado 727620" d="M90.071,16.119a.806.806,0,0,1,.8.833.8.8,0,0,1-.839.791.83.83,0,0,1-.793-.8.839.839,0,0,1,.829-.821" transform="translate(-62.078 -11.212)" fill="#f7b566"/>
        <path id="Trazado_727621" data-name="Trazado 727621" d="M5.62,50.082a.825.825,0,0,1-.84-.8.853.853,0,0,1,.826-.828.829.829,0,0,1,.809.79.809.809,0,0,1-.8.841" transform="translate(-3.326 -33.702)" fill="#f6b566"/>
        <path id="Trazado_727622" data-name="Trazado 727622" d="M57.089,50.755a.83.83,0,0,1-.833.816.8.8,0,0,1-.8-.788.818.818,0,0,1,.792-.848.86.86,0,0,1,.838.82" transform="translate(-38.578 -34.735)" fill="#f7b566"/>
        <path id="Trazado_727623" data-name="Trazado 727623" d="M124.35,76.888c0,3.974-.007,7.948.01,11.921,0,.4-.1.521-.5.5-.658-.036-1.319-.018-1.978-.005-.246,0-.364-.069-.331-.328a1.87,1.87,0,0,0,0-.241q0-11.825-.011-23.65c0-.45.121-.575.558-.548a14.917,14.917,0,0,0,1.785,0c.384-.022.477.1.476.477-.014,3.958-.009,7.916-.009,11.873" transform="translate(-84.545 -44.89)" fill="#72f1ea"/>
        <path id="Trazado_727624" data-name="Trazado 727624" d="M98.05,92.084c0-3.025.011-6.049-.012-9.073,0-.442.124-.538.534-.516.658.035,1.319.018,1.978,0,.226,0,.317.056.3.295-.018.337,0,.675,0,1.013q0,8.736.011,17.472c0,.428-.1.549-.527.521a14.484,14.484,0,0,0-1.785,0c-.4.023-.511-.089-.508-.5.019-2.606.01-5.212.01-7.819Z" transform="translate(-68.196 -57.382)" fill="#72f1ea"/>
        <path id="Trazado_727625" data-name="Trazado 727625" d="M74.564,106.793c0-2.2.007-4.408-.008-6.612,0-.333.08-.446.425-.431.642.028,1.288.028,1.93,0,.352-.016.468.069.46.444-.026,1.206-.01,2.413-.01,3.619,0,3.169-.006,6.339.008,9.508,0,.369-.08.5-.47.481a16.662,16.662,0,0,0-1.833,0c-.39.021-.517-.076-.513-.493.023-2.172.011-4.344.011-6.516" transform="translate(-51.86 -69.385)" fill="#f8b667"/>
        <path id="Trazado_727626" data-name="Trazado 727626" d="M27.592,116.694c0-1.625.008-3.25-.007-4.875,0-.306.068-.419.394-.406.675.026,1.351.018,2.027,0,.271-.006.394.036.393.359q-.019,4.874,0,9.75c0,.287-.065.4-.371.387-.691-.021-1.384-.023-2.075,0-.315.011-.367-.112-.365-.391.011-1.609.005-3.218.005-4.826" transform="translate(-19.188 -77.5)" fill="#fe6a66"/>
      </g>
    </g>
  </g>
</svg>
