<svg xmlns="http://www.w3.org/2000/svg" xmlns:xlink="http://www.w3.org/1999/xlink" width="86" height="86" viewBox="0 0 86 86">
  <defs>
    <clipPath id="clip-path">
      <rect id="Rectángulo_340686" data-name="Rectángulo 340686" width="48.365" height="48.363" fill="none"/>
    </clipPath>
  </defs>
  <g id="Grupo_983958" data-name="Grupo 983958" transform="translate(-1082 -2337)">
    <circle id="Elipse_10" data-name="Elipse 10" cx="43" cy="43" r="43" transform="translate(1082 2337)" fill="#39a900"/>
    <g id="Grupo_983957" data-name="Grupo 983957" transform="translate(1101 2356)">
      <g id="Grupo_983956" data-name="Grupo 983956" transform="translate(0 0)" clip-path="url(#clip-path)">
        <path id="Trazado_727645" data-name="Trazado 727645" d="M5.71,0H33.36a1.638,1.638,0,0,1,1.461,1.91q0,7.382,0,14.764c0,.141,0,.283,0,.425.01.505.021.526.546.5A12.08,12.08,0,0,1,44,20.23c.531.444.6.73.345,1.257-.5.482-.81.508-1.35.075a10.4,10.4,0,0,0-13.834.691,10.316,10.316,0,0,0-.617,14.136,10.146,10.146,0,0,0,5.68,3.4,10.559,10.559,0,0,0,4.212.032,9.631,9.631,0,0,0,4.483-2.071,10.4,10.4,0,0,0,2.241-13.733c-.085-.132-.181-.258-.253-.4a.955.955,0,0,1,.126-1.212.857.857,0,0,1,1.256.308A12.2,12.2,0,0,1,48.117,26.6c.157.559.128,1.143.247,1.706v2.642a9.637,9.637,0,0,1-.923,3.624A11.856,11.856,0,0,1,37,41.671c-.551.038-1.1-.005-1.649-.01-.5,0-.518.007-.526.529,0,.314,0,.629,0,.943a1.827,1.827,0,0,1-1.8,1.912c-.642.053-1.288.01-1.933.019-.553.008-.594.048-.6.586-.006.346.015.692-.012,1.037a1.675,1.675,0,0,1-1.787,1.672q-13.489.006-26.978,0C.571,48.36,0,47.758,0,46.58Q0,35.1,0,23.612q0-6.084,0-12.168c0-.651.1-.809.638-1a.868.868,0,0,1,.958.872,7.15,7.15,0,0,1,.017.8q0,16.764,0,33.528c0,1.1,0,1.1,1.085,1.1H27.836c.941,0,.941,0,.936-.939,0-.718-.019-.737-.741-.737-2.987,0-5.973,0-8.96,0-.773,0-1.028-.172-1.274-.8.007-.55.181-.744.8-.891,4.288-.016,8.576,0,12.864-.007.377,0,.754-.022,1.131-.02.345,0,.532-.149.519-.509,0-.062,0,.016,0-.047.074-1.461.074-1.461-1.313-2a10.722,10.722,0,0,1-1.635-.839,2.331,2.331,0,0,0-1.337-.362q-9.437.013-18.874.005a4.345,4.345,0,0,1-.847-.039.869.869,0,0,1-.779-.912c.024-.451.322-.714.86-.754.22-.016.44-.009.66-.009q8.517,0,17.034,0a1.117,1.117,0,0,0,.621-.084c-.419-.483-.759-1.006-1.187-1.457-.186-.2-.473-.138-.722-.139q-2.972-.005-5.945,0H9.742a3.16,3.16,0,0,1-.705-.039.869.869,0,0,1-.708-.877.843.843,0,0,1,.758-.775,4.762,4.762,0,0,1,.707-.022h14.58c.126,0,.252,0,.378,0,.532-.011.56-.05.384-.533-.419-1.149-.419-1.149-1.63-1.149H9.823a3.876,3.876,0,0,1-.753-.034.848.848,0,0,1-.751-.835.858.858,0,0,1,.812-.828,5.555,5.555,0,0,1,.66-.016H23.474q.259,0,.519,0c.291,0,.445-.115.387-.434a4.187,4.187,0,0,1-.041-.659c-.013-.545-.046-.584-.6-.584q-3.4-.007-6.794,0H9.674a3.156,3.156,0,0,1-.659-.034.848.848,0,0,1-.694-.787.816.816,0,0,1,.589-.818,2.506,2.506,0,0,1,.842-.074H23.719c.75,0,.75,0,.931-.732.235-.951.235-.951-.739-.951H9.756a4,4,0,0,1-.707-.027.838.838,0,0,1-.719-.761.861.861,0,0,1,.609-.858,2.661,2.661,0,0,1,.843-.067c4.986,0,9.972-.01,14.958.011a1.139,1.139,0,0,0,1.231-.707,4.935,4.935,0,0,1,.448-.721c.11-.169.067-.261-.14-.266-.126,0-.252,0-.377,0H9.765a4.5,4.5,0,0,1-.754-.028.743.743,0,0,1-.676-.68.829.829,0,0,1,.5-.88A2.164,2.164,0,0,1,9.76,20.9c5.772,0,11.545-.009,17.317.011a2.391,2.391,0,0,0,1.747-.628,9.817,9.817,0,0,1,3.064-1.826,5.421,5.421,0,0,1,.7-.27.655.655,0,0,0,.531-.758c-.014-1.336-.005-2.673-.005-4.009q0-5.471,0-10.942c0-.173,0-.346-.01-.519a.35.35,0,0,0-.382-.381c-.3-.009-.6-.016-.9-.012-1.778.016-3.555.006-5.332.007q-9.6,0-19.2,0H6.822c-.82,0-.859.042-.864.842,0,.078,0,.157,0,.236V42.281c0,1.069,0,1.069,1.06,1.069q4.27,0,8.54,0c.473,0,.929.038,1.105.593.057.735-.239,1.089-.984,1.116-.912.032-1.824.009-2.736.01q-3.184,0-6.368,0a2.052,2.052,0,0,1-2.336-2.354q0-18.4,0-36.794c0-.958,0-.958-.946-.958-.362,0-.724-.011-1.085.005-.491.022-.578.1-.587.591-.018.912.007,1.824-.011,2.736-.013.673-.217.921-.828,1.068C.169,9.25.006,9.066,0,8.452c-.005-1.1,0-2.2,0-3.3A1.727,1.727,0,0,1,1.787,3.27c.628-.036,1.258,0,1.887-.013.527-.007.566-.048.575-.561.005-.3-.008-.6.006-.9A1.718,1.718,0,0,1,5.71,0" transform="translate(0 0)"/>
        <path id="Trazado_727646" data-name="Trazado 727646" d="M24.55,45.908a.864.864,0,0,0-.925-.489c-3.066.01-6.133.006-9.2.005-.6,0-.637-.037-.637-.646q0-20.4,0-40.807c0-.372.03-.63.518-.63q12.691.015,25.381.008a1.32,1.32,0,0,1,.14.014c.276.151.24.422.243.667.01.9,0,1.791,0,2.687q0,6.458,0,12.915a1.294,1.294,0,0,1-.153.863,12.144,12.144,0,0,0-3.623,2.334.821.821,0,0,1-.651.179q-9.058,0-18.117,0a2.716,2.716,0,0,0-.562.034.692.692,0,0,0,.064,1.365,4.238,4.238,0,0,0,.518.015H34.821a18.536,18.536,0,0,0-1.127,1.858c-.1.2-.311.105-.468.105q-6.676.009-13.352,0c-.912,0-1.824-.011-2.736.006a.684.684,0,0,0-.729.7c0,.426.277.688.764.708.126.005.252,0,.377,0h10c1.7,0,3.4.009,5.1-.007.355,0,.431.07.3.414a3.748,3.748,0,0,0-.264,1.094c-.021.448-.239.474-.6.473q-7.289-.015-14.578-.006a3.576,3.576,0,0,0-.471.01.684.684,0,0,0-.626.748.661.661,0,0,0,.671.654c.14.012.283,0,.424,0,4.828,0,9.656.005,14.484-.01.4,0,.511.1.482.486a4.692,4.692,0,0,0,.063,1.033c.051.344,0,.479-.408.477-3.57-.018-7.14-.011-10.71-.011q-2.052,0-4.1,0c-.6,0-.909.247-.906.71s.316.7.917.7q7.525,0,15.05-.009c.36,0,.518.085.609.446.129.51.342,1,.534,1.536H17.495a3.816,3.816,0,0,0-.471.008.641.641,0,0,0-.608.611.661.661,0,0,0,.456.738,1.552,1.552,0,0,0,.605.057q8.21,0,16.418-.005a.683.683,0,0,1,.682.358,12.559,12.559,0,0,0,1.287,1.61H17.554a4.612,4.612,0,0,0-.518.014.638.638,0,0,0-.623.646.652.652,0,0,0,.584.732,2.669,2.669,0,0,0,.517.022q9.766,0,19.532,0a1.475,1.475,0,0,1,.92.266,14.014,14.014,0,0,0,1.857,1.006.59.59,0,0,1,.242.577c.009.55.016,1.1,0,1.649-.016.5-.073.547-.59.547q-6.221,0-12.441,0a1.7,1.7,0,0,0-.515.027c-.328.123-.651.248-.654.682-.563.269-1.1.191-1.314-.189" transform="translate(-7.972 -1.932)" fill="#f9f6f7"/>
        <path id="Trazado_727647" data-name="Trazado 727647" d="M73.99,66.14a8.164,8.164,0,0,1-3.268.161,10.514,10.514,0,0,1-.29-20.842,9.109,9.109,0,0,1,3.553.11,9.624,9.624,0,0,1,4.418,3.4,10.842,10.842,0,0,1,2.289,5.852,11.177,11.177,0,0,1-2.4,8.076,11.351,11.351,0,0,1-3.064,2.695,7.412,7.412,0,0,1-1.243.552" transform="translate(-35.534 -26.222)" fill="#6ce699"/>
        <path id="Trazado_727648" data-name="Trazado 727648" d="M17.418,50.587c.2.294.5.166.759.186.184.014.37,0,.555,0,.189.622.349.742,1.011.742,3.192,0,6.385.007,9.577-.008.366,0,.5.086.46.46a6.918,6.918,0,0,0,0,1.037c.019.357-.109.542-.486.507-.078-.007-.157,0-.236,0H3.014c-.709,0-.71,0-.71-.706V18.179c0-.758-.18-.97-.85-1.011a3.631,3.631,0,0,0,.095-1.305c.611-.148.753-.322.755-.938,0-.99.013-1.98-.005-2.97-.007-.393.148-.533.53-.524.707.016,1.415.013,2.122,0,.225,0,.317.065.293.292a3.624,3.624,0,0,0,0,.377V49.4c0,1.492.627,2.122,2.112,2.122q4.574,0,9.147,0c.7,0,.926-.231.918-.931" transform="translate(-0.841 -6.611)" fill="#e6e1e5"/>
        <path id="Trazado_727649" data-name="Trazado 727649" d="M91.2,66.457a17.111,17.111,0,0,0,2.565-1.641,10.928,10.928,0,0,0,3.841-6.453,11.039,11.039,0,0,0-2.116-9.05A10.616,10.616,0,0,0,91.85,46.25c-.221-.115-.435-.243-.652-.365A9.648,9.648,0,0,1,95.783,48a.837.837,0,0,0,1.177.072l.871.946a.868.868,0,0,0,0,1.189A10.513,10.513,0,0,1,91.982,66.31a2.119,2.119,0,0,1-.779.147" transform="translate(-52.747 -26.539)" fill="#00d7a1"/>
        <path id="Trazado_727650" data-name="Trazado 727650" d="M75.637,20.5V3.919a.894.894,0,0,0-.093-.547c.345-.005.691-.007,1.036-.016.278-.008.407.123.4.4,0,.094,0,.189,0,.283q0,7.785.006,15.57c0,.326-.05.519-.418.584a6.316,6.316,0,0,0-.933.313" transform="translate(-43.694 -1.941)" fill="#efedef"/>
        <path id="Trazado_727651" data-name="Trazado 727651" d="M43.985,99.292c.166-.136.363-.073.545-.074q6.08-.006,12.16,0c.784,0,.707.081.687-.715a7.291,7.291,0,0,0-.086-2.009c.4.131.8.267,1.2.39a.294.294,0,0,1,.24.337q-.018.825,0,1.649c.006.332-.156.446-.464.436s-.629,0-.943,0l-13.338-.01" transform="translate(-25.44 -55.808)" fill="#efedef"/>
        <path id="Trazado_727652" data-name="Trazado 727652" d="M33.877,13.054q-3.654,0-7.309,0a1.671,1.671,0,0,1-1.853-1.869c0-.692-.005-1.383,0-2.075a1.644,1.644,0,0,1,1.708-1.73q7.426-.007,14.853,0A1.65,1.65,0,0,1,43,9.06q.037,1.154,0,2.31a1.653,1.653,0,0,1-1.762,1.682q-3.679.008-7.356,0" transform="translate(-14.294 -4.266)"/>
        <path id="Trazado_727653" data-name="Trazado 727653" d="M31.126,35.394q-5.023,0-10.046,0a2.176,2.176,0,0,1-.514-.035.65.65,0,0,1-.546-.76.642.642,0,0,1,.654-.615c.125-.01.251,0,.377,0H41.236a3.46,3.46,0,0,1,.424.01.649.649,0,0,1,.6.626.664.664,0,0,1-.437.709,1.453,1.453,0,0,1-.6.071H31.126" transform="translate(-11.575 -19.651)"/>
        <path id="Trazado_727654" data-name="Trazado 727654" d="M31.157,27.357H21.015a1.27,1.27,0,0,1-.6-.076.668.668,0,0,1-.4-.73.65.65,0,0,1,.575-.6,2.69,2.69,0,0,1,.471-.013H41.2c.723,0,1.066.226,1.065.7s-.353.714-1.065.714H31.157" transform="translate(-11.573 -15.002)"/>
        <path id="Trazado_727655" data-name="Trazado 727655" d="M31.11,41.981H41.25c.674,0,1.019.243,1.02.705s-.349.71-1.018.71q-10.116,0-20.232,0a1.907,1.907,0,0,1-.513-.046.635.635,0,0,1-.491-.708.625.625,0,0,1,.534-.627,2.843,2.843,0,0,1,.563-.032q5,0,10,0" transform="translate(-11.575 -24.281)" fill="#010101"/>
        <path id="Trazado_727656" data-name="Trazado 727656" d="M70.957,60.18a2.206,2.206,0,0,1,1.648.688c.481.476.973.941,1.43,1.439.246.267.39.276.655.006q2.482-2.522,5-5.007a2.266,2.266,0,0,1,3.787.866,2.1,2.1,0,0,1-.487,2.272q-3.53,3.575-7.1,7.1a2.192,2.192,0,0,1-3.04,0q-1.823-1.745-3.569-3.568a2.145,2.145,0,0,1-.407-2.453,2.226,2.226,0,0,1,2.089-1.351" transform="translate(-39.709 -32.744)"/>
        <path id="Trazado_727657" data-name="Trazado 727657" d="M42.385,13.551c-.99.007-1.979.019-2.969.019-3.583,0-7.167-.007-10.75.011-.467,0-.653-.114-.618-.6a13.238,13.238,0,0,0,0-1.7c-.026-.438.128-.564.563-.562,3.93.015,7.859.008,11.788.009.644,0,1.288.01,1.932.015a.453.453,0,0,1,.209.394c.025.7.027,1.393,0,2.089a.422.422,0,0,1-.155.326" transform="translate(-16.22 -6.199)" fill="#6ce699"/>
        <path id="Trazado_727658" data-name="Trazado 727658" d="M61.986,13.559a19.643,19.643,0,0,0-.053-2.809c1.4-.042,1.162-.115,1.182,1.1.007.408-.015.816.005,1.223.02.39-.137.551-.525.511-.2-.022-.407-.016-.61-.023" transform="translate(-35.821 -6.207)" fill="#00d6a0"/>
        <path id="Trazado_727659" data-name="Trazado 727659" d="M84.149,60.858a1.014,1.014,0,0,1-.312.665Q80.419,64.937,77,68.353a.857.857,0,0,1-1.361,0Q74,66.729,72.374,65.087a.867.867,0,0,1-.073-1.3.883.883,0,0,1,1.3.067c.706.693,1.4,1.4,2.1,2.1a.745.745,0,0,0,1.249-.011q2.753-2.746,5.5-5.5a2.035,2.035,0,0,1,.429-.361.865.865,0,0,1,1.269.771" transform="translate(-41.669 -34.693)" fill="#f9f6f7"/>
      </g>
    </g>
  </g>
</svg>
