<svg xmlns="http://www.w3.org/2000/svg" xmlns:xlink="http://www.w3.org/1999/xlink" width="86" height="86" viewBox="0 0 86 86">
  <defs>
    <clipPath id="clip-path">
      <rect id="Rectángulo_340685" data-name="Rectángulo 340685" width="36" height="51.099" fill="none"/>
    </clipPath>
  </defs>
  <g id="Grupo_983955" data-name="Grupo 983955" transform="translate(-770 -2337)">
    <circle id="Elipse_9" data-name="Elipse 9" cx="43" cy="43" r="43" transform="translate(770 2337)" fill="#39a900"/>
    <g id="Grupo_983954" data-name="Grupo 983954" transform="translate(795 2354)">
      <g id="Grupo_983953" data-name="Grupo 983953" clip-path="url(#clip-path)">
        <path id="Trazado_727627" data-name="Trazado 727627" d="M35.244,45.84c.631.265.768.521.63,1.18a5.108,5.108,0,0,1-4.9,4.062q-12.959.032-25.917,0A5.1,5.1,0,0,1,.01,46.15C0,45.968,0,45.787,0,45.6Q0,28.772,0,11.94A5.176,5.176,0,0,1,3.8,6.717a8.8,8.8,0,0,1,2.548-.161c.348.005.424-.1.416-.427-.022-.927-.01-1.855-.007-2.783,0-.763.25-1.018,1.008-1.02,2.037,0,4.074-.008,6.111.005a.677.677,0,0,0,.686-.373,3.994,3.994,0,0,1,6.872,0,.679.679,0,0,0,.684.376c2.019-.014,4.038-.009,6.056-.006.831,0,1.066.24,1.067,1.072,0,.891.019,1.783-.008,2.674-.011.371.073.5.469.487a9.717,9.717,0,0,1,2.174.088,5.171,5.171,0,0,1,4.113,4.8.839.839,0,0,1-.543.907c-.654.171-.951,0-1.105-.65-.063-.265-.1-.537-.161-.8a3.342,3.342,0,0,0-3.312-2.647q-12.848-.017-25.7,0A3.433,3.433,0,0,0,1.7,11.616c-.016.2-.013.4-.013.6q0,16.613,0,33.226a5.358,5.358,0,0,0,.085,1.085A3.413,3.413,0,0,0,5.247,49.39q7.884.011,15.768,0,4.747,0,9.493,0a3.468,3.468,0,0,0,3.708-2.737c.232-.741.461-.923,1.029-.815" transform="translate(0 0)"/>
        <path id="Trazado_727628" data-name="Trazado 727628" d="M38.269,61.831a.883.883,0,0,0-.869.813,3.562,3.562,0,0,1-3.634,2.909q-12.744.008-25.487,0a3.59,3.59,0,0,1-3.721-3.716q-.011-17.028,0-34.056a3.58,3.58,0,0,1,3.716-3.713q12.744-.008,25.488,0a3.593,3.593,0,0,1,3.721,3.377c.077.748.254.91.989.9-.218.134-.21.345-.209.565.006.933,0,1.866.005,2.8a1.763,1.763,0,0,0-.607,1.642c.025,1.8.031,3.6,0,5.4a1.408,1.408,0,0,0,.707,1.5,3.171,3.171,0,0,0-.095,1.339c-.021.67,0,1.342,0,2.013a1.574,1.574,0,0,0-.6,1.521q.024,5.9,0,11.8c0,.656.064,1.219.7,1.558a2.655,2.655,0,0,0-.1,1.229c-.02.706,0,1.413,0,2.12" transform="translate(-3.024 -15.99)" fill="#98bbe6"/>
        <path id="Trazado_727629" data-name="Trazado 727629" d="M103.6,97.171c-.665-.059-.872-.264-.873-.917q-.005-6.521-.005-13.042a.816.816,0,0,1,.781-.925.855.855,0,0,1,.753.966q-.007,6.493,0,12.986a.832.832,0,0,1-.655.932" transform="translate(-68.261 -54.68)"/>
        <path id="Trazado_727630" data-name="Trazado 727630" d="M103.594,55.391c-.662-.06-.869-.266-.871-.915-.005-2.211.008-4.423-.009-6.634a.864.864,0,0,1,.782-.986.9.9,0,0,1,.758,1.022c-.012,2.177-.009,4.354,0,6.531,0,.487-.143.853-.658.983" transform="translate(-68.254 -31.136)"/>
        <path id="Trazado_727631" data-name="Trazado 727631" d="M51.189,7.1a2.5,2.5,0,1,1-2.463-2.529A2.524,2.524,0,0,1,51.189,7.1" transform="translate(-30.686 -3.038)" fill="#edd98c"/>
        <path id="Trazado_727632" data-name="Trazado 727632" d="M31.212,14.169c-2.12,0-4.137,0-6.155,0-.256,0-.4-.029-.391-.345.022-.672.017-1.345,0-2.017-.006-.264.088-.342.345-.341,1.672.009,3.345.005,5.017,0,.172,0,.327-.005.328.241a4.345,4.345,0,0,0,.853,2.453" transform="translate(-16.39 -7.622)" fill="#9baeca"/>
        <path id="Trazado_727633" data-name="Trazado 727633" d="M63.109,14.169a4.364,4.364,0,0,0,.854-2.454c0-.247.158-.24.329-.24,1.672,0,3.345.005,5.017,0,.258,0,.351.077.345.341-.015.672-.02,1.346,0,2.018.011.317-.136.345-.392.344-2.017-.007-4.035,0-6.155,0" transform="translate(-41.936 -7.622)" fill="#9baeca"/>
        <path id="Trazado_727634" data-name="Trazado 727634" d="M38.991,47.847q0,8.375,0,16.75a2.151,2.151,0,0,1-2.474,2.458H11.475a2.114,2.114,0,0,1-2.368-2.343q0-16.886,0-33.772a2.1,2.1,0,0,1,2.335-2.316q12.6,0,25.206,0a2.109,2.109,0,0,1,2.342,2.365q0,8.429,0,16.859" transform="translate(-6.051 -19.02)"/>
        <path id="Trazado_727635" data-name="Trazado 727635" d="M40.493,50.814q0,8.4,0,16.807c0,.822-.114.932-.95.932H14.606c-.826,0-.939-.112-.939-.942q0-16.752,0-33.5c0-.823.109-.929.949-.929H39.553c.837,0,.94.1.94.939q0,8.348,0,16.7" transform="translate(-9.081 -22.047)" fill="#f4f2f7"/>
        <path id="Trazado_727636" data-name="Trazado 727636" d="M59.208,46.826c1.435,0,2.869,0,4.3,0,.608,0,.931.264.94.739.008.5-.335.785-.96.786q-4.277.005-8.554,0c-.625,0-.974-.29-.968-.778s.331-.746.988-.747c1.416,0,2.833,0,4.25,0" transform="translate(-35.864 -31.115)"/>
        <path id="Trazado_727637" data-name="Trazado 727637" d="M59.207,79.36c-1.435,0-2.869,0-4.3,0-.611,0-.928-.261-.933-.743s.332-.779.915-.781q4.331-.011,8.662,0c.579,0,.915.315.905.789s-.329.733-.941.734c-1.435,0-2.869,0-4.3,0" transform="translate(-35.863 -51.719)" fill="#010101"/>
        <path id="Trazado_727638" data-name="Trazado 727638" d="M59.21,108.971q2.125,0,4.249,0c.666,0,.986.242.993.736s-.336.788-.961.789q-4.277.007-8.553,0c-.625,0-.973-.3-.967-.784s.333-.74.989-.741q2.125,0,4.249,0" transform="translate(-35.864 -72.412)"/>
        <path id="Trazado_727639" data-name="Trazado 727639" d="M59.2,59.808c-1.416,0-2.833,0-4.25,0-.642,0-.978-.268-.979-.759s.347-.766.977-.767q4.277,0,8.554,0c.621,0,.966.3.951.791-.015.471-.344.732-.948.734-1.435,0-2.869,0-4.3,0" transform="translate(-35.864 -38.726)"/>
        <path id="Trazado_727640" data-name="Trazado 727640" d="M59.22,90.9q-2.043,0-4.085,0a2.616,2.616,0,0,1-.541-.035.7.7,0,0,1-.611-.775.689.689,0,0,1,.687-.7c.27-.024.544-.012.816-.012,2.669,0,5.338,0,8.007,0,.463,0,.839.107.953.609.119.524-.267.915-.923.919-1.434.01-2.869,0-4.3,0" transform="translate(-35.871 -59.389)" fill="#010101"/>
        <path id="Trazado_727641" data-name="Trazado 727641" d="M59.267,120.41q2.1,0,4.2,0c.639,0,.981.266.99.752s-.329.774-.963.774q-4.277,0-8.554,0c-.632,0-.973-.281-.964-.774s.352-.751.991-.752q2.152,0,4.3,0" transform="translate(-35.864 -80.012)"/>
        <path id="Trazado_727642" data-name="Trazado 727642" d="M23.112,48.913a1.089,1.089,0,0,1,.865.4c.356.324.648.948,1.056.915.361-.029.679-.6,1.014-.934.708-.706,1.413-1.416,2.124-2.12.423-.419.857-.471,1.2-.157.373.346.346.785-.1,1.234q-1.789,1.8-3.589,3.587c-.5.495-.853.492-1.352,0-.545-.536-1.087-1.074-1.619-1.622a.7.7,0,0,1-.157-.85.731.731,0,0,1,.563-.451" transform="translate(-14.93 -31.107)"/>
        <path id="Trazado_727643" data-name="Trazado 727643" d="M29.4,78.569a.936.936,0,0,1-.318.724c-1.219,1.219-2.432,2.443-3.658,3.655a.779.779,0,0,1-1.273-.005q-.8-.779-1.578-1.578a.772.772,0,1,1,1.072-1.1,9.408,9.408,0,0,1,.8.811c.241.29.4.292.671.012.958-.992,1.944-1.957,2.919-2.931a.752.752,0,0,1,.887-.21.789.789,0,0,1,.473.616" transform="translate(-14.8 -51.755)"/>
        <path id="Trazado_727644" data-name="Trazado 727644" d="M29.17,109.735a.779.779,0,0,1-.29.594c-1.233,1.233-2.461,2.471-3.7,3.7a.761.761,0,0,1-1.233-.008q-.8-.776-1.583-1.577a.782.782,0,0,1-.071-1.195c.331-.311.746-.273,1.154.106.027.025.05.053.078.076.366.317.649.945,1.063.92.358-.022.685-.587,1.019-.919q1.121-1.113,2.236-2.234a.762.762,0,0,1,.9-.179.7.7,0,0,1,.432.72" transform="translate(-14.649 -72.392)"/>
      </g>
    </g>
  </g>
</svg>
