<svg xmlns="http://www.w3.org/2000/svg" xmlns:xlink="http://www.w3.org/1999/xlink" width="86" height="86" viewBox="0 0 86 86">
  <defs>
    <clipPath id="clip-path">
      <rect id="Rectángulo_340688" data-name="Rectángulo 340688" width="49.346" height="60.409" fill="none"/>
    </clipPath>
  </defs>
  <g id="Grupo_983964" data-name="Grupo 983964" transform="translate(8523 9215)">
    <circle id="Elipse_13" data-name="Elipse 13" cx="43" cy="43" r="43" transform="translate(-8523 -9215)" fill="#39a900"/>
    <g id="Grupo_983963" data-name="Grupo 983963" transform="translate(-8504 -9202)">
      <g id="Grupo_983962" data-name="Grupo 983962" transform="translate(0 0)" clip-path="url(#clip-path)">
        <path id="Trazado_727674" data-name="Trazado 727674" d="M49.346,32.726q0,11.892,0,23.785a3.566,3.566,0,0,1-3.9,3.9H4.912A4.557,4.557,0,0,1,0,55.513Q0,54.1,0,52.682c0-1.016.327-1.333,1.365-1.336a7.929,7.929,0,0,1,1.069.009c.522.07.6-.157.6-.621Q3.014,29.751,3.023,8.766A3.528,3.528,0,0,1,5.957,5.084a4.847,4.847,0,0,1,.877-.051c4.888,0,9.776-.013,14.664.013.56,0,.7-.134.669-.68a4.03,4.03,0,1,1,8.046-.328c.015.994.015.994,1.022.994q7.143,0,14.286,0a3.547,3.547,0,0,1,3.826,3.847q0,11.924,0,23.848" transform="translate(0 0)"/>
        <path id="Trazado_727675" data-name="Trazado 727675" d="M51.212,43.389q0,11.009,0,22.019a2.479,2.479,0,0,1-1.369,2.367,2.369,2.369,0,0,1-2.611-.193,2.406,2.406,0,0,1-1.053-2.038c-.011-1.069,0-2.139,0-3.208,0-.986-.335-1.321-1.317-1.321q-13.591,0-27.182.011c-.549,0-.72-.1-.719-.7q.03-19.471,0-38.941c0-.582.171-.666.692-.662,2.664.027,5.327.018,7.991.006a.722.722,0,0,1,.78.424,2.863,2.863,0,0,0,2.661,1.591q5,.022,10,0a2.9,2.9,0,0,0,2.7-1.629.637.637,0,0,1,.675-.386c2.726.012,5.453.019,8.179-.006.47,0,.582.11.581.581q-.025,11.04-.012,22.081" transform="translate(-7.909 -9.668)" fill="#e9e8e3"/>
        <path id="Trazado_727676" data-name="Trazado 727676" d="M38.773,105.024H6.6a2.559,2.559,0,0,1-2.838-2.834c0-.587.022-1.176-.008-1.761-.019-.368.115-.49.46-.44a1.8,1.8,0,0,0,.252,0q16.425,0,32.849-.015c.591,0,.771.168.692.721a6.341,6.341,0,0,0-.006.691,5.746,5.746,0,0,0,.768,3.637" transform="translate(-1.752 -46.63)" fill="#cccbc7"/>
        <path id="Trazado_727677" data-name="Trazado 727677" d="M74.465,64.553a5.709,5.709,0,0,0,.776-3.358q-.016-22.238-.007-44.475c0-1.24-.266-1.5-1.515-1.5-2.978,0-5.956-.009-8.934.01-.46,0-.655-.069-.643-.6.033-1.422,0-1.423,1.445-1.423h9.752c1.37,0,1.908.534,1.908,1.9q0,23.747,0,47.495c0,1.448-.515,1.959-1.971,1.959h-.812" transform="translate(-29.916 -6.158)" fill="#c6820b"/>
        <path id="Trazado_727678" data-name="Trazado 727678" d="M9.438,35.916q0-10.41,0-20.82c0-1.367.534-1.9,1.9-1.9,3.523,0,7.046.007,10.569-.01.468,0,.649.084.637.606-.033,1.417-.005,1.417-1.45,1.417H12.852c-1.106,0-1.4.3-1.4,1.427q0,20.065.015,40.129c0,.614-.15.771-.754.747-1.273-.05-1.275-.014-1.275-1.279V35.916" transform="translate(-4.402 -6.15)" fill="#c6820b"/>
        <path id="Trazado_727679" data-name="Trazado 727679" d="M43.779,13.194c1.846,0,3.692.013,5.538-.01.412-.005.532.105.515.517-.034.8,0,1.594-.013,2.39a1.015,1.015,0,0,1-1.131,1.127q-4.909.01-9.817,0a1.013,1.013,0,0,1-1.131-1.125c-.011-.8.02-1.595-.012-2.391-.017-.408.1-.523.513-.518,1.846.023,3.692.01,5.538.01" transform="translate(-17.596 -6.149)" fill="#e9e8e3"/>
        <path id="Trazado_727680" data-name="Trazado 727680" d="M47.2,6.789c-.544,0-1.088,0-1.632,0-.128,0-.276.067-.352-.15A2.4,2.4,0,0,1,46.5,3.906,2.028,2.028,0,0,1,49.242,5.63c.1,1.158.1,1.158-1.038,1.158h-1" transform="translate(-21.049 -1.758)" fill="#e9e8e3"/>
        <path id="Trazado_727681" data-name="Trazado 727681" d="M35.871,46.421H22.092a1.458,1.458,0,0,1-.8-.126.951.951,0,0,1-.5-1.114.972.972,0,0,1,1.016-.772c1.132,0,2.266-.033,3.4.013.521.021.62-.161.6-.627-.037-.753-.018-1.51-.008-2.264a1.027,1.027,0,0,1,1.171-1.149q1.856-.011,3.712,0a1.027,1.027,0,0,1,1.156,1.164c.009.817.019,1.636-.006,2.453-.01.337.1.409.422.416,1.6.036,1.6.045,1.6-1.559q0-4.592,0-9.184c0-1.028.321-1.347,1.352-1.348q1.7,0,3.4,0c.946,0,1.291.343,1.292,1.283,0,3.4.01,6.793-.01,10.19,0,.472.089.636.6.623,1.423-.036,1.423-.01,1.423-1.426q0-6.668,0-13.335c0-1.036.32-1.361,1.338-1.362,1.153,0,2.307,0,3.46,0,.893,0,1.243.359,1.243,1.268,0,4.739.011,9.478-.013,14.216,0,.535.138.69.653.634a9.475,9.475,0,0,1,1.32-.006,1,1,0,1,1-.009,2.006c-1.8.013-3.607,0-5.411,0H35.871" transform="translate(-9.682 -13.198)"/>
        <path id="Trazado_727682" data-name="Trazado 727682" d="M20.762,73.08a7.049,7.049,0,1,1,7.089,7.053,7.057,7.057,0,0,1-7.089-7.053" transform="translate(-9.684 -30.801)"/>
        <path id="Trazado_727683" data-name="Trazado 727683" d="M60.78,84.907q2.388,0,4.775,0c.8,0,1.253.366,1.261.994s-.457,1.017-1.237,1.018q-4.806,0-9.612,0c-.775,0-1.242-.4-1.229-1.026.013-.607.464-.983,1.206-.985,1.613,0,3.225,0,4.838,0" transform="translate(-25.53 -39.601)"/>
        <path id="Trazado_727684" data-name="Trazado 727684" d="M59.769,79.371c-1.277,0-2.554,0-3.831,0-.738,0-1.191-.384-1.2-.991s.444-1.017,1.171-1.019q3.862-.008,7.724,0c.726,0,1.18.411,1.169,1.021s-.463.986-1.2.989c-1.277.005-2.554,0-3.831,0" transform="translate(-25.53 -36.08)"/>
        <path id="Trazado_727685" data-name="Trazado 727685" d="M25.26,37.858c-1.109,0-2.219.005-3.327,0-.723,0-1.179-.415-1.166-1.024a1.02,1.02,0,0,1,1.142-.984q3.39-.01,6.781,0a1.017,1.017,0,0,1,1.135.991c.008.61-.446,1.013-1.173,1.018-1.13.007-2.26,0-3.39,0" transform="translate(-9.685 -16.717)"/>
        <path id="Trazado_727686" data-name="Trazado 727686" d="M58.76,69.81c.963,0,1.925-.007,2.887,0a1.022,1.022,0,0,1,1.141.985c.012.61-.443,1.022-1.166,1.024q-2.856.009-5.712,0c-.727,0-1.181-.408-1.172-1.018s.459-.988,1.2-.992c.942-.006,1.883,0,2.825,0" transform="translate(-25.53 -32.559)"/>
        <path id="Trazado_727687" data-name="Trazado 727687" d="M23.788,28.3c.648,0,1.3-.012,1.944,0a1,1,0,1,1,.022,2.005q-1.975.024-3.951,0a1,1,0,0,1-1.038-1.022,1.009,1.009,0,0,1,1.078-.983c.648-.014,1.3,0,1.944,0" transform="translate(-9.685 -13.195)"/>
        <path id="Trazado_727688" data-name="Trazado 727688" d="M23.782,43.393c.628,0,1.254-.007,1.882,0a1.024,1.024,0,0,1,1.139.986A1.011,1.011,0,0,1,25.7,45.4q-1.913.018-3.826,0a1.01,1.01,0,1,1,.026-2.008c.627-.01,1.254,0,1.882,0" transform="translate(-9.685 -20.238)"/>
        <path id="Trazado_727689" data-name="Trazado 727689" d="M64.16,39.045c0-2.158.011-4.315-.01-6.473,0-.411.108-.52.518-.519,1.505.005,1.506-.011,1.506,1.47,0,4.022-.009,8.044.012,12.065,0,.471-.113.592-.583.584-1.442-.026-1.443,0-1.443-1.472V39.045" transform="translate(-29.921 -14.95)" fill="#5ebdf6"/>
        <path id="Trazado_727690" data-name="Trazado 727690" d="M51.078,44.642c0,1.51-.017,3.021.01,4.531.007.426-.132.513-.53.513-1.5,0-1.5.012-1.5-1.488,0-2.664.009-5.328-.008-7.992,0-.428.043-.623.56-.613,1.462.029,1.463,0,1.463,1.463v3.587" transform="translate(-22.88 -18.466)" fill="#ed9c0d"/>
        <path id="Trazado_727691" data-name="Trazado 727691" d="M35.986,55.673c0,1.057,0,1.057-1.082,1.057-.932,0-.932,0-.932-.957,0-1.057,0-1.057,1.083-1.057.932,0,.932,0,.932.957" transform="translate(-15.845 -25.52)" fill="#f9a5b1"/>
        <path id="Trazado_727692" data-name="Trazado 727692" d="M28.561,70.094c0,1.509,0,3.012-.006,4.515a1.006,1.006,0,0,1-.133.41c-.584,1.18-1.175,2.356-1.762,3.534-.107.215-.179.434-.47.153a4.952,4.952,0,0,1-1.482-5.033,4.861,4.861,0,0,1,3.853-3.578" transform="translate(-11.442 -32.693)" fill="#5ebdf6"/>
        <path id="Trazado_727693" data-name="Trazado 727693" d="M31.548,84.959c.607-1.214,1.2-2.363,1.756-3.527.14-.291.339-.311.6-.309,1.129.007,2.258.019,3.386-.005.414-.009.487.078.364.487a5.032,5.032,0,0,1-6.11,3.354" transform="translate(-14.714 -37.834)" fill="#ed9c0d"/>
        <path id="Trazado_727694" data-name="Trazado 727694" d="M37.642,73.965c-.533-.062-1.388.285-1.751-.13-.314-.36-.088-1.194-.094-1.819,0-.544.012-1.088-.006-1.631-.01-.306.1-.35.367-.264A5.065,5.065,0,0,1,39.64,73.6c.085.268.049.378-.261.368-.544-.018-1.088,0-1.737,0" transform="translate(-16.662 -32.687)" fill="#f9a5b1"/>
      </g>
    </g>
  </g>
</svg>
