<svg xmlns="http://www.w3.org/2000/svg" xmlns:xlink="http://www.w3.org/1999/xlink" width="371" height="134.55" viewBox="0 0 371 134.55">
  <defs>
    <filter id="Trazado_727853" x="112.028" y="0" width="134.55" height="134.55" filterUnits="userSpaceOnUse">
      <feOffset input="SourceAlpha"/>
      <feGaussianBlur stdDeviation="5" result="blur"/>
      <feFlood flood-opacity="0.161"/>
      <feComposite operator="in" in2="blur"/>
      <feComposite in="SourceGraphic"/>
    </filter>
  </defs>
  <g id="Grupo_984380" data-name="Grupo 984380" transform="translate(4932 836.733)">
    <path id="Trazado_727606" data-name="Trazado 727606" d="M30.332,0h0L28.478,150.33,0,131.889,26.527,259.332,8.119,250.29,18.448,371H46.97L32.48,292.885,57.3,305.077,32.217,184.564l23.133,14.98Z" transform="translate(-4561 -798.462) rotate(90)" fill="#badc61"/>
    <g transform="matrix(1, 0, 0, 1, -4932, -836.73)" filter="url(#Trazado_727853)">
      <path id="Trazado_727853-2" data-name="Trazado 727853" d="M52.275,0A52.275,52.275,0,1,1,0,52.275,52.275,52.275,0,0,1,52.275,0Z" transform="translate(127.03 15)" fill="#fff"/>
    </g>
    <path id="Trazado_727606-2" data-name="Trazado 727606" d="M18.98-51.018l.758,4.357.227.038.833-4.395,5.417-24.094H39.665L26.33-34.122H13.335L0-75.112H13.487ZM64.9-45.639a3.342,3.342,0,0,0-1.724-2.709,18.59,18.59,0,0,0-6.27-2.14q-7.16-1.4-10.8-4.338a9.826,9.826,0,0,1-3.637-8.088A11.526,11.526,0,0,1,47.014-72.1Q51.56-75.87,59.327-75.87q8.183,0,13.032,3.656a10.748,10.748,0,0,1,4.622,9.452l-.076.227H64.479a5.077,5.077,0,0,0-1.212-3.675,5.364,5.364,0,0,0-3.978-1.25,5.2,5.2,0,0,0-3.372,1.1,3.444,3.444,0,0,0-1.364,2.8,3.336,3.336,0,0,0,1.572,2.766q1.572,1.137,6.346,2.046,7.539,1.477,11.138,4.414a10.123,10.123,0,0,1,3.6,8.316A10.857,10.857,0,0,1,72.3-36.906q-4.906,3.58-12.975,3.58-8.372,0-13.241-4.243T41.445-47.04l.076-.227H53.114a5.139,5.139,0,0,0,1.762,4.205,7.758,7.758,0,0,0,4.792,1.288,6.4,6.4,0,0,0,3.9-1A3.375,3.375,0,0,0,64.9-45.639Z" transform="translate(-4792.316 -711.699)" fill="#0e494d"/>
  </g>
</svg>
